<svg xmlns="http://www.w3.org/2000/svg" xmlns:xlink="http://www.w3.org/1999/xlink" width="66.12" height="66.12" viewBox="0 0 66.12 66.12">
  <defs>
    <filter id="Path_33090" x="0" y="0" width="66.12" height="66.12" filterUnits="userSpaceOnUse">
      <feOffset input="SourceAlpha"/>
      <feGaussianBlur stdDeviation="5" result="blur"/>
      <feFlood flood-color="#add6e5" flood-opacity="0.4"/>
      <feComposite operator="in" in2="blur"/>
      <feComposite in="SourceGraphic"/>
    </filter>
  </defs>
  <g id="back" transform="translate(17 17)">
    <g transform="matrix(1, 0, 0, 1, -17, -17)" filter="url(#Path_33090)">
      <g id="Path_33090-2" data-name="Path 33090" transform="translate(17 17)" fill="#add6e5">
        <path d="M 16.06005859375 33.1201171875 C 6.653108596801758 33.1201171875 -1.000001430511475 25.46700859069824 -1.000001430511475 16.06005859375 C -1.000001430511475 6.653108596801758 6.653108596801758 -1.000001430511475 16.06005859375 -1.000001430511475 C 25.46700859069824 -1.000001430511475 33.1201171875 6.653108596801758 33.1201171875 16.06005859375 C 33.1201171875 25.46700859069824 25.46700859069824 33.1201171875 16.06005859375 33.1201171875 Z" stroke="none"/>
        <path d="M 16.06005859375 0 C 7.204269409179688 0 0 7.204269409179688 0 16.06005859375 C 0 24.91584777832031 7.204269409179688 32.1201171875 16.06005859375 32.1201171875 C 24.91584777832031 32.1201171875 32.1201171875 24.91584777832031 32.1201171875 16.06005859375 C 32.1201171875 7.204278945922852 24.91584777832031 0 16.06005859375 0 M 16.06005859375 -2 C 26.01840972900391 -2 34.1201171875 6.101709365844727 34.1201171875 16.06005859375 C 34.1201171875 26.01840972900391 26.01840972900391 34.1201171875 16.06005859375 34.1201171875 C 6.101709365844727 34.1201171875 -2 26.01840972900391 -2 16.06005859375 C -2 6.101709365844727 6.101709365844727 -2 16.06005859375 -2 Z" stroke="none" fill="#fff"/>
      </g>
    </g>
    <path id="Path_33091" data-name="Path 33091" d="M0,0A16.078,16.078,0,0,1,16.06,16.06,16.078,16.078,0,0,1,0,32.12Z" transform="translate(16.06)" fill="#b6e0ef"/>
    <path id="Path_33092" data-name="Path 33092" d="M15.068,23.458l8.7-8.365a1.006,1.006,0,0,0,0-1.448l-8.7-8.365a1,1,0,0,0-1.7.724v4.35h-7.7A1.675,1.675,0,0,0,4,12.027v4.684a1.675,1.675,0,0,0,1.673,1.673h7.7v4.35A1,1,0,0,0,15.068,23.458Z" transform="translate(2.691 1.691)" fill="#fff"/>
    <path id="Path_33093" data-name="Path 33093" d="M4,12H24.075a1.006,1.006,0,0,1-.308.724l-8.7,8.365a1,1,0,0,1-1.7-.724v-4.35h-7.7A1.675,1.675,0,0,1,4,14.342Z" transform="translate(2.692 4.06)" fill="#fafafa"/>
  </g>
</svg>
