<svg width="83" height="80" viewBox="0 0 83 80" fill="none" xmlns="http://www.w3.org/2000/svg">
<path d="M29.7263 32.316C26.3953 27.85 23.4153 22.916 22.5263 17.416C21.6373 11.916 23.1953 5.74503 27.5903 2.31603C31.9853 -1.11297 39.3203 -0.626967 42.3333 4.06203C43.6333 6.08703 44.0203 8.54903 44.3773 10.93C45.444 18.096 46.5143 25.2627 47.5883 32.43C51.9299 23.6664 58.869 16.4552 67.4593 11.78C71.9593 9.34803 78.3663 8.03003 81.5203 12.054C83.2953 14.318 83.2653 17.605 82.1573 20.261C80.8942 22.8557 79.1406 25.1812 76.9933 27.109C70.5054 33.6078 63.4805 39.5472 55.9933 44.864C61.1335 46.049 65.8015 48.7451 69.3964 52.6055C72.9914 56.4658 75.3488 61.3136 76.1653 66.525C76.5611 68.5712 76.3527 70.6884 75.5653 72.618C73.7733 76.362 68.7653 77.629 64.7913 76.418C60.8173 75.207 57.7123 72.152 54.9533 69.051C51.2966 64.9392 47.9516 60.5604 44.9463 55.951C43.9932 60.2855 42.1601 64.378 39.5606 67.975C36.9611 71.572 33.6507 74.5968 29.8343 76.862C26.1083 79.043 21.0673 80.34 17.6953 77.643C15.4843 75.877 14.6683 72.843 14.7033 70.011C14.8133 61.545 21.0824 54.585 26.9734 48.5C22.1324 47.943 17.2633 49.216 12.3923 49.081C7.5213 48.946 2.06832 46.761 0.633325 42.106C-0.553675 38.256 1.58931 33.932 4.92831 31.679C8.26731 29.426 12.5133 28.929 16.5283 29.241C21.7409 29.6503 26.7804 31.2976 31.2283 34.046" fill="white"/>
<path d="M46.077 21.9299C45.633 19.9019 43.341 12.5789 33.658 14.2459C33.5923 14.2575 33.53 14.284 33.4762 14.3236C33.4224 14.3632 33.3785 14.4147 33.3479 14.474C33.3173 14.5334 33.3009 14.599 33.2999 14.6658C33.2988 14.7325 33.3133 14.7987 33.342 14.8589C34.342 16.9649 38.6 24.7729 45.682 22.6009C45.8202 22.5592 45.9375 22.467 46.0107 22.3426C46.0839 22.2183 46.1076 22.0709 46.077 21.9299Z" fill="#90E0A5"/>
<path d="M46.5543 28.376C46.3214 28.376 46.0981 28.2835 45.9334 28.1189C45.7688 27.9542 45.6763 27.7309 45.6763 27.498V14.96C45.6763 14.7272 45.7688 14.5038 45.9334 14.3392C46.0981 14.1745 46.3214 14.082 46.5543 14.082C46.7871 14.082 47.0105 14.1745 47.1751 14.3392C47.3398 14.5038 47.4323 14.7272 47.4323 14.96V27.498C47.4323 27.7309 47.3398 27.9542 47.1751 28.1189C47.0105 28.2835 46.7871 28.376 46.5543 28.376Z" fill="#2B2B2B"/>
<path d="M63.1732 47.551L56.9942 58.785C56.1421 60.0742 54.841 61.0003 53.344 61.3835C51.8469 61.7666 50.2608 61.5793 48.8942 60.858C48.1726 60.4803 47.3702 60.283 46.5557 60.283C45.7412 60.283 44.9388 60.4803 44.2172 60.858C42.8508 61.5805 41.2644 61.7684 39.767 61.3852C38.2697 61.0019 36.9686 60.075 36.1172 58.785L29.9372 47.551C28.7477 45.4464 28.0196 43.1129 27.8012 40.7053C27.5827 38.2978 27.879 35.8713 28.6702 33.587C30.5702 28.068 34.2702 26.143 36.8322 25.477C37.6537 25.2583 38.4992 25.1424 39.3492 25.132C39.4942 25.132 39.5722 25.132 39.5722 25.132C40.6912 25.1303 41.8025 25.3159 42.8602 25.681C43.8619 26.0276 44.7985 26.5393 45.6312 27.195C45.8884 27.4155 46.216 27.5366 46.5547 27.5366C46.8934 27.5366 47.221 27.4155 47.4782 27.195C48.3109 26.5393 49.2475 26.0276 50.2492 25.681C51.3065 25.3158 52.4176 25.1302 53.5362 25.132C53.5362 25.132 61.3592 24.632 64.4362 33.582C65.2287 35.8661 65.5258 38.2928 65.3079 40.7006C65.09 43.1084 64.3619 45.4423 63.1722 47.547L63.1732 47.551Z" fill="#FAA29D"/>
<path d="M18.8582 40.3267C12.6742 38.6507 13.6582 54.9407 20.8342 55.8007L18.8582 40.3267Z" fill="#ADD6E5"/>
<path d="M24.6331 62.9319C24.7735 61.9816 25.008 61.0477 25.3331 60.1439C25.5791 59.4301 25.9062 58.7469 26.3081 58.1079C26.4214 57.9412 26.4645 57.7367 26.4281 57.5385C26.3916 57.3403 26.2785 57.1645 26.1132 57.0491C25.948 56.9337 25.744 56.8881 25.5454 56.9221C25.3467 56.9562 25.1695 57.0671 25.0521 57.2309C23.9984 58.9373 23.3314 60.8539 23.0981 62.8459C22.2482 63.4731 21.5285 64.2597 20.9791 65.1619C20.9314 65.2512 20.9018 65.3492 20.8922 65.45C20.8825 65.5509 20.893 65.6526 20.9229 65.7494C20.9529 65.8462 21.0017 65.9361 21.0666 66.0139C21.1316 66.0916 21.2113 66.1558 21.3012 66.2025C21.391 66.2493 21.4893 66.2777 21.5902 66.2863C21.6912 66.2948 21.7928 66.2832 21.8893 66.2522C21.9857 66.2212 22.0751 66.1713 22.1521 66.1055C22.2292 66.0397 22.2924 65.9593 22.3381 65.8689C22.5029 65.5748 22.7046 65.303 22.9381 65.0599C22.9381 65.2999 22.9381 65.5439 22.9441 65.7939C22.9451 65.8958 22.9665 65.9964 23.0069 66.09C23.0473 66.1835 23.1059 66.268 23.1794 66.3386C23.2529 66.4092 23.3397 66.4644 23.4347 66.5011C23.5298 66.5377 23.6313 66.555 23.7331 66.5519C23.8349 66.5489 23.9351 66.5255 24.0279 66.4832C24.1206 66.441 24.2039 66.3806 24.273 66.3058C24.3421 66.2309 24.3956 66.143 24.4303 66.0472C24.465 65.9514 24.4802 65.8496 24.4751 65.7479C24.4665 65.4532 24.4665 65.1582 24.4751 64.8629C24.7358 65.1204 24.944 65.426 25.0881 65.7629C25.1568 65.9504 25.2961 66.1038 25.4763 66.1901C25.6564 66.2765 25.8632 66.289 26.0525 66.2251C26.2417 66.1612 26.3986 66.0259 26.4895 65.848C26.5804 65.6701 26.5982 65.4637 26.5391 65.2729C26.11 64.3452 25.4546 63.5402 24.6331 62.9319ZM31.2931 63.3319C31.4335 62.3816 31.668 61.4477 31.9931 60.5439C32.239 59.8301 32.5661 59.1469 32.9681 58.5079C33.0272 58.4255 33.0693 58.3322 33.0921 58.2334C33.1148 58.1345 33.1177 58.0322 33.1006 57.9323C33.0834 57.8323 33.0466 57.7368 32.9923 57.6512C32.938 57.5656 32.8672 57.4916 32.7841 57.4335C32.701 57.3755 32.6071 57.3345 32.508 57.313C32.409 57.2915 32.3066 57.2899 32.2069 57.3083C32.1072 57.3266 32.0121 57.3646 31.9272 57.42C31.8422 57.4753 31.7691 57.547 31.7121 57.6309C30.6585 59.3374 29.9916 61.254 29.7581 63.2459C28.9082 63.8731 28.1885 64.6597 27.6391 65.5619C27.5914 65.6512 27.5618 65.7492 27.5522 65.85C27.5425 65.9509 27.553 66.0526 27.5829 66.1494C27.6129 66.2462 27.6617 66.3361 27.7266 66.4139C27.7916 66.4916 27.8713 66.5558 27.9611 66.6025C28.051 66.6493 28.1493 66.6777 28.2502 66.6863C28.3512 66.6948 28.4528 66.6832 28.5493 66.6522C28.6457 66.6211 28.7351 66.5713 28.8121 66.5055C28.8892 66.4397 28.9524 66.3593 28.9981 66.2689C29.1629 65.9748 29.3645 65.7029 29.5981 65.4599C29.5981 65.6999 29.5981 65.9439 29.6041 66.1939C29.6051 66.2957 29.6265 66.3964 29.6669 66.4899C29.7073 66.5835 29.7659 66.668 29.8394 66.7386C29.9129 66.8092 29.9997 66.8644 30.0947 66.901C30.1898 66.9377 30.2913 66.955 30.3931 66.9519C30.4949 66.9489 30.5951 66.9255 30.6879 66.8832C30.7806 66.841 30.8639 66.7806 30.933 66.7058C31.0021 66.6309 31.0556 66.543 31.0903 66.4472C31.125 66.3514 31.1402 66.2496 31.1351 66.1479C31.1265 65.8532 31.1265 65.5582 31.1351 65.2629C31.3958 65.5204 31.604 65.826 31.7481 66.1629C31.7784 66.2606 31.8278 66.3512 31.8936 66.4294C31.9594 66.5076 32.0402 66.5719 32.1313 66.6185C32.2223 66.665 32.3217 66.6928 32.4237 66.7003C32.5257 66.7078 32.6281 66.6948 32.7249 66.6621C32.8218 66.6294 32.9111 66.5776 32.9877 66.5098C33.0642 66.4421 33.1264 66.3597 33.1706 66.2675C33.2148 66.1753 33.2401 66.0752 33.245 65.9731C33.2499 65.871 33.2343 65.7689 33.1991 65.6729C32.7708 64.7444 32.1156 63.9387 31.2941 63.3299L31.2931 63.3319Z" fill="#ADD6E5"/>
<path d="M26.1164 57.0427C26.034 56.985 25.941 56.944 25.8428 56.9222C25.7446 56.9004 25.643 56.8982 25.5439 56.9157C25.4448 56.9331 25.3502 56.9699 25.2653 57.024C25.1805 57.078 25.1071 57.1483 25.0494 57.2307C24.3459 58.3432 23.8247 59.5608 23.5054 60.8377C23.9657 61.0757 24.441 61.2835 24.9284 61.4597C25.0396 61.0143 25.1731 60.5747 25.3284 60.1427C25.5743 59.4289 25.9015 58.7458 26.3034 58.1067C26.4191 57.9406 26.4644 57.7355 26.4294 57.5361C26.3943 57.3368 26.2818 57.1593 26.1164 57.0427ZM32.9664 58.5057C33.0254 58.4233 33.0676 58.33 33.0903 58.2312C33.113 58.1324 33.1159 58.03 33.0988 57.9301C33.0817 57.8301 33.0449 57.7346 32.9906 57.649C32.9362 57.5634 32.8655 57.4894 32.7823 57.4314C32.6992 57.3733 32.6054 57.3324 32.5063 57.3109C32.4072 57.2894 32.3048 57.2877 32.2051 57.3061C32.1054 57.3244 32.0103 57.3624 31.9254 57.4178C31.8405 57.4732 31.7674 57.5448 31.7104 57.6287C30.8287 59.0418 30.2236 60.6096 29.9274 62.2487C30.454 62.2487 30.9804 62.2347 31.5064 62.2067C31.6337 61.6422 31.7961 61.0861 31.9924 60.5417C32.238 59.8279 32.5648 59.1448 32.9664 58.5057Z" fill="#ADD6E5"/>
<path d="M40.491 57.1108C39.0322 55.8624 38.0267 54.1671 37.6309 52.2883C37.235 50.4095 37.4709 48.4526 38.302 46.7218C40.827 41.5818 42.352 33.9828 37.57 30.7388C29.735 26.2028 20.216 31.5388 18.63 41.5078C17.044 51.4768 20.483 60.2078 29.657 60.2078C38.831 60.2078 40.491 57.1108 40.491 57.1108Z" fill="#CEE8F1"/>
<path d="M33.8273 39.7188C33.5239 39.7183 33.2249 39.6462 32.9545 39.5084C32.6842 39.3706 32.4501 39.171 32.2714 38.9258C32.0926 38.6806 31.9742 38.3967 31.9257 38.0972C31.8772 37.7976 31.9 37.4909 31.9923 37.2018C32.0541 37.0082 32.1903 36.8471 32.3709 36.7539C32.5515 36.6607 32.7617 36.643 32.9553 36.7048C33.1489 36.7666 33.3101 36.9028 33.4033 37.0834C33.4965 37.264 33.5141 37.4742 33.4523 37.6678C33.4322 37.7647 33.4486 37.8655 33.4985 37.951C33.5483 38.0364 33.6281 38.1003 33.7223 38.1304C33.8165 38.1605 33.9185 38.1546 34.0087 38.1138C34.0988 38.0731 34.1707 38.0004 34.2103 37.9098C34.2392 37.8119 34.2873 37.7208 34.3519 37.6418C34.4164 37.5628 34.4961 37.4974 34.5863 37.4496C34.6764 37.4018 34.7752 37.3725 34.8769 37.3635C34.9785 37.3544 35.0809 37.3657 35.1781 37.3967C35.2753 37.4278 35.3654 37.4779 35.4429 37.5443C35.5205 37.6106 35.584 37.6917 35.6297 37.7829C35.6755 37.8741 35.7026 37.9736 35.7094 38.0754C35.7162 38.1772 35.7026 38.2793 35.6693 38.3758C35.5441 38.7659 35.2983 39.1062 34.9672 39.3476C34.6362 39.5889 34.237 39.7189 33.8273 39.7188ZM26.8093 37.5188C26.5054 37.519 26.2056 37.4475 25.9345 37.31C25.6634 37.1725 25.4286 36.9729 25.2492 36.7275C25.0697 36.4821 24.9508 36.1978 24.902 35.8978C24.8532 35.5978 24.8759 35.2904 24.9683 35.0008C24.9972 34.903 25.0453 34.8118 25.1099 34.7328C25.1744 34.6538 25.2541 34.5884 25.3443 34.5406C25.4344 34.4928 25.5332 34.4635 25.6349 34.4545C25.7365 34.4454 25.8389 34.4567 25.9361 34.4877C26.0333 34.5188 26.1234 34.5689 26.2009 34.6352C26.2785 34.7016 26.342 34.7827 26.3877 34.8739C26.4335 34.9651 26.4606 35.0646 26.4674 35.1664C26.4742 35.2682 26.4606 35.3703 26.4273 35.4668C26.4072 35.5637 26.4236 35.6645 26.4735 35.75C26.5233 35.8354 26.6031 35.8993 26.6973 35.9294C26.7915 35.9595 26.8935 35.9536 26.9837 35.9128C27.0738 35.8721 27.1457 35.7994 27.1853 35.7088C27.2159 35.613 27.2651 35.5241 27.3301 35.4472C27.395 35.3703 27.4745 35.307 27.5639 35.2609C27.6533 35.2147 27.751 35.1866 27.8512 35.1782C27.9515 35.1698 28.0525 35.1812 28.1483 35.2118C28.2442 35.2424 28.3331 35.2916 28.41 35.3566C28.4868 35.4215 28.5501 35.501 28.5963 35.5904C28.6424 35.6798 28.6705 35.7774 28.6789 35.8777C28.6874 35.978 28.6759 36.079 28.6453 36.1748C28.5206 36.5641 28.2758 36.9039 27.9459 37.1454C27.616 37.3869 27.2181 37.5176 26.8093 37.5188Z" fill="#2B2B2B"/>
<path d="M31.3903 41.2147C30.4963 45.1967 25.9133 43.2427 26.7153 40.6517L28.6673 40.0017L31.3903 41.2147Z" fill="#FAA29D"/>
<path d="M31.3893 41.2159C31.3263 39.4309 29.4953 36.8629 25.9893 40.0439C25.9873 40.0429 27.5633 42.0569 31.3893 41.2159Z" fill="white"/>
</svg>
