<svg xmlns="http://www.w3.org/2000/svg" xmlns:xlink="http://www.w3.org/1999/xlink" width="101.021" height="82.204" viewBox="0 0 101.021 82.204">
  <defs>
    <filter id="Path_33090" x="18.816" y="0" width="82.204" height="82.204" filterUnits="userSpaceOnUse">
      <feOffset input="SourceAlpha"/>
      <feGaussianBlur stdDeviation="5" result="blur"/>
      <feFlood flood-color="#add6e5" flood-opacity="0.4"/>
      <feComposite operator="in" in2="blur"/>
      <feComposite in="SourceGraphic"/>
    </filter>
  </defs>
  <g id="Group_43655" data-name="Group 43655" transform="translate(-266 -210.1)">
    <g id="back" transform="translate(301.816 227.1)">
      <g transform="matrix(1, 0, 0, 1, -35.82, -17)" filter="url(#Path_33090)">
        <g id="Path_33090-2" data-name="Path 33090" transform="translate(35.82 17)" fill="#add6e5">
          <path d="M 24.1021728515625 49.20434188842773 C 10.26079273223877 49.20434188842773 -0.9999971389770508 37.94355392456055 -0.9999971389770508 24.1021728515625 C -0.9999971389770508 10.26079273223877 10.26079273223877 -0.9999971389770508 24.1021728515625 -0.9999971389770508 C 37.94355392456055 -0.9999971389770508 49.20434188842773 10.26079273223877 49.20434188842773 24.1021728515625 C 49.20434188842773 37.94355392456055 37.94355392456055 49.20434188842773 24.1021728515625 49.20434188842773 Z" stroke="none"/>
          <path d="M 24.1021728515625 3.814697265625e-06 C 10.81183242797852 3.814697265625e-06 3.814697265625e-06 10.81183242797852 3.814697265625e-06 24.1021728515625 C 3.814697265625e-06 37.39251327514648 10.81183242797852 48.20434188842773 24.1021728515625 48.20434188842773 C 37.39251327514648 48.20434188842773 48.20434188842773 37.39251327514648 48.20434188842773 24.1021728515625 C 48.20434188842773 10.81183242797852 37.39251327514648 3.814697265625e-06 24.1021728515625 3.814697265625e-06 M 24.1021728515625 -1.999996185302734 C 38.49496459960938 -1.999996185302734 50.20434188842773 9.709381103515625 50.20434188842773 24.1021728515625 C 50.20434188842773 38.49496459960938 38.49496459960938 50.20434188842773 24.1021728515625 50.20434188842773 C 9.709381103515625 50.20434188842773 -1.999996185302734 38.49496459960938 -1.999996185302734 24.1021728515625 C -1.999996185302734 9.709381103515625 9.709381103515625 -1.999996185302734 24.1021728515625 -1.999996185302734 Z" stroke="none" fill="#fff"/>
        </g>
      </g>
      <path id="Path_33091" data-name="Path 33091" d="M0,0A24.129,24.129,0,0,1,24.1,24.1,24.129,24.129,0,0,1,0,48.2Z" transform="translate(24.102)" fill="#b6e0ef"/>
      <g id="Group_43659" data-name="Group 43659" transform="translate(8.52 8.167)">
        <g id="Group_148" data-name="Group 148" transform="translate(0 6.293)">
          <g id="Group_147" data-name="Group 147" transform="translate(0 0)">
            <g id="Group_146" data-name="Group 146">
              <g id="Group_145" data-name="Group 145">
                <g id="Group_144" data-name="Group 144">
                  <ellipse id="Ellipse_7" data-name="Ellipse 7" cx="3.597" cy="3.924" rx="3.597" ry="3.924" transform="matrix(0.973, -0.232, 0.232, 0.973, 0, 13.353)" fill="#fdc59d"/>
                  <path id="Path_294" data-name="Path 294" d="M52.857,161.132a2.129,2.129,0,1,0,1.527-2.742A2.224,2.224,0,0,0,52.857,161.132Z" transform="translate(-51.241 -144.183)" fill="#efa47d"/>
                  <path id="Path_295" data-name="Path 295" d="M137.994,134.193a3.611,3.611,0,1,0,2.59-4.651A3.771,3.771,0,0,0,137.994,134.193Z" transform="translate(-113.945 -122.897)" fill="#fdc59d"/>
                  <path id="Path_296" data-name="Path 296" d="M144.19,138.089a2.129,2.129,0,1,0,1.527-2.742A2.224,2.224,0,0,0,144.19,138.089Z" transform="translate(-118.546 -127.202)" fill="#efa47d"/>
                  <path id="Rectangle_28" data-name="Rectangle 28" d="M10.374,0H12.9A10.374,10.374,0,0,1,23.279,10.374v0A10.374,10.374,0,0,1,12.9,20.748h-2.53A10.374,10.374,0,0,1,0,10.374v0A10.374,10.374,0,0,1,10.374,0Z" transform="translate(1.976 5.394) rotate(-13.399)" fill="#fdc59d"/>
                  <g id="Group_141" data-name="Group 141" transform="translate(14.072 15.033)">
                    <path id="Path_297" data-name="Path 297" d="M105.575,161.716c-1.86.442-1.495,1.81-2.268,1.923s-1.974-.722-2.732.385.9,4.881,5.336,2.424C109.013,164.729,107.435,161.274,105.575,161.716Z" transform="translate(-100.399 -161.677)" fill="#2b2b2b"/>
                    <path id="Path_298" data-name="Path 298" d="M101.036,173.6a5.445,5.445,0,0,1,1.514-.727,4.686,4.686,0,0,1,4.722,1,4.078,4.078,0,0,1-.891.657C103.3,176.231,101.555,174.922,101.036,173.6Z" transform="translate(-100.868 -169.75)" fill="#ffac9f"/>
                    <path id="Path_299" data-name="Path 299" d="M106.442,161.738a3.357,3.357,0,0,1-2.551,3.112,3.576,3.576,0,0,1-3.29-.548.939.939,0,0,1,.124-.276c.757-1.108,1.959-.272,2.732-.385s.407-1.481,2.268-1.923A1.389,1.389,0,0,1,106.442,161.738Z" transform="translate(-100.547 -161.679)" fill="#f7fffa"/>
                  </g>
                  <path id="Path_300" data-name="Path 300" d="M81.941,139.839a3.646,3.646,0,0,1,.346-.863,1.1,1.1,0,0,1,1.514-.464,3.65,3.65,0,0,1,.689.456" transform="translate(-72.725 -129.474)" fill="none" stroke="#4f0200" stroke-miterlimit="10" stroke-width="0.75"/>
                  <path id="Path_301" data-name="Path 301" d="M115.575,131.691a4.946,4.946,0,0,1,.424-.843,1.172,1.172,0,0,1,.441-.457.967.967,0,0,1,.841.06,8.044,8.044,0,0,1,.728.481" transform="translate(-97.51 -123.536)" fill="none" stroke="#4f0200" stroke-miterlimit="10" stroke-width="0.75"/>
                  <path id="Path_302" data-name="Path 302" d="M107.53,151.042l.4.495a5.582,5.582,0,0,1,.4-.735,5.274,5.274,0,0,1,.207.886" transform="translate(-91.582 -138.63)" fill="none" stroke="#4f0200" stroke-miterlimit="10" stroke-width="0.5"/>
                  <g id="Group_142" data-name="Group 142" transform="translate(18.238 8.624)">
                    <path id="Path_303" data-name="Path 303" d="M119.5,143.312h0a2.41,2.41,0,0,0,1.786-2.9l-.3-1.241a2.41,2.41,0,0,0-2.9-1.786h0a2.41,2.41,0,0,0-1.786,2.9l.3,1.241A2.41,2.41,0,0,0,119.5,143.312Z" transform="translate(-116.233 -137.317)" fill="#f7fffa"/>
                    <path id="Path_304" data-name="Path 304" d="M116.3,142.333a2.4,2.4,0,0,1,.378-1.947,1.744,1.744,0,0,1,.558-.243,2.68,2.68,0,0,1,1.215,5.1,1.731,1.731,0,0,1-.312.042,2.406,2.406,0,0,1-1.544-1.713Z" transform="translate(-116.234 -139.365)" fill="#2b2b2b"/>
                  </g>
                  <g id="Group_143" data-name="Group 143" transform="translate(9.142 10.982)">
                    <path id="Path_305" data-name="Path 305" d="M85.207,152.194h0a2.409,2.409,0,0,1-3.036-1.548l-.394-1.213a2.41,2.41,0,0,1,1.548-3.036h0a2.41,2.41,0,0,1,3.036,1.548l.394,1.214A2.409,2.409,0,0,1,85.207,152.194Z" transform="translate(-81.659 -146.279)" fill="#f7fffa"/>
                    <path id="Path_306" data-name="Path 306" d="M90.267,148.505a2.4,2.4,0,0,0-1.336-1.465,1.749,1.749,0,0,0-.6.083,2.68,2.68,0,0,0,1.619,4.989,1.727,1.727,0,0,0,.288-.127,2.4,2.4,0,0,0,.426-2.266Z" transform="translate(-85.564 -146.839)" fill="#2b2b2b"/>
                  </g>
                </g>
                <path id="Path_307" data-name="Path 307" d="M129.521,159.76a1.955,1.955,0,0,0,2.482,1.1c1.16-.276,1.931-1.216,1.721-2.1a1.956,1.956,0,0,0-2.482-1.1C130.081,157.937,129.311,158.877,129.521,159.76Z" transform="translate(-107.762 -143.628)" fill="#faa29d"/>
                <path id="Path_308" data-name="Path 308" d="M78.8,173.2a1.955,1.955,0,0,0,2.482,1.1c1.16-.276,1.931-1.216,1.721-2.1a1.956,1.956,0,0,0-2.482-1.1C79.365,171.376,78.595,172.316,78.8,173.2Z" transform="translate(-70.388 -153.531)" fill="#faa29d"/>
              </g>
            </g>
          </g>
        </g>
        <path id="Path_309" data-name="Path 309" d="M79.767,87.5s3.669-2.014,2.855-3.2-6.43-.758-6.43-.758,2.269-1.41-1.039-2.278c-9.625-2.525-11.415,3.024-12.426,5.341-.639-.414-1.427-.774-1.866-.406-.821.688-.022,1.974-.022,1.974s-2.113-.6-2.213.527c-.05.572.657,1.025,1.369,1.335A9.619,9.619,0,0,0,58.4,99.168c.067.947.363,3.877,1.489,4.644,1.019.694.867-2.936.732-4.753,3.8-1.6,5.417-7.769,5.417-7.769s-.461,3.749,1.716,3.653c1.13-.049,1.487-2.037,1.6-3.127.007.765.232,1.845,1.495,1.544,1.909-.455.892-3.249.892-3.249,1.811,3.707,5.535,4,8,3.732L81.851,96.3C87,90.706,79.767,87.5,79.767,87.5Z" transform="translate(-55 -80.618)" fill="#2b2b2b"/>
        <g id="Group_149" data-name="Group 149" transform="translate(3.864 1.103)">
          <path id="Path_310" data-name="Path 310" d="M98.721,85.161c.657.906-3.116,2.518-3.65,1.309S98.064,84.255,98.721,85.161Z" transform="translate(-86.224 -84.812)" fill="#686868"/>
          <path id="Path_311" data-name="Path 311" d="M101.95,93.648c.129.725-2.171,2.372-2.958,1.7S101.82,92.923,101.95,93.648Z" transform="translate(-89.071 -91.196)" fill="#686868"/>
          <path id="Path_312" data-name="Path 312" d="M62.6,121.56a1.266,1.266,0,0,1-.416,2.238C60.96,124.112,61.917,121.245,62.6,121.56Z" transform="translate(-61.596 -111.874)" fill="#686868"/>
          <path id="Path_313" data-name="Path 313" d="M70.377,121.034c.748.163,1,2.5-.243,2.592S69.629,120.871,70.377,121.034Z" transform="translate(-67.397 -111.5)" fill="#686868"/>
        </g>
      </g>
    </g>
    <text id="ولد" transform="translate(279 257)" fill="#2b2b2b" font-size="17" font-family="Cairo-Bold, Cairo" font-weight="700"><tspan x="-12.529" y="0">ولد</tspan></text>
  </g>
</svg>
