<svg xmlns="http://www.w3.org/2000/svg" xmlns:xlink="http://www.w3.org/1999/xlink" width="66.12" height="66.12" viewBox="0 0 66.12 66.12">
  <defs>
    <filter id="Path_33090" x="0" y="0" width="66.12" height="66.12" filterUnits="userSpaceOnUse">
      <feOffset input="SourceAlpha"/>
      <feGaussianBlur stdDeviation="5" result="blur"/>
      <feFlood flood-color="#add6e5" flood-opacity="0.4"/>
      <feComposite operator="in" in2="blur"/>
      <feComposite in="SourceGraphic"/>
    </filter>
  </defs>
  <g id="back" transform="translate(17 17)">
    <g transform="matrix(1, 0, 0, 1, -17, -17)" filter="url(#Path_33090)">
      <g id="Path_33090-2" data-name="Path 33090" transform="translate(17 17)" fill="#add6e5">
        <path d="M 16.06005859375 33.1201171875 C 6.653108596801758 33.1201171875 -1.000001430511475 25.46700859069824 -1.000001430511475 16.06005859375 C -1.000001430511475 6.653108596801758 6.653108596801758 -1.000001430511475 16.06005859375 -1.000001430511475 C 25.46700859069824 -1.000001430511475 33.1201171875 6.653108596801758 33.1201171875 16.06005859375 C 33.1201171875 25.46700859069824 25.46700859069824 33.1201171875 16.06005859375 33.1201171875 Z" stroke="none"/>
        <path d="M 16.06005859375 0 C 7.204269409179688 0 0 7.204269409179688 0 16.06005859375 C 0 24.91584777832031 7.204269409179688 32.1201171875 16.06005859375 32.1201171875 C 24.91584777832031 32.1201171875 32.1201171875 24.91584777832031 32.1201171875 16.06005859375 C 32.1201171875 7.204278945922852 24.91584777832031 0 16.06005859375 0 M 16.06005859375 -2 C 26.01840972900391 -2 34.1201171875 6.101709365844727 34.1201171875 16.06005859375 C 34.1201171875 26.01840972900391 26.01840972900391 34.1201171875 16.06005859375 34.1201171875 C 6.101709365844727 34.1201171875 -2 26.01840972900391 -2 16.06005859375 C -2 6.101709365844727 6.101709365844727 -2 16.06005859375 -2 Z" stroke="none" fill="#fff"/>
      </g>
    </g>
    <path id="Path_33091" data-name="Path 33091" d="M0,0A16.078,16.078,0,0,1,16.06,16.06,16.078,16.078,0,0,1,0,32.12Z" transform="translate(16.06 0.291)" fill="#b6e0ef"/>
    <g id="call" transform="translate(9.698 9.698)">
      <path id="Path_32804" data-name="Path 32804" d="M12.138,93.24,9.865,91.724a1.344,1.344,0,0,0-1.689.168l-.6.6a3.7,3.7,0,0,1-2.04-1.115,3.7,3.7,0,0,1-1.115-2.04l.6-.6a1.343,1.343,0,0,0,.167-1.689L3.674,84.776a1.339,1.339,0,0,0-2.06-.2l-.947.947a2.214,2.214,0,0,0-.652,1.691c.071,1.214.6,3.657,3.316,6.375S8.49,96.828,9.7,96.9a2.21,2.21,0,0,0,1.69-.652l.947-.947a1.339,1.339,0,0,0-.2-2.06Z" transform="translate(-0.01 -84.18)" fill="#fff"/>
    </g>
  </g>
</svg>
