<svg xmlns="http://www.w3.org/2000/svg" xmlns:xlink="http://www.w3.org/1999/xlink" width="63.086" height="63.086" viewBox="0 0 63.086 63.086">
  <defs>
    <filter id="Path_32801" x="0" y="0" width="63.086" height="63.086" filterUnits="userSpaceOnUse">
      <feOffset input="SourceAlpha"/>
      <feGaussianBlur stdDeviation="5" result="blur"/>
      <feFlood flood-color="#aa4db9" flood-opacity="0.2"/>
      <feComposite operator="in" in2="blur"/>
      <feComposite in="SourceGraphic"/>
    </filter>
  </defs>
  <g id="Group_43477" data-name="Group 43477" transform="translate(-797.457 -20.456)">
    <g id="Group_43466" data-name="Group 43466" transform="translate(1 -0.682)">
      <g id="Group_43475" data-name="Group 43475" transform="translate(14)">
        <g transform="matrix(1, 0, 0, 1, 782.46, 21.14)" filter="url(#Path_32801)">
          <path id="Path_32801-2" data-name="Path 32801" d="M40.978,28.854a15.994,15.994,0,1,1-10.36-20.09,15.994,15.994,0,0,1,10.36,20.09Z" transform="translate(5.8 7.55)" fill="#aa4db9" stroke="#fff" stroke-width="1"/>
        </g>
        <path id="Path_32802" data-name="Path 32802" d="M422.538,270.3a23.183,23.183,0,0,0-8.461-1.875c3.186.579,6.573,7.181,6.573,9.8v14.087c0,2.616-4.846,6.13-8.032,6.709a15.31,15.31,0,0,0,8.032-.917,17.788,17.788,0,0,0,3.68-2.042,19.868,19.868,0,0,0,3.73-3.834,14.948,14.948,0,0,0,1.522-3.127,17.423,17.423,0,0,0,.875-5.335,16.194,16.194,0,0,0-.625-4.21,18.194,18.194,0,0,0-1.772-4.042A15.188,15.188,0,0,0,422.538,270.3Z" transform="translate(398.906 -231.138)" fill="#9e44ad"/>
        <g id="Group_43576" data-name="Group 43576" transform="translate(799.318 37.681)">
          <g id="Group_10" data-name="Group 10" transform="translate(0 0)">
            <circle id="Ellipse_1" data-name="Ellipse 1" cx="15.084" cy="15.084" r="15.084" fill="#ffcdbe" stroke="#fff" stroke-width="3"/>
          </g>
          <g id="Group_18" data-name="Group 18" transform="translate(3.137 14.617)">
            <g id="Group_14" data-name="Group 14" transform="translate(0 2.136)">
              <g id="Group_12" data-name="Group 12">
                <ellipse id="Ellipse_2" data-name="Ellipse 2" cx="3.204" cy="2.536" rx="3.204" ry="2.536" fill="#ebae9d"/>
              </g>
              <g id="Group_13" data-name="Group 13" transform="translate(17.487)">
                <ellipse id="Ellipse_3" data-name="Ellipse 3" cx="3.204" cy="2.536" rx="3.204" ry="2.536" fill="#ebae9d"/>
              </g>
            </g>
            <g id="Group_15" data-name="Group 15" transform="translate(4.272)">
              <path id="Path_66" data-name="Path 66" d="M241.7,203.137a.771.771,0,0,1-.8-.8V201a.8.8,0,1,1,1.6,0v1.335A.812.812,0,0,1,241.7,203.137Z" transform="translate(-240.9 -200.2)" fill="#2a2a2a"/>
            </g>
            <g id="Group_16" data-name="Group 16" transform="translate(17.955)">
              <path id="Path_67" data-name="Path 67" d="M262.2,203.137a.771.771,0,0,1-.8-.8V201a.8.8,0,0,1,1.6,0v1.335A.771.771,0,0,1,262.2,203.137Z" transform="translate(-261.4 -200.2)" fill="#2a2a2a"/>
            </g>
            <g id="Group_17" data-name="Group 17" transform="translate(9.352 1.316)">
              <path id="Path_68" data-name="Path 68" d="M251.107,204.593a3.231,3.231,0,0,1-2.4-1.068.8.8,0,1,1,1.2-1.068,1.672,1.672,0,0,0,1.2.534,1.563,1.563,0,0,0,1.2-.534.8.8,0,1,1,1.2,1.068,3.231,3.231,0,0,1-2.4,1.068Z" transform="translate(-248.511 -202.171)" fill="#2a2a2a"/>
            </g>
          </g>
          <g id="Group_19" data-name="Group 19" transform="translate(11.367 0.334)">
            <path id="Path_69" data-name="Path 69" d="M256.355,186.008a4.444,4.444,0,0,1-5.807,2.4,3.42,3.42,0,0,1-1.869-4.405,2.529,2.529,0,0,1,3.337-1.4,1.892,1.892,0,0,1,1,2.47,1.322,1.322,0,0,1-.734.734.806.806,0,1,0,.667,1.468,3.127,3.127,0,0,0,1.6-1.6,3.465,3.465,0,0,0-1.936-4.539,4.126,4.126,0,0,0-5.406,2.269,4.938,4.938,0,0,0,2.737,6.474,5.533,5.533,0,0,0,2.269.467,6,6,0,0,0,5.607-3.738,7.41,7.41,0,0,0,0-5.607,4.08,4.08,0,0,0-.467-.934,15.938,15.938,0,0,0-3.538-1.268A5.831,5.831,0,0,1,256.355,186.008Z" transform="translate(-246.831 -178.8)" fill="#2a2a2a"/>
          </g>
        </g>
      </g>
    </g>
  </g>
</svg>
