<svg xmlns="http://www.w3.org/2000/svg" xmlns:xlink="http://www.w3.org/1999/xlink" width="98.021" height="82.204" viewBox="0 0 98.021 82.204">
  <defs>
    <filter id="Path_33090" x="15.816" y="0" width="82.204" height="82.204" filterUnits="userSpaceOnUse">
      <feOffset input="SourceAlpha"/>
      <feGaussianBlur stdDeviation="5" result="blur"/>
      <feFlood flood-color="#add6e5" flood-opacity="0.4"/>
      <feComposite operator="in" in2="blur"/>
      <feComposite in="SourceGraphic"/>
    </filter>
  </defs>
  <g id="Group_43655" data-name="Group 43655" transform="translate(-269 -210.1)">
    <g id="back" transform="translate(301.816 227.1)">
      <g transform="matrix(1, 0, 0, 1, -32.82, -17)" filter="url(#Path_33090)">
        <g id="Path_33090-2" data-name="Path 33090" transform="translate(32.82 17)" fill="#add6e5">
          <path d="M 24.1021728515625 49.20434188842773 C 10.26079273223877 49.20434188842773 -0.9999971389770508 37.94355392456055 -0.9999971389770508 24.1021728515625 C -0.9999971389770508 10.26079273223877 10.26079273223877 -0.9999971389770508 24.1021728515625 -0.9999971389770508 C 37.94355392456055 -0.9999971389770508 49.20434188842773 10.26079273223877 49.20434188842773 24.1021728515625 C 49.20434188842773 37.94355392456055 37.94355392456055 49.20434188842773 24.1021728515625 49.20434188842773 Z" stroke="none"/>
          <path d="M 24.1021728515625 3.814697265625e-06 C 10.81183242797852 3.814697265625e-06 3.814697265625e-06 10.81183242797852 3.814697265625e-06 24.1021728515625 C 3.814697265625e-06 37.39251327514648 10.81183242797852 48.20434188842773 24.1021728515625 48.20434188842773 C 37.39251327514648 48.20434188842773 48.20434188842773 37.39251327514648 48.20434188842773 24.1021728515625 C 48.20434188842773 10.81183242797852 37.39251327514648 3.814697265625e-06 24.1021728515625 3.814697265625e-06 M 24.1021728515625 -1.999996185302734 C 38.49496459960938 -1.999996185302734 50.20434188842773 9.709381103515625 50.20434188842773 24.1021728515625 C 50.20434188842773 38.49496459960938 38.49496459960938 50.20434188842773 24.1021728515625 50.20434188842773 C 9.709381103515625 50.20434188842773 -1.999996185302734 38.49496459960938 -1.999996185302734 24.1021728515625 C -1.999996185302734 9.709381103515625 9.709381103515625 -1.999996185302734 24.1021728515625 -1.999996185302734 Z" stroke="none" fill="#fff"/>
        </g>
      </g>
      <path id="Path_33091" data-name="Path 33091" d="M0,0A24.129,24.129,0,0,1,24.1,24.1,24.129,24.129,0,0,1,0,48.2Z" transform="translate(24.102)" fill="#b6e0ef"/>
      <g id="mom_dad" data-name="mom dad" transform="translate(14.126 7.478)">
        <path id="Path_33115" data-name="Path 33115" d="M276.616,267.014v7.67H257.6v-7.67a5.647,5.647,0,0,1,4.618-5.553H272a5.646,5.646,0,0,1,4.62,5.553Zm0,0" transform="translate(-257.131 -241.436)" fill="#eee"/>
        <path id="Path_33116" data-name="Path 33116" d="M308.1,267.014v7.67H291.692v-7.67a5.648,5.648,0,0,1,4.619-5.553h7.168a5.646,5.646,0,0,1,4.62,5.553Zm0,0" transform="translate(-288.614 -241.436)" fill="#fafafa"/>
        <path id="Path_33117" data-name="Path 33117" d="M376.427,280.61v11.273h-.962V280.61a.483.483,0,1,1,.962,0Zm0,0" transform="translate(-365.97 -258.634)" fill="#eee"/>
        <path id="Path_33118" data-name="Path 33118" d="M344.88,277.031l-.416,3.5-2.919-2.791-2.919,2.791-.416-3.5" transform="translate(-331.57 -255.813)" fill="#fff"/>
        <path id="Path_33119" data-name="Path 33119" d="M392.348,335.157a.6.6,0,1,1,.582-.455.607.607,0,0,1-.582.455Zm0,3.914a.6.6,0,1,1,.582-.454.606.606,0,0,1-.582.454Zm0,0" transform="translate(-381.005 -308.38)" fill="#2b2b2b"/>
        <path id="Path_33120" data-name="Path 33120" d="M311.445,347.974v6.153h-.962v-6.153a.481.481,0,1,1,.962,0Zm-11.756,0v6.153h-.962v-6.153a.481.481,0,1,1,.962,0Zm0,0" transform="translate(-295.11 -320.878)" fill="#eee"/>
        <path id="Path_33121" data-name="Path 33121" d="M266.193,11.939c-1.7-9.813,4.536-11.931,8.586-11.931s10.285,2.118,8.586,11.931" transform="translate(-264.803 -0.008)" fill="#2b2b2b"/>
        <path id="Path_33122" data-name="Path 33122" d="M270.124,11.946h-3.932C264.5,2.169,270.681.03,274.732.015,272.536.044,269.209,2.2,270.124,11.946Zm0,0" transform="translate(-264.801 -0.014)" fill="#2b2b2b"/>
        <path id="Path_33123" data-name="Path 33123" d="M271.452,155.4a2.365,2.365,0,0,1-2.174,2.358,2.336,2.336,0,0,1-.676-.041H254.349a2.333,2.333,0,0,1-.483.05h0a2.366,2.366,0,0,1-.22-4.722,2.179,2.179,0,0,1,.222-.01,2.376,2.376,0,0,1,.293.018h14.633a2.368,2.368,0,0,1,2.66,2.348Zm0,0" transform="translate(-251.5 -141.314)" fill="#ffd0a6"/>
        <path id="Path_33124" data-name="Path 33124" d="M294.107,153.071v3a6.618,6.618,0,0,1-.219,1.691,2.339,2.339,0,0,1-.676-.041H278.959a2.335,2.335,0,0,1-.483.05h0a6.629,6.629,0,0,1-.221-1.7v-3.023a2.2,2.2,0,0,1,.222-.01,2.372,2.372,0,0,1,.293.018H293.4a2.405,2.405,0,0,1,.7.018Zm0,0" transform="translate(-276.205 -141.314)" fill="#e8b182"/>
        <path id="Path_33125" data-name="Path 33125" d="M281.568,172.692a.456.456,0,0,1-.418-.274c-.2-.454-.8-.288-.827-.281a.456.456,0,0,1-.249-.877,1.571,1.571,0,0,1,1.912.795.456.456,0,0,1-.417.637Zm-17.129,0a.456.456,0,0,1-.418-.638,1.513,1.513,0,0,1,1.828-.815.456.456,0,0,1-.189.891c-.232-.049-.645-.077-.8.287a.455.455,0,0,1-.418.274Zm0,0" transform="translate(-263.028 -158.079)" fill="#dda378"/>
        <path id="Path_33126" data-name="Path 33126" d="M301.9,103.141v2.973a7.22,7.22,0,0,1-7.024,7.219h-.01l-.208,0a7.22,7.22,0,0,1-7.2-7.221v-2.973l1.938-4.157a14.086,14.086,0,0,0,10.568,0Zm0,0" transform="translate(-284.707 -91.403)" fill="#ffd0a6"/>
        <path id="Path_33127" data-name="Path 33127" d="M349.3,200.113a2.485,2.485,0,1,0,4.97,0" transform="translate(-341.814 -184.787)" fill="#e8b182"/>
        <path id="Path_33128" data-name="Path 33128" d="M295.926,113.228a7.243,7.243,0,0,1-1.045.105h-.01l-.208,0a7.22,7.22,0,0,1-7.2-7.221v-2.973l1.938-4.157q.357.145.722.27a7.206,7.206,0,0,0-.167,1.547v5.313A7.222,7.222,0,0,0,295.926,113.228Zm0,0" transform="translate(-284.707 -91.403)" fill="#e8b182"/>
        <path id="Path_33129" data-name="Path 33129" d="M335.182,152.08a.456.456,0,0,1-.455-.456V149.85a.455.455,0,0,1,.911,0v1.775A.456.456,0,0,1,335.182,152.08Zm6.292,0a.456.456,0,0,1-.456-.456V149.85a.456.456,0,1,1,.911,0v1.775a.456.456,0,0,1-.456.456Zm0,0" transform="translate(-328.352 -137.952)" fill="#2b2b2b"/>
        <path id="Path_33130" data-name="Path 33130" d="M383.558,196.148H381.75a2.711,2.711,0,0,0,2.712,2.712h1.808A2.712,2.712,0,0,0,383.558,196.148Zm0,0" transform="translate(-371.774 -181.125)" fill="#2b2b2b"/>
        <path id="Path_33131" data-name="Path 33131" d="M325.458,196.148h1.808a2.712,2.712,0,0,1-2.712,2.712h-1.808A2.712,2.712,0,0,1,325.458,196.148Zm0,0" transform="translate(-317.289 -181.125)" fill="#2b2b2b"/>
      </g>
    </g>
    <text id="أب" transform="translate(279 257)" fill="#2b2b2b" font-size="17" font-family="Cairo-Bold, Cairo" font-weight="700"><tspan x="-9.707" y="0">أب</tspan></text>
  </g>
</svg>
