<svg xmlns="http://www.w3.org/2000/svg" xmlns:xlink="http://www.w3.org/1999/xlink" width="66.12" height="66.12" viewBox="0 0 66.12 66.12">
  <defs>
    <filter id="Path_33090" x="0" y="0" width="66.12" height="66.12" filterUnits="userSpaceOnUse">
      <feOffset input="SourceAlpha"/>
      <feGaussianBlur stdDeviation="5" result="blur"/>
      <feFlood flood-color="#add6e5" flood-opacity="0.4"/>
      <feComposite operator="in" in2="blur"/>
      <feComposite in="SourceGraphic"/>
    </filter>
  </defs>
  <g id="back" transform="translate(17 17)">
    <g transform="matrix(1, 0, 0, 1, -17, -17)" filter="url(#Path_33090)">
      <g id="Path_33090-2" data-name="Path 33090" transform="translate(17 17)" fill="#add6e5">
        <path d="M 16.06005859375 33.1201171875 C 6.653108596801758 33.1201171875 -1.000001430511475 25.46700859069824 -1.000001430511475 16.06005859375 C -1.000001430511475 6.653108596801758 6.653108596801758 -1.000001430511475 16.06005859375 -1.000001430511475 C 25.46700859069824 -1.000001430511475 33.1201171875 6.653108596801758 33.1201171875 16.06005859375 C 33.1201171875 25.46700859069824 25.46700859069824 33.1201171875 16.06005859375 33.1201171875 Z" stroke="none"/>
        <path d="M 16.06005859375 0 C 7.204269409179688 0 0 7.204269409179688 0 16.06005859375 C 0 24.91584777832031 7.204269409179688 32.1201171875 16.06005859375 32.1201171875 C 24.91584777832031 32.1201171875 32.1201171875 24.91584777832031 32.1201171875 16.06005859375 C 32.1201171875 7.204278945922852 24.91584777832031 0 16.06005859375 0 M 16.06005859375 -2 C 26.01840972900391 -2 34.1201171875 6.101709365844727 34.1201171875 16.06005859375 C 34.1201171875 26.01840972900391 26.01840972900391 34.1201171875 16.06005859375 34.1201171875 C 6.101709365844727 34.1201171875 -2 26.01840972900391 -2 16.06005859375 C -2 6.101709365844727 6.101709365844727 -2 16.06005859375 -2 Z" stroke="none" fill="#fff"/>
      </g>
    </g>
    <path id="Path_33091" data-name="Path 33091" d="M0,0A16.078,16.078,0,0,1,16.06,16.06,16.078,16.078,0,0,1,0,32.12Z" transform="translate(16.06 0.291)" fill="#b6e0ef"/>
    <g id="doc" transform="translate(9.895 9.862)">
      <g id="Group_43487" data-name="Group 43487" transform="translate(0 0)">
        <g id="Path_32806" data-name="Path 32806" transform="translate(-6.777 -2.005)" fill="#fff">
          <path d="M 18.670654296875 6.930583477020264 C 17.92529106140137 6.930583477020264 17.08068656921387 6.930583953857422 16.46184921264648 6.924091339111328 C 15.20337104797363 6.922747611999512 14.18000411987305 5.921786785125732 14.18000411987305 4.691623210906982 L 14.18000411987305 2.427083253860474 C 14.18000411987305 1.924233317375183 14.5949239730835 1.515143275260925 15.10492420196533 1.515143275260925 C 15.35158348083496 1.515143275260925 15.58433437347412 1.612053275108337 15.76030349731445 1.788033246994019 C 16.40916442871094 2.43686318397522 17.37893486022949 3.415443181991577 18.23454475402832 4.278813362121582 C 18.64471435546875 4.692713260650635 19.02665328979492 5.078113079071045 19.33040428161621 5.383953094482422 C 19.58772468566895 5.641273498535156 19.66461372375488 6.026003360748291 19.52506446838379 6.3628830909729 C 19.38222312927246 6.707743167877197 19.04684448242188 6.930583477020264 18.670654296875 6.930583477020264 Z" stroke="none"/>
          <path d="M 15.10491752624512 2.015143394470215 C 14.8878116607666 2.015120029449463 14.68000411987305 2.178650856018066 14.68000411987305 2.427083015441895 L 14.68000411987305 4.691622734069824 C 14.68000411987305 5.638962745666504 15.4846248626709 6.424092769622803 16.46444320678711 6.424092769622803 C 17.08088302612305 6.430583000183105 17.93741416931152 6.430583000183105 18.670654296875 6.430583000183105 C 19.04052352905273 6.430583000183105 19.23518371582031 5.995842933654785 18.97563362121582 5.736292839050293 C 18.04123306274414 4.795442581176758 16.36710357666016 3.101902961730957 15.40675354003906 2.14158296585083 C 15.31940841674805 2.054239749908447 15.21103477478027 2.015154838562012 15.10491752624512 2.015143394470215 M 15.10487365722656 1.015142917633057 L 15.1049633026123 1.015142917633057 C 15.48515319824219 1.015182971954346 15.84344482421875 1.164083003997803 16.11382484436035 1.434432983398438 C 16.76351356506348 2.084112644195557 17.73370361328125 3.063112735748291 18.58969497680664 3.926862716674805 C 18.99972534179688 4.340612888336182 19.38152313232422 4.725882530212402 19.6851634979248 5.031622886657715 C 20.08478355407715 5.431232929229736 20.20421409606934 6.029842853546143 19.98700332641602 6.55422306060791 C 19.76649475097656 7.086592674255371 19.24979400634766 7.430583000183105 18.670654296875 7.430583000183105 C 17.92511367797852 7.430583000183105 17.08034133911133 7.430582523345947 16.45911598205566 7.424087524414062 C 14.92621040344238 7.421248912811279 13.68000411987305 6.196565628051758 13.68000411987305 4.691622734069824 L 13.68000411987305 2.427083015441895 C 13.68000411987305 1.648532867431641 14.31919479370117 1.015142917633057 15.10487365722656 1.015142917633057 Z" stroke="none" fill="#add6e5"/>
        </g>
        <g id="Path_32807" data-name="Path 32807" transform="translate(-2.5 -2)" fill="#fff">
          <path d="M 11.21455669403076 15.47731590270996 L 6.114296913146973 15.47731590270996 C 4.982316970825195 15.47731590270996 3.952796697616577 15.09590625762939 3.215386867523193 14.40335559844971 C 2.420276880264282 13.65660572052002 1.999996781349182 12.60530567169189 1.999996781349182 11.36313629150391 L 1.999996781349182 5.614185810089111 C 1.999996781349182 4.372005939483643 2.420276880264282 3.320716142654419 3.215386867523193 2.57395601272583 C 3.952796697616577 1.88140606880188 4.982316970825195 1.499996066093445 6.114296913146973 1.499996066093445 L 8.86557674407959 1.499996066093445 C 9.499076843261719 1.499996066093445 10.01446723937988 2.015376091003418 10.01446723937988 2.648865938186646 L 10.01446723937988 4.524085998535156 C 10.01446723937988 5.786866188049316 11.04185676574707 6.814206123352051 12.30468654632568 6.814206123352051 L 14.17996692657471 6.814206123352051 C 14.81346702575684 6.814206123352051 15.32885646820068 7.329586029052734 15.32885646820068 7.963076114654541 L 15.32885646820068 11.36313629150391 C 15.32885646820068 12.60530567169189 14.90857696533203 13.65660572052002 14.1134672164917 14.40335559844971 C 13.37605667114258 15.09590625762939 12.34653663635254 15.47731590270996 11.21455669403076 15.47731590270996 Z" stroke="none"/>
          <path d="M 6.114296913146973 1.999996185302734 C 4.115726470947266 1.999996185302734 2.499997138977051 3.297736167907715 2.499997138977051 5.61418628692627 L 2.499997138977051 11.36313629150391 C 2.499997138977051 13.67957592010498 4.115726470947266 14.97731590270996 6.114296913146973 14.97731590270996 L 11.21455669403076 14.97731590270996 C 13.21312713623047 14.97731590270996 14.82885646820068 13.67957592010498 14.82885646820068 11.36313629150391 L 14.82885646820068 7.963075637817383 C 14.82885646820068 7.606196403503418 14.53685665130615 7.314206123352051 14.17996692657471 7.314206123352051 L 12.3046875 7.314206123352051 C 10.76681709289551 7.314206123352051 9.514467239379883 6.061896324157715 9.514467239379883 4.524085998535156 L 9.514467239379883 2.648865699768066 C 9.514467239379883 2.291986465454102 9.222466468811035 1.999996185302734 8.86557674407959 1.999996185302734 L 6.114296913146973 1.999996185302734 M 9.63775634765625 9.624166488647461 L 5.744437217712402 9.624166488647461 C 5.478386878967285 9.624166488647461 5.257766723632812 9.403555870056152 5.257766723632812 9.13752555847168 C 5.257766723632812 8.871485710144043 5.478386878967285 8.650876045227051 5.744437217712402 8.650876045227051 L 9.63775634765625 8.650876045227051 C 9.903797149658203 8.650876045227051 10.12442684173584 8.871485710144043 10.12442684173584 9.13752555847168 C 10.12442684173584 9.403555870056152 9.903797149658203 9.624166488647461 9.63775634765625 9.624166488647461 M 8.339986801147461 12.21963596343994 L 5.744437217712402 12.21963596343994 C 5.478386878967285 12.21963596343994 5.257766723632812 11.99901580810547 5.257766723632812 11.73298645019531 C 5.257766723632812 11.46694564819336 5.478386878967285 11.24633598327637 5.744437217712402 11.24633598327637 L 8.339986801147461 11.24633598327637 C 8.606026649475098 11.24633598327637 8.82664680480957 11.46694564819336 8.82664680480957 11.73298645019531 C 8.82664680480957 11.99901580810547 8.606026649475098 12.21963596343994 8.339986801147461 12.21963596343994 M 6.114296913146973 0.9999961853027344 L 8.86557674407959 0.9999961853027344 C 9.774776458740234 0.9999961853027344 10.51446723937988 1.739676475524902 10.51446723937988 2.648865699768066 L 10.51446723937988 4.524085998535156 C 10.51446723937988 5.511165618896484 11.31755638122559 6.314206123352051 12.3046875 6.314206123352051 L 14.17996692657471 6.314206123352051 C 15.08916664123535 6.314206123352051 15.82885646820068 7.053886413574219 15.82885646820068 7.963075637817383 L 15.82885646820068 11.36313629150391 C 15.82885646820068 14.07989597320557 13.93138694763184 15.97731590270996 11.21455669403076 15.97731590270996 L 6.114296913146973 15.97731590270996 C 3.397466659545898 15.97731590270996 1.499997138977051 14.07989597320557 1.499997138977051 11.36313629150391 L 1.499997138977051 5.61418628692627 C 1.499997138977051 2.897416114807129 3.397466659545898 0.9999961853027344 6.114296913146973 0.9999961853027344 Z" stroke="none" fill="#add6e5"/>
        </g>
      </g>
    </g>
  </g>
</svg>
