<svg xmlns="http://www.w3.org/2000/svg" xmlns:xlink="http://www.w3.org/1999/xlink" width="99.184" height="82.204" viewBox="0 0 99.184 82.204">
  <defs>
    <filter id="Path_33090" x="16.98" y="0" width="82.204" height="82.204" filterUnits="userSpaceOnUse">
      <feOffset input="SourceAlpha"/>
      <feGaussianBlur stdDeviation="5" result="blur"/>
      <feFlood flood-color="#faa29d" flood-opacity="0.2"/>
      <feComposite operator="in" in2="blur"/>
      <feComposite in="SourceGraphic"/>
    </filter>
  </defs>
  <g id="Group_43654" data-name="Group 43654" transform="translate(-80.836 -210.1)">
    <g id="back" transform="translate(114.816 227.1)">
      <g transform="matrix(1, 0, 0, 1, -33.98, -17)" filter="url(#Path_33090)">
        <g id="Path_33090-2" data-name="Path 33090" transform="translate(33.98 17)" fill="#faa29d">
          <path d="M 24.10205078125 49.2041015625 C 10.2607307434082 49.2041015625 -0.9999992251396179 37.9433708190918 -0.9999992251396179 24.10205078125 C -0.9999992251396179 10.2607307434082 10.2607307434082 -0.9999992251396179 24.10205078125 -0.9999992251396179 C 37.9433708190918 -0.9999992251396179 49.2041015625 10.2607307434082 49.2041015625 24.10205078125 C 49.2041015625 37.9433708190918 37.9433708190918 49.2041015625 24.10205078125 49.2041015625 Z" stroke="none"/>
          <path d="M 24.10205078125 0 C 10.8117790222168 0 0 10.8117790222168 0 24.10205078125 C 0 37.39231872558594 10.8117790222168 48.2041015625 24.10205078125 48.2041015625 C 37.39231872558594 48.2041015625 48.2041015625 37.39231872558594 48.2041015625 24.10205078125 C 48.2041015625 10.8117790222168 37.39231872558594 0 24.10205078125 0 M 24.10205078125 -2 C 38.49477005004883 -2 50.2041015625 9.709331512451172 50.2041015625 24.10205078125 C 50.2041015625 38.49477005004883 38.49477005004883 50.2041015625 24.10205078125 50.2041015625 C 9.709331512451172 50.2041015625 -2 38.49477005004883 -2 24.10205078125 C -2 9.709331512451172 9.709331512451172 -2 24.10205078125 -2 Z" stroke="none" fill="#fff"/>
        </g>
      </g>
      <path id="Path_33091" data-name="Path 33091" d="M0,0A24.129,24.129,0,0,1,24.1,24.1,24.129,24.129,0,0,1,0,48.2Z" transform="translate(24.102)" fill="#feb4af"/>
      <g id="Group_43658" data-name="Group 43658" transform="translate(9.982 9.167)">
        <g id="Group_109" data-name="Group 109" transform="translate(0 7.778)">
          <g id="Group_108" data-name="Group 108">
            <g id="Group_107" data-name="Group 107">
              <g id="Group_106" data-name="Group 106" transform="translate(0 2.615)">
                <g id="Group_105" data-name="Group 105" transform="translate(0 0)">
                  <g id="Group_104" data-name="Group 104">
                    <ellipse id="Ellipse_5" data-name="Ellipse 5" cx="3.156" cy="2.893" rx="3.156" ry="2.893" transform="translate(17.688 17.275) rotate(-67.941)" fill="#ffc89e"/>
                    <path id="Path_208" data-name="Path 208" d="M696.254,182.782a1.712,1.712,0,1,1-.882-2.365A1.788,1.788,0,0,1,696.254,182.782Z" transform="translate(-672.554 -166.519)" fill="#efa47d"/>
                    <ellipse id="Ellipse_6" data-name="Ellipse 6" cx="3.156" cy="2.893" rx="3.156" ry="2.893" transform="translate(0 9.803) rotate(-67.944)" fill="#ffc89e"/>
                    <path id="Path_209" data-name="Path 209" d="M623.352,152.107a1.712,1.712,0,1,1-.882-2.365A1.788,1.788,0,0,1,623.352,152.107Z" transform="translate(-618.023 -143.574)" fill="#efa47d"/>
                    <path id="Rectangle_21" data-name="Rectangle 21" d="M8.344,0h0a8.344,8.344,0,0,1,8.344,8.344v2.035a8.344,8.344,0,0,1-8.344,8.344h0A8.344,8.344,0,0,1,0,10.379V8.344A8.344,8.344,0,0,1,8.344,0Z" transform="translate(1.194 15.466) rotate(-67.942)" fill="#ffc89e"/>
                    <path id="Path_210" data-name="Path 210" d="M660.432,168.087l-.379.345a4.471,4.471,0,0,0-.227-.633,4.24,4.24,0,0,0-.271.679" transform="translate(-647.578 -157.168)" fill="none" stroke="#4f0200" stroke-miterlimit="10" stroke-width="1"/>
                    <g id="Group_100" data-name="Group 100" transform="translate(6.832 7.319)">
                      <path id="Path_211" data-name="Path 211" d="M640.349,159.339h0a1.938,1.938,0,0,1-1.068-2.524l.385-.951a1.938,1.938,0,0,1,2.524-1.068h0a1.938,1.938,0,0,1,1.068,2.524l-.385.951A1.938,1.938,0,0,1,640.349,159.339Z" transform="translate(-639.138 -154.653)" fill="#f7fffa"/>
                      <path id="Path_212" data-name="Path 212" d="M646.457,159.422a1.931,1.931,0,0,0-.065-1.594,1.407,1.407,0,0,0-.414-.261,2.156,2.156,0,0,0-1.584,3.909,1.406,1.406,0,0,0,.243.071,1.936,1.936,0,0,0,1.435-1.175Z" transform="translate(-642.336 -156.756)" fill="#2b2b2b"/>
                    </g>
                    <g id="Group_101" data-name="Group 101" transform="translate(14.521 10.4)">
                      <path id="Path_213" data-name="Path 213" d="M671.031,171.659h0a1.938,1.938,0,0,0,2.414-1.3l.3-.983a1.938,1.938,0,0,0-1.3-2.414h0a1.938,1.938,0,0,0-2.414,1.3l-.3.983A1.939,1.939,0,0,0,671.031,171.659Z" transform="translate(-669.651 -166.881)" fill="#f7fffa"/>
                      <path id="Path_214" data-name="Path 214" d="M670.029,168.787a1.931,1.931,0,0,1,1.048-1.2,1.4,1.4,0,0,1,.486.056,2.156,2.156,0,0,1-1.214,4.04,1.4,1.4,0,0,1-.234-.1,1.935,1.935,0,0,1-.382-1.815Z" transform="translate(-669.651 -167.406)" fill="#2b2b2b"/>
                    </g>
                    <g id="Group_103" data-name="Group 103" transform="translate(8.412 13.259)">
                      <path id="Path_215" data-name="Path 215" d="M647.124,178.256c1.543.348,1.253,1.482,1.893,1.569s1.626-.616,2.263.293-.7,4.046-4.391,2.055C644.308,180.781,645.581,177.908,647.124,178.256Z" transform="translate(-645.411 -178.227)" fill="#2b2b2b"/>
                      <path id="Path_216" data-name="Path 216" d="M653.485,188.369a4.5,4.5,0,0,0-1.259-.587,3.876,3.876,0,0,0-3.9.868,3.373,3.373,0,0,0,.743.535C651.64,190.571,653.068,189.472,653.485,188.369Z" transform="translate(-647.594 -185.239)" fill="#ffac9f"/>
                      <path id="Path_217" data-name="Path 217" d="M649.847,178.281a2.777,2.777,0,0,0,2.14,2.55,2.958,2.958,0,0,0,2.716-.485.787.787,0,0,0-.1-.227c-.637-.909-1.623-.206-2.263-.293s-.351-1.221-1.893-1.569A1.15,1.15,0,0,0,649.847,178.281Z" transform="translate(-648.729 -178.228)" fill="#f7fffa"/>
                      <g id="Group_102" data-name="Group 102" transform="translate(1.457 0.003)">
                        <path id="Path_218" data-name="Path 218" d="M655.46,179.954a1.051,1.051,0,0,0-.109-.1,2.268,2.268,0,0,1-.471.289.211.211,0,0,0-.012-.021.267.267,0,0,0-.1-.091.287.287,0,0,0-.147-.031.279.279,0,0,0-.135.045.269.269,0,0,0-.1.128l-.019.027,0,0,0,.009a.634.634,0,0,0-.025.072l0,.01c0,.006,0,.013,0,.019a2.348,2.348,0,0,1-1.268-.123l.008-.011h0l.023-.064h0l0-.069h0a.231.231,0,0,0-.007-.033l-.007-.033h0v0l-.03-.061a.326.326,0,0,0-.023-.027l-.022-.025-.056-.039-.033-.012s-.009,0-.014,0l-.01,0a.155.155,0,0,0-.034-.011c-.023,0-.047,0-.07-.005h-.016l-.067.013h0l-.009,0-.008,0-.062.03,0,0a.463.463,0,0,0-.063.052l-.012.013,0,.006a2.936,2.936,0,0,1-.73-.724l.009-.01.013-.019.02-.028c.008-.011.017-.023.024-.036s0-.009,0-.013a.241.241,0,0,0,.038-.086.272.272,0,0,0-.035-.184.244.244,0,0,0-.093-.084l-.036-.013h0l-.029-.01.029.01-.01-.008a.184.184,0,0,0-.088-.04l-.036,0a.217.217,0,0,0-.036,0,.306.306,0,0,0-.069.014,3.286,3.286,0,0,1-.16-.43,1.134,1.134,0,0,0-.161-.011,3.2,3.2,0,0,0,.177.554l-.016.022a.188.188,0,0,0-.015.039.2.2,0,0,0-.013.04l0,.068v0a.5.5,0,0,0,.013.068l.019.039.012.061.027.056.041.047a.181.181,0,0,0,.083.047.123.123,0,0,0,.063.013.119.119,0,0,0,.057,0,2.846,2.846,0,0,0,.831.822c0,.007,0,.012,0,.019a.268.268,0,0,0,.145.221.271.271,0,0,0,.139.029.267.267,0,0,0,.129-.044l0,0,.039.018a2.56,2.56,0,0,0,1.438.145l.007.013,0,0,.006.008a.258.258,0,0,0,.233.116.258.258,0,0,0,.213-.14l.029-.046.014-.022.007-.012a.106.106,0,0,0,.005-.013l0,.006s0,0,0-.006a.394.394,0,0,0,.018-.049c0-.006,0-.01.005-.016h0s0-.009,0-.013h0A2.195,2.195,0,0,0,655.46,179.954Zm-3.554-.939-.02.058,0,0C651.892,179.056,651.9,179.035,651.906,179.015Zm-.366-.282Zm3.295,1.431a.186.186,0,0,0-.036-.049l.04.046h0Z" transform="translate(-651.194 -178.238)" fill="#a0a0a0"/>
                        <path id="Path_219" data-name="Path 219" d="M653.419,180.142h0l.033.012Z" transform="translate(-652.858 -179.662)" fill="#a0a0a0"/>
                        <path id="Path_220" data-name="Path 220" d="M653.418,180.141Z" transform="translate(-652.857 -179.662)" fill="#a0a0a0"/>
                      </g>
                    </g>
                  </g>
                  <path id="Path_221" data-name="Path 221" d="M633.089,172.631a1.8,1.8,0,1,1-1.114-1.878A1.573,1.573,0,0,1,633.089,172.631Z" transform="translate(-625.317 -159.256)" fill="#ffb8a1"/>
                  <path id="Path_222" data-name="Path 222" d="M675.91,189.114a1.8,1.8,0,1,1-1.114-1.878A1.573,1.573,0,0,1,675.91,189.114Z" transform="translate(-657.347 -171.585)" fill="#ffb8a1"/>
                </g>
              </g>
              <path id="Path_223" data-name="Path 223" d="M642.7,117.551c-8.861-5.521-17.812-.1-17.34,5.077,0,0,2.609.648,3.137.909,1.132.56,2.848-2.628,3.683-2.692,0,0-1.65,2.437-1.372,2.522.128.039,2.643,1.271,5.322,2.591.577-1.007,2.287-3.992,2.162-3.752s-1.108,3.292-1.378,4.138l1.918.946c.582-.871,2.315-3.436,2.217-2.962a36.339,36.339,0,0,1-1.44,3.346l3.039,1.5s1.44-3.507,1.485-2.987a26.46,26.46,0,0,1-.257,4.108s2.593.55,2.623,2.788C646.5,133.086,651.558,123.072,642.7,117.551Z" transform="translate(-621.985 -115.234)" fill="#2b2b2b"/>
            </g>
          </g>
        </g>
        <path id="Path_229" data-name="Path 229" d="M648.545,150.883a2.017,2.017,0,0,1,2.016.354" transform="translate(-639.343 -134.025)" fill="#2b2b2b" stroke="#2b2b2b" stroke-miterlimit="10" stroke-width="1"/>
        <path id="Path_230" data-name="Path 230" d="M679.716,162.818a1.335,1.335,0,0,1,1.018.154,3.3,3.3,0,0,1,.8.688" transform="translate(-662.659 -143.015)" fill="#2b2b2b" stroke="#2b2b2b" stroke-miterlimit="10" stroke-width="1"/>
        <g id="Group_110" data-name="Group 110" transform="translate(9.726)">
          <path id="Path_231" data-name="Path 231" d="M656.155,92.442s-5.788-5.226-5.523-5.6a11.229,11.229,0,0,1,2.245-1.279l1.087,2.456-.189-3.145,3.238.049-.335,2.321,1.764-2.874s2.517.071,2.582.588-2.265,4.57-2.265,4.57l2.39-3.2.868.579s-2.576,5.605-3.048,5.788A11.723,11.723,0,0,1,656.155,92.442Z" transform="translate(-650.623 -84.367)" fill="#2b2b2b"/>
          <path id="Path_232" data-name="Path 232" d="M665.431,110.687c.893-1.487,3.577-.53,2.489,1.349A1.416,1.416,0,1,1,665.431,110.687Z" transform="translate(-661.548 -103.509)" fill="#2b2b2b"/>
          <path id="Path_233" data-name="Path 233" d="M668.922,112.735c.734.636-.066,1.954-1.094,1.132S668.371,112.258,668.922,112.735Z" transform="translate(-663.237 -105.478)" fill="#2b2b2b"/>
          <path id="Path_234" data-name="Path 234" d="M677.149,111.646c.893-1.487,3.577-.53,2.49,1.349A1.417,1.417,0,1,1,677.149,111.646Z" transform="translate(-670.313 -104.227)" fill="#2b2b2b"/>
          <path id="Path_235" data-name="Path 235" d="M682.263,112.985c.553.479-.05,1.473-.825.853S681.848,112.626,682.263,112.985Z" transform="translate(-673.48 -105.692)" fill="#2b2b2b"/>
        </g>
      </g>
    </g>
    <text id="بنت" transform="translate(94.836 257)" fill="#2b2b2b" font-size="17" font-family="Cairo-Bold, Cairo" font-weight="700"><tspan x="-13.362" y="0">بنت</tspan></text>
  </g>
</svg>
