<svg width="83" height="80" viewBox="0 0 83 80" fill="none" xmlns="http://www.w3.org/2000/svg">
<path d="M29.7263 32.316C26.3953 27.85 23.4153 22.916 22.5263 17.416C21.6373 11.916 23.1953 5.74503 27.5903 2.31603C31.9853 -1.11297 39.3203 -0.626967 42.3333 4.06203C43.6333 6.08703 44.0203 8.54903 44.3773 10.93C45.444 18.096 46.5143 25.2627 47.5883 32.43C51.9299 23.6664 58.869 16.4552 67.4593 11.78C71.9593 9.34803 78.3663 8.03003 81.5203 12.054C83.2953 14.318 83.2653 17.605 82.1573 20.261C80.8942 22.8557 79.1406 25.1812 76.9933 27.109C70.5054 33.6078 63.4805 39.5472 55.9933 44.864C61.1335 46.049 65.8015 48.7451 69.3964 52.6055C72.9914 56.4658 75.3488 61.3136 76.1653 66.525C76.5611 68.5712 76.3527 70.6884 75.5653 72.618C73.7733 76.362 68.7653 77.629 64.7913 76.418C60.8173 75.207 57.7123 72.152 54.9533 69.051C51.2966 64.9392 47.9516 60.5604 44.9463 55.951C43.9932 60.2855 42.1601 64.378 39.5606 67.975C36.9611 71.572 33.6507 74.5968 29.8343 76.862C26.1083 79.043 21.0673 80.34 17.6953 77.643C15.4843 75.877 14.6683 72.843 14.7033 70.011C14.8133 61.545 21.0824 54.585 26.9734 48.5C22.1324 47.943 17.2633 49.216 12.3923 49.081C7.5213 48.946 2.06832 46.761 0.633325 42.106C-0.553675 38.256 1.58931 33.932 4.92831 31.679C8.26731 29.426 12.5133 28.929 16.5283 29.241C21.7409 29.6503 26.7804 31.2976 31.2283 34.046" fill="white"/>
<path d="M36.8999 24.1341L20.7475 30.1874C20.2071 30.3899 19.7144 30.7022 19.3007 31.1046C18.887 31.507 18.5612 31.9908 18.3438 32.5255C18.1264 33.0601 18.0222 33.634 18.0377 34.211C18.0532 34.7879 18.1881 35.3554 18.434 35.8776L26.8132 53.6825C26.9752 54.027 27.2521 54.3042 27.5964 54.4665C27.9407 54.6289 28.3308 54.6662 28.6996 54.572L29.8127 54.2881C30.3332 54.1552 30.8195 53.9131 31.2393 53.5779C31.6591 53.2428 32.0028 52.8222 32.2476 52.344C32.4925 51.8659 32.6328 51.3411 32.6594 50.8046C32.686 50.2681 32.5982 49.732 32.4018 49.232L29.1209 40.8851C29.0385 40.6749 29.0068 40.4483 29.0285 40.2236C29.0501 39.9989 29.1245 39.7824 29.2455 39.5919C29.3665 39.4013 29.5308 39.242 29.725 39.1269C29.9192 39.0118 30.1378 38.9441 30.3631 38.9293L35.4349 38.5996C35.9697 38.5649 36.5052 38.6543 36.9997 38.861C37.4941 39.0676 37.9341 39.3858 38.2852 39.7906L44.1473 46.5518L67.3241 54.0824L71.5701 41.0147L54.9723 35.6218L40.9882 24.757C40.4166 24.3128 39.7408 24.0223 39.0252 23.9133C38.3095 23.8043 37.5778 23.8803 36.8999 24.1341Z" fill="#FFCDBE"/>
<path d="M36.9012 24.1312L20.7451 30.1864C19.8294 30.5298 19.0631 31.1836 18.5797 32.0338C18.0964 32.884 17.9266 33.8768 18.0998 34.8394C18.5087 34.4458 18.9938 34.1401 19.5252 33.9409L35.6753 27.888C36.3532 27.634 37.0849 27.5578 37.8006 27.6666C38.5163 27.7755 39.1922 28.0658 39.764 28.5099L53.7483 39.3737L70.3537 44.7692L71.5746 41.0118L54.9739 35.6179L40.9896 24.7541C40.418 24.3098 39.7422 24.0194 39.0265 23.9104C38.3108 23.8013 37.5792 23.8773 36.9012 24.1312Z" fill="#EBAE9D"/>
<path d="M36.5844 66.2075C36.5176 66.4127 36.385 66.5902 36.2072 66.7124C36.0293 66.8346 35.8161 66.8948 35.6006 66.8835C35.3851 66.8723 35.1793 66.7903 35.0151 66.6503C34.8509 66.5103 34.7375 66.32 34.6924 66.109L33.4839 60.4215C33.43 60.167 33.4794 59.9014 33.6213 59.6833C33.7631 59.4652 33.9858 59.3123 34.2404 59.2584C34.4949 59.2045 34.7604 59.2539 34.9786 59.3957C35.1967 59.5376 35.3495 59.7603 35.4035 60.0148L36.6119 65.7023C36.6473 65.8702 36.6378 66.0445 36.5844 66.2075Z" fill="#2B2B2B"/>
<path d="M23.6258 19.5203L24.2288 22.3563L28.3725 21.4758L27.7695 18.6398C27.7117 18.3677 27.6008 18.1097 27.4433 17.8804C27.2858 17.6512 27.0846 17.4552 26.8513 17.3037C26.6181 17.1522 26.3572 17.0481 26.0838 16.9974C25.8103 16.9467 25.5295 16.9504 25.2574 17.0082C24.9853 17.066 24.7273 17.1768 24.498 17.3344C24.2688 17.4919 24.0728 17.6931 23.9213 17.9263C23.7698 18.1596 23.6657 18.4204 23.615 18.6939C23.5643 18.9674 23.568 19.2482 23.6258 19.5203Z" fill="#FAA29D"/>
<path d="M23.2153 23.2919L30.8 58.9806C30.89 59.4049 31.0626 59.8074 31.3081 60.165C31.5536 60.5226 31.8671 60.8283 32.2307 61.0647C32.5944 61.3012 33.001 61.4637 33.4275 61.543C33.8539 61.6222 34.2918 61.6167 34.7161 61.5268C35.1404 61.4368 35.5429 61.2642 35.9005 61.0187C36.2581 60.7732 36.5638 60.4597 36.8002 60.0961C37.0367 59.7324 37.1992 59.3258 37.2785 58.8993C37.3577 58.4729 37.3522 58.035 37.2623 57.6107L29.6776 21.922C29.6589 21.8312 29.6224 21.7449 29.5702 21.6683C29.5179 21.5916 29.4509 21.5262 29.3731 21.4756C29.2953 21.4251 29.2083 21.3906 29.117 21.374C29.0257 21.3574 28.9321 21.3592 28.8415 21.3791L23.7586 22.4612C23.6683 22.4798 23.5825 22.5162 23.5062 22.5681C23.43 22.62 23.3647 22.6864 23.3142 22.7636C23.2638 22.8408 23.229 22.9272 23.2121 23.0179C23.1951 23.1085 23.1962 23.2017 23.2153 23.2919Z" fill="#FAA29D"/>
<path d="M28.8481 21.3749L26.1371 21.9524C26.3363 21.8905 26.5519 21.9096 26.7372 22.0054C26.9225 22.1012 27.0626 22.2661 27.1273 22.4644L34.712 58.1531C34.8147 58.7977 34.7239 59.4582 34.4511 60.0512C34.1783 60.6442 33.7358 61.1429 33.1796 61.4844C33.7261 61.6341 34.302 61.6404 34.8518 61.5029C35.4015 61.3654 35.9066 61.0887 36.3183 60.6993C36.7301 60.31 37.0346 59.8212 37.2026 59.28C37.3706 58.7387 37.3964 58.1634 37.2774 57.6093L29.6927 21.9207C29.6745 21.8286 29.6379 21.7412 29.5852 21.6636C29.5326 21.586 29.4648 21.5198 29.386 21.4689C29.3072 21.418 29.219 21.3835 29.1266 21.3673C29.0342 21.3512 28.9395 21.3538 28.8481 21.3749Z" fill="#FAA29D"/>
<path d="M53.2479 48.1365L48.6787 52.2874C48.0065 52.8976 47.1854 53.3198 46.298 53.5115L32.9006 56.4089C32.0356 56.5963 31.1318 56.4499 30.3701 55.999C29.6085 55.5481 29.0454 54.826 28.7937 53.9774C28.542 53.1289 28.6203 52.2166 29.0129 51.4233C29.4055 50.6301 30.0834 50.0145 30.9107 49.6999L38.5247 46.8012C38.5247 46.8012 43.8349 38.4216 43.9899 38.718C44.1449 39.0144 53.2479 48.1365 53.2479 48.1365Z" fill="#FFCDBE"/>
<path d="M54.9747 52.613L58.7616 53.8434L62.8393 45.3998L64.5034 36.172L60.7166 34.9415C60.4139 34.8432 60.0846 34.8691 59.801 35.0136C59.5174 35.158 59.3029 35.4093 59.2045 35.7119L54.2065 51.0943C54.1567 51.2445 54.1371 51.403 54.1489 51.5607C54.1606 51.7185 54.2034 51.8723 54.2748 52.0134C54.3462 52.1546 54.4448 52.2802 54.5649 52.3831C54.685 52.486 54.8243 52.5641 54.9747 52.613Z" fill="#FAA29D"/>
<path d="M59.1979 35.7161L58.0293 39.3127C58.1276 39.0101 58.3422 38.7589 58.6257 38.6144C58.9093 38.4699 59.2386 38.444 59.5413 38.5424L63.3282 39.7728L64.4968 36.1761L60.7099 34.9457C60.4073 34.8473 60.0779 34.8732 59.7944 35.0177C59.5108 35.1622 59.2963 35.4134 59.1979 35.7161Z" fill="#FAA29D"/>
<path d="M69.2416 59.9634L59.4567 56.7841C59.0607 56.6554 58.7321 56.3747 58.543 56.0037C58.354 55.6327 58.3201 55.2018 58.4488 54.8059L64.816 35.2096C64.9447 34.8136 65.2254 34.4849 65.5964 34.2959C65.9674 34.1069 66.3982 34.073 66.7942 34.2016L76.5791 37.3809C76.744 37.4345 76.8809 37.5514 76.9597 37.706C77.0384 37.8605 77.0525 38.04 76.9989 38.2049L70.0643 59.5473C70.0108 59.7123 69.8938 59.8491 69.7393 59.9279C69.5847 60.0066 69.4053 60.0208 69.2403 59.9672L69.2416 59.9634Z" fill="#ADD6E5"/>
<path d="M64.8122 35.2085L63.6436 38.8052C63.7722 38.4092 64.0529 38.0806 64.4239 37.8915C64.7949 37.7025 65.2258 37.6686 65.6218 37.7972L76.0286 41.1786L76.9951 38.2039C77.0487 38.0389 77.0346 37.8595 76.9558 37.7049C76.8771 37.5504 76.7402 37.4335 76.5752 37.3799L66.7942 34.2018C66.598 34.1375 66.391 34.1125 66.1851 34.1283C65.9792 34.1441 65.7784 34.2004 65.5943 34.2939C65.4102 34.3875 65.2464 34.5164 65.1122 34.6733C64.9779 34.8302 64.876 35.0121 64.8122 35.2085Z" fill="#9AC5D4"/>
</svg>
