<svg xmlns="http://www.w3.org/2000/svg" width="20.199" height="20.199" viewBox="0 0 20.199 20.199">
  <path id="Icon_metro-instagram" data-name="Icon metro-instagram" d="M19.416,1.928H5.924A3.363,3.363,0,0,0,2.571,5.281V18.774a3.363,3.363,0,0,0,3.353,3.353H19.416a3.363,3.363,0,0,0,3.353-3.353V5.281A3.363,3.363,0,0,0,19.416,1.928ZM9.037,10.765H16.3a3.846,3.846,0,1,1-7.267,0Zm11.208,0V18.34A1.266,1.266,0,0,1,18.982,19.6H6.358A1.266,1.266,0,0,1,5.1,18.34V10.765H7.07a5.74,5.74,0,1,0,11.2,0h1.975Zm0-4.42a.633.633,0,0,1-.631.631H18.351a.633.633,0,0,1-.631-.631V5.084a.633.633,0,0,1,.631-.631h1.262a.633.633,0,0,1,.631.631Z" transform="translate(-2.571 -1.928)" fill="#add6e5"/>
</svg>
