<svg xmlns="http://www.w3.org/2000/svg" xmlns:xlink="http://www.w3.org/1999/xlink" width="94.184" height="82.204" viewBox="0 0 94.184 82.204">
  <defs>
    <filter id="Path_33090" x="11.98" y="0" width="82.204" height="82.204" filterUnits="userSpaceOnUse">
      <feOffset input="SourceAlpha"/>
      <feGaussianBlur stdDeviation="5" result="blur"/>
      <feFlood flood-color="#faa29d" flood-opacity="0.2"/>
      <feComposite operator="in" in2="blur"/>
      <feComposite in="SourceGraphic"/>
    </filter>
  </defs>
  <g id="Group_43654" data-name="Group 43654" transform="translate(-85.836 -210.1)">
    <g id="back" transform="translate(114.816 227.1)">
      <g transform="matrix(1, 0, 0, 1, -28.98, -17)" filter="url(#Path_33090)">
        <g id="Path_33090-2" data-name="Path 33090" transform="translate(28.98 17)" fill="#faa29d">
          <path d="M 24.10205078125 49.2041015625 C 10.2607307434082 49.2041015625 -0.9999992251396179 37.9433708190918 -0.9999992251396179 24.10205078125 C -0.9999992251396179 10.2607307434082 10.2607307434082 -0.9999992251396179 24.10205078125 -0.9999992251396179 C 37.9433708190918 -0.9999992251396179 49.2041015625 10.2607307434082 49.2041015625 24.10205078125 C 49.2041015625 37.9433708190918 37.9433708190918 49.2041015625 24.10205078125 49.2041015625 Z" stroke="none"/>
          <path d="M 24.10205078125 0 C 10.8117790222168 0 0 10.8117790222168 0 24.10205078125 C 0 37.39231872558594 10.8117790222168 48.2041015625 24.10205078125 48.2041015625 C 37.39231872558594 48.2041015625 48.2041015625 37.39231872558594 48.2041015625 24.10205078125 C 48.2041015625 10.8117790222168 37.39231872558594 0 24.10205078125 0 M 24.10205078125 -2 C 38.49477005004883 -2 50.2041015625 9.709331512451172 50.2041015625 24.10205078125 C 50.2041015625 38.49477005004883 38.49477005004883 50.2041015625 24.10205078125 50.2041015625 C 9.709331512451172 50.2041015625 -2 38.49477005004883 -2 24.10205078125 C -2 9.709331512451172 9.709331512451172 -2 24.10205078125 -2 Z" stroke="none" fill="#fff"/>
        </g>
      </g>
      <path id="Path_33091" data-name="Path 33091" d="M0,0A24.129,24.129,0,0,1,24.1,24.1,24.129,24.129,0,0,1,0,48.2Z" transform="translate(24.102)" fill="#feb4af"/>
      <g id="Group_43653" data-name="Group 43653" transform="translate(11.303 7.214)">
        <path id="Path_33132" data-name="Path 33132" d="M83.7,261.738v6.645H69.024v-6.645a7.336,7.336,0,1,1,14.671,0Zm0,0" transform="translate(-63.654 -234.609)" fill="#eee"/>
        <path id="Path_33133" data-name="Path 33133" d="M123.21,263.99v6.646h-2.723V265.23a.611.611,0,0,0-1.222,0v5.406h-7.394V263.99a7.339,7.339,0,0,1,5.668-7.146,7.34,7.34,0,0,1,5.67,7.146Zm0,0" transform="translate(-103.168 -236.861)" fill="#fafafa"/>
        <path id="Path_33134" data-name="Path 33134" d="M127.847,276.879c.327,2.63-.894,4.554-3.21,6.023-2.314-1.469-3.536-3.392-3.21-6.022" transform="translate(-111.931 -255.337)" fill="#dda378"/>
        <path id="Path_33135" data-name="Path 33135" d="M25.6,17.673a4.326,4.326,0,0,1-.793,2.5h0a4.342,4.342,0,0,1-7,.131H7.8A4.342,4.342,0,1,1,3.85,13.359V8.952A8.949,8.949,0,0,1,13.035,0a9.1,9.1,0,0,1,.983.079,8.954,8.954,0,0,1,7.737,8.87v4.407A4.342,4.342,0,0,1,25.6,17.673Zm0,0" transform="translate(-0.004 0.001)" fill="#2b2b2b"/>
        <g id="Group_43653-2" data-name="Group 43653" transform="translate(0 0)">
          <path id="Path_33109" data-name="Path 33109" d="M166.134,76.59a4.628,4.628,0,0,0,2.205,3.338c1.6.919-3.386.656-3.386.656" transform="translate(-152.119 -70.631)" fill="#2b2b2b"/>
          <path id="Path_33110" data-name="Path 33110" d="M14.015.082V8.414H12.8V0a9.117,9.117,0,0,1,1.216.082ZM24.8,20.176a4.343,4.343,0,0,1-7,.132H16.061V18.719l2.839-5.01C18.9,16.18,20.422,20.175,24.8,20.176ZM12.729,0a4.741,4.741,0,0,0-3.77,2.621A12.4,12.4,0,0,0,7.367,8.953V13.36c-1.313.246-2.333,2.083-2.333,4.313a5.225,5.225,0,0,0,1.378,3.818A4.342,4.342,0,1,1,3.846,13.36V8.953A8.952,8.952,0,0,1,12.729,0Zm0,0" fill="#2b2b2b"/>
        </g>
        <path id="Path_33136" data-name="Path 33136" d="M84.887,87.7v1.372A7.332,7.332,0,0,1,77.752,96.4h-.01c-.07,0-.14,0-.211,0a7.334,7.334,0,0,1-7.316-7.336V87.7c0-4.025,7.336-4.584,7.336-7.318C77.551,83.113,84.887,83.672,84.887,87.7Zm0,0" transform="translate(-64.752 -74.125)" fill="#ffd0a6"/>
        <path id="Path_33137" data-name="Path 33137" d="M78.814,141.588a7.315,7.315,0,0,1-1.062.107h-.01c-.07,0-.14,0-.211,0a7.334,7.334,0,0,1-7.316-7.336v-1.372c0-1.591,1.146-2.641,2.533-3.5v4.869A7.337,7.337,0,0,0,78.814,141.588Zm0,0" transform="translate(-64.752 -119.417)" fill="#e8b182"/>
        <path id="Path_33138" data-name="Path 33138" d="M131.983,210.024a3.665,3.665,0,0,1-2.608-1.08.463.463,0,0,1,.655-.655,2.762,2.762,0,0,0,3.907,0,.463.463,0,0,1,.655.655,3.664,3.664,0,0,1-2.608,1.08Zm0,0" transform="translate(-119.184 -191.959)" fill="#dda378"/>
        <path id="Path_33139" data-name="Path 33139" d="M117.943,152.115a.463.463,0,0,1-.463-.463v-1.8a.463.463,0,1,1,.925,0v1.8a.463.463,0,0,1-.462.463Zm6.392,0a.463.463,0,0,1-.463-.463v-1.8a.463.463,0,1,1,.926,0v1.8a.463.463,0,0,1-.463.463Zm0,0" transform="translate(-108.34 -137.763)" fill="#2b2b2b"/>
      </g>
    </g>
    <text id="أم" transform="translate(94.836 257)" fill="#2b2b2b" font-size="17" font-family="Cairo-Bold, Cairo" font-weight="700"><tspan x="-8.424" y="0">أم</tspan></text>
  </g>
</svg>
