<svg width="414" height="296" viewBox="0 0 414 296" fill="none" xmlns="http://www.w3.org/2000/svg">
<path d="M401.923 122.989C407.738 142.192 410.67 162.153 410.623 182.217C410.623 270.479 350.423 295.237 282.901 295.237C238.391 295.27 193.156 257.453 149.253 216.243C111.853 282.429 6.12775 287.514 -29.3592 287.436C-105.39 287.436 -51.4332 228.827 -51.4332 129.436C-51.4332 29.964 10.1588 -50.617 86.1898 -50.617C102.205 -50.5884 118.014 -46.9998 132.473 -40.111C151.674 -82.172 186.37 -107.917 223.816 -107.897C256.539 -107.897 285.816 -88.572 305.316 -58.109C321.249 -78.298 342.568 -89.571 364.748 -89.534C411.901 -89.534 450.225 -39.498 450.225 22.286C450.225 66.598 430.462 104.907 401.925 123L401.923 122.989Z" fill="#F5F7F8"/>
</svg>
