<svg width="371" height="297" viewBox="0 0 371 297" fill="none" xmlns="http://www.w3.org/2000/svg">
<g opacity="0.53">
<path d="M215.781 57.093C214.139 54.1591 213.466 50.782 213.857 47.443C214.248 44.104 215.683 40.9735 217.957 38.498C220.232 36.0224 223.229 34.3281 226.524 33.6565C229.818 32.985 233.24 33.3704 236.302 34.758C238.451 35.7935 240.428 37.1549 242.163 38.794C244.455 40.687 246.252 43.1084 247.402 45.85C249.079 50.45 247.602 55.87 244.245 59.434C242.509 61.1679 240.447 62.5402 238.177 63.4712C235.907 64.4023 233.475 64.8736 231.022 64.858C224.935 64.941 218.522 62.129 215.68 56.745" fill="#ADD6E5"/>
<path d="M215.781 57.093C214.139 54.1591 213.466 50.782 213.857 47.443C214.248 44.104 215.683 40.9735 217.957 38.498C220.232 36.0224 223.229 34.3281 226.524 33.6565C229.818 32.985 233.24 33.3704 236.302 34.758C238.451 35.7935 240.428 37.1549 242.163 38.794C244.455 40.687 246.252 43.1084 247.402 45.85C249.079 50.45 247.602 55.87 244.245 59.434C242.509 61.1679 240.447 62.5402 238.177 63.4712C235.907 64.4023 233.475 64.8736 231.022 64.858C224.935 64.941 218.522 62.129 215.68 56.745" stroke="white" stroke-width="4" stroke-miterlimit="10"/>
<path d="M192.479 32.815L204.472 36.838L192.479 32.815Z" fill="#ADD6E5"/>
<path d="M192.479 32.815L204.472 36.838" stroke="white" stroke-width="4" stroke-miterlimit="10"/>
<path d="M215.074 13.105C216.024 16.3196 217.39 19.3965 219.136 22.258L215.074 13.105Z" fill="#ADD6E5"/>
<path d="M215.074 13.105C216.024 16.3196 217.39 19.3965 219.136 22.258" stroke="white" stroke-width="4" stroke-miterlimit="10"/>
<path d="M240.675 25.004L244.702 13.843L240.675 25.004Z" fill="#ADD6E5"/>
<path d="M240.675 25.004L244.702 13.843" stroke="white" stroke-width="4" stroke-miterlimit="10"/>
<path d="M253.384 36.468C257.028 35.4986 260.361 33.608 263.063 30.978L253.384 36.468Z" fill="#ADD6E5"/>
<path d="M253.384 36.468C257.028 35.4986 260.361 33.608 263.063 30.978" stroke="white" stroke-width="4" stroke-miterlimit="10"/>
<path d="M259.332 55.866L274.52 59.444L259.332 55.866Z" fill="#ADD6E5"/>
<path d="M259.332 55.866L274.52 59.444" stroke="white" stroke-width="4" stroke-miterlimit="10"/>
<path d="M249.404 71.473C251.382 73.5127 253.131 75.7624 254.62 78.182L249.404 71.473Z" fill="#ADD6E5"/>
<path d="M249.404 71.473C251.382 73.5127 253.131 75.7624 254.62 78.182" stroke="white" stroke-width="4" stroke-miterlimit="10"/>
<path d="M219.376 73.97L215.625 83.153L219.376 73.97Z" fill="#ADD6E5"/>
<path d="M219.376 73.97L215.625 83.153" stroke="white" stroke-width="4" stroke-miterlimit="10"/>
<path d="M204.924 57.243C200.512 57.8463 196.127 58.619 191.771 59.561L204.924 57.243Z" fill="#ADD6E5"/>
<path d="M204.924 57.243C200.512 57.8463 196.127 58.619 191.771 59.561" stroke="white" stroke-width="4" stroke-miterlimit="10"/>
<path d="M38.3387 221.433C37.6617 217.34 37.5457 212.958 39.3767 209.233C41.7817 204.342 47.2337 201.481 52.6577 200.941C53.7863 200.797 54.9309 200.836 56.0467 201.059C56.9654 201.294 57.8473 201.654 58.6677 202.13C62.2863 204.054 65.1457 207.147 66.7787 210.906C67.5713 212.782 67.9482 214.806 67.8837 216.841C67.8191 218.877 67.3146 220.873 66.4047 222.695C65.5024 224.302 64.3659 225.766 63.0327 227.039C61.9221 228.198 60.6644 229.207 59.2917 230.039C57.4735 231.041 55.4504 231.613 53.3771 231.713C51.3037 231.813 49.2349 231.438 47.3287 230.616C43.3342 228.91 40.1143 225.783 38.2917 221.84" fill="white"/>
<path d="M38.3387 221.433C37.6617 217.34 37.5457 212.958 39.3767 209.233C41.7817 204.342 47.2337 201.481 52.6577 200.941C53.7863 200.797 54.9309 200.836 56.0467 201.059C56.9654 201.294 57.8473 201.654 58.6677 202.13C62.2863 204.054 65.1457 207.147 66.7787 210.906C67.5713 212.782 67.9482 214.806 67.8837 216.841C67.8191 218.877 67.3146 220.873 66.4047 222.695C65.5024 224.302 64.3659 225.766 63.0327 227.039C61.9221 228.198 60.6644 229.207 59.2917 230.039C57.4735 231.041 55.4504 231.613 53.3771 231.713C51.3037 231.813 49.2349 231.438 47.3287 230.616C43.3342 228.91 40.1143 225.783 38.2917 221.84" stroke="#FFB400" stroke-width="0.5" stroke-miterlimit="10"/>
<path d="M8.53773 39.604C7.57573 34.395 8.34373 28.604 11.8007 24.588C15.2577 20.572 21.7747 19.066 26.0617 22.178C25.7347 13.027 33.2667 5.006 41.9377 2.063C45.8207 0.743998 50.1707 0.247997 53.9797 1.763C57.5073 3.35026 60.3609 6.13261 62.0367 9.619C63.684 13.082 64.9113 16.7296 65.6927 20.484C68.5807 16.253 74.6137 15.884 79.7187 16.322C82.6237 16.572 85.7847 17.08 87.7317 19.251C88.7313 20.4829 89.4154 21.94 89.7247 23.496C90.8922 28.2819 90.4973 33.3158 88.5977 37.861C92.5687 36.598 96.6977 39.326 99.5087 42.401C102.769 45.965 105.372 50.601 104.837 55.401C104.143 61.623 97.9367 66.353 91.6777 66.468C85.4187 66.583 79.5257 62.793 75.9347 57.668C75.3567 64.702 68.9247 69.826 62.4287 72.585C59.2834 73.9929 55.926 74.8684 52.4937 75.176C47.3839 75.4118 42.3358 73.981 38.1097 71.099C33.8835 68.2171 30.7081 64.0401 29.0617 59.197C27.525 61.1483 25.5612 62.7213 23.3214 63.7949C21.0816 64.8685 18.6254 65.4142 16.1417 65.39C13.659 65.3261 11.224 64.6938 9.02395 63.5417C6.82386 62.3896 4.91726 60.7483 3.45073 58.744C2.32906 57.2734 1.55037 55.5707 1.17162 53.7603C0.792874 51.95 0.823661 50.0779 1.26173 48.281C2.28473 44.735 5.68973 41.835 9.37473 42.002" fill="#ADD6E5"/>
<path d="M8.53773 39.604C7.57573 34.395 8.34373 28.604 11.8007 24.588C15.2577 20.572 21.7747 19.066 26.0617 22.178C25.7347 13.027 33.2667 5.006 41.9377 2.063C45.8207 0.743998 50.1707 0.247997 53.9797 1.763C57.5073 3.35026 60.3609 6.13261 62.0367 9.619C63.684 13.082 64.9113 16.7296 65.6927 20.484C68.5807 16.253 74.6137 15.884 79.7187 16.322C82.6237 16.572 85.7847 17.08 87.7317 19.251C88.7313 20.4829 89.4154 21.94 89.7247 23.496C90.8922 28.2819 90.4973 33.3158 88.5977 37.861C92.5687 36.598 96.6977 39.326 99.5087 42.401C102.769 45.965 105.372 50.601 104.837 55.401C104.143 61.623 97.9367 66.353 91.6777 66.468C85.4187 66.583 79.5257 62.793 75.9347 57.668C75.3567 64.702 68.9247 69.826 62.4287 72.585C59.2834 73.9928 55.926 74.8684 52.4937 75.176C47.3839 75.4118 42.3358 73.981 38.1097 71.099C33.8835 68.2171 30.7081 64.0401 29.0617 59.197C27.525 61.1483 25.5612 62.7213 23.3214 63.7949C21.0816 64.8685 18.6254 65.4142 16.1417 65.39C13.659 65.3261 11.224 64.6938 9.02395 63.5417C6.82386 62.3896 4.91726 60.7483 3.45073 58.744C2.32906 57.2734 1.55037 55.5707 1.17162 53.7603C0.792874 51.95 0.823661 50.0779 1.26173 48.281C2.28473 44.735 5.68973 41.835 9.37473 42.002" stroke="#00B7DD" stroke-width="0.5" stroke-miterlimit="10"/>
<path d="M13.0408 173.056C12.3432 171.956 11.8925 170.719 11.7198 169.428C10.0037 161.293 9.65322 152.929 10.6828 144.679C10.9405 142.402 11.4748 140.165 12.2738 138.018C12.8525 136.36 13.8821 134.897 15.2468 133.792C15.9352 133.251 16.7564 132.906 17.6243 132.791C18.4923 132.677 19.3749 132.799 20.1798 133.143C20.664 133.366 21.0671 133.734 21.3338 134.196C21.5233 134.611 21.6374 135.055 21.6708 135.51L22.6168 142.592C23.6973 140.948 25.0465 139.497 26.6078 138.3C27.8926 137.448 29.3761 136.944 30.9138 136.836C32.4514 136.729 33.9907 137.021 35.3818 137.685C36.2965 138.078 37.056 138.762 37.5428 139.631C38.0034 140.859 37.987 142.215 37.4968 143.431C36.3968 147.012 34.2218 150.154 32.0088 153.177C26.5838 160.586 20.6598 167.756 13.3318 173.29" fill="white"/>
<path d="M13.0408 173.056C12.3432 171.956 11.8925 170.719 11.7198 169.428C10.0037 161.293 9.65322 152.929 10.6828 144.679C10.9405 142.402 11.4748 140.165 12.2738 138.018C12.8525 136.36 13.8821 134.897 15.2468 133.792C15.9352 133.251 16.7564 132.906 17.6243 132.791C18.4923 132.677 19.3749 132.799 20.1798 133.143C20.664 133.366 21.0671 133.734 21.3338 134.196C21.5233 134.611 21.6374 135.055 21.6708 135.51L22.6168 142.592C23.6973 140.948 25.0465 139.497 26.6078 138.3C27.8926 137.448 29.3761 136.944 30.9138 136.836C32.4514 136.729 33.9907 137.021 35.3818 137.685C36.2965 138.078 37.056 138.762 37.5428 139.631C38.0034 140.859 37.987 142.215 37.4968 143.431C36.3968 147.012 34.2218 150.154 32.0088 153.177C26.5838 160.586 20.6598 167.756 13.3318 173.29" stroke="#FF4B42" stroke-width="0.5" stroke-miterlimit="10"/>
<path d="M168.757 288.44C186.815 280.247 206.814 271.211 226.773 278.272C227.498 278.528 228.199 278.83 228.906 279.118V274.357C197.45 262.968 167.882 287.966 137.335 295.945C132.59 289.245 128.023 282.385 123.086 275.934C112.062 261.534 94.2468 242.434 74.1058 250.714C60.9058 256.145 51.6208 271.902 37.8818 275.414V279.971C55.4528 276.335 64.0218 255.046 81.9558 253.271C94.5178 252.026 105.262 262.017 113.01 270.671C120.194 278.691 126.124 287.697 132.272 296.512H149.447C155.923 294.168 162.322 291.357 168.757 288.44Z" fill="white"/>
<path d="M63.4718 287.689C54.7962 286.806 46.0342 287.961 37.8838 291.062V295.325C38.7838 294.97 39.6908 294.625 40.6148 294.317C55.5748 289.283 70.6678 292.663 85.6368 296.507H104.957C91.1298 293.924 77.4968 289.078 63.4718 287.689Z" fill="white"/>
</g>
<path d="M148.696 188.482C148.696 188.482 178.332 246.07 179.878 244.258C181.424 242.446 197.065 229.209 194.873 229.631C192.681 230.053 180.879 231.686 180.879 231.686L166.167 184.745L148.696 188.482Z" fill="#FDC59D"/>
<path d="M166.888 222.94L176.505 217.732L171.915 203.086L171.903 203.074L158.31 206.901C161.02 212.035 164.013 217.652 166.888 222.94Z" fill="#EFA47D"/>
<path d="M177.849 222.017L169.681 228.038C172.603 233.322 175.237 237.924 177.106 240.87L190.289 231.543L189.473 230.467C185.482 231.049 180.879 231.685 180.879 231.685L177.849 222.017Z" fill="#F7FFFA"/>
<path d="M178.047 222.648L170.311 229.171C170.439 229.4 170.568 229.635 170.694 229.863L178.481 224.038L178.047 222.648Z" fill="#51A7BB"/>
<path d="M178.77 224.958L171.579 231.444C171.746 231.742 171.913 232.036 172.079 232.327L179.105 226.027L178.77 224.958Z" fill="#0074AF"/>
<path d="M179.37 232.967C179.37 232.967 174.541 229.189 176.208 227.244C177.875 225.299 182.576 222.344 183.348 223.974C184.02 225.875 184.518 227.833 184.835 229.824C184.835 229.824 197.856 225.455 198.48 228.519C198.87 230.436 180.993 247.365 179.615 246.304C178.237 245.243 172.794 238.527 173.757 237.546C174.72 236.565 178.04 235.921 178.04 235.921L179.37 232.967Z" fill="#ADD6E5"/>
<path d="M198.479 228.523C198.419 228.31 198.302 228.118 198.142 227.966C197.982 227.814 197.783 227.708 197.568 227.66L185.79 239.007C183.733 239.302 181.74 239.943 179.897 240.901C178.73 241.544 177.801 242.546 177.25 243.758C177.962 244.674 178.753 245.527 179.613 246.308C180.991 247.371 198.869 230.44 198.479 228.523Z" fill="#ADD6E5"/>
<path d="M186.237 227.646C187.501 228.087 186.953 231.973 185.772 232.6C184.591 233.227 184.973 227.205 186.237 227.646Z" fill="#2B2B2B"/>
<path d="M188.888 227.136C190.151 227.577 189.604 231.462 188.423 232.09C187.242 232.718 187.626 226.695 188.888 227.136Z" fill="#2B2B2B"/>
<path d="M191.275 226.184C192.538 226.626 191.991 230.511 190.81 231.138C189.629 231.765 190.011 225.745 191.275 226.184Z" fill="#2B2B2B"/>
<path d="M126.973 189.96L128.385 244.635C128.385 244.635 118.21 239.012 119.068 241.499C119.926 243.986 136.074 251.115 136.074 251.115L143.094 191.03L126.973 189.96Z" fill="#FDC59D"/>
<path d="M140.656 211.873L127.631 215.535L127.918 226.653L138.745 228.223L140.656 211.873Z" fill="#EFA47D"/>
<path d="M137.846 235.912L128.125 234.652L128.382 244.635C128.382 244.635 118.207 239.012 119.065 241.5C119.923 243.988 136.071 251.116 136.071 251.116L137.846 235.912Z" fill="#F7FFFA"/>
<path d="M128.165 236.192L128.197 237.438L137.577 238.221L137.749 236.749L128.165 236.192Z" fill="#51A7BB"/>
<path d="M137.483 239.026L128.224 238.482L128.248 239.428L137.348 240.171L137.483 239.026Z" fill="#0074AF"/>
<path d="M130.865 241.277C130.865 241.277 133.984 235.998 131.724 234.796C129.464 233.594 124.01 232.557 123.883 234.352C123.95 236.367 124.2 238.372 124.631 240.342C124.631 240.342 110.913 241.017 111.448 244.099C111.783 246.027 134.601 255.277 135.497 253.787C136.393 252.297 139.016 244.06 137.762 243.497C136.508 242.934 133.18 243.544 133.18 243.544L130.865 241.277Z" fill="#ADD6E5"/>
<path d="M111.448 244.102C111.426 243.882 111.464 243.661 111.558 243.461C111.652 243.261 111.799 243.09 111.982 242.967L127.082 249.242C129.105 248.768 131.194 248.638 133.26 248.859C134.581 249.033 135.811 249.629 136.766 250.559C136.436 251.672 136.011 252.755 135.494 253.794C134.601 255.277 111.783 246.027 111.448 244.102Z" fill="#ADD6E5"/>
<path d="M122.529 238.823C121.513 239.693 123.438 243.111 124.767 243.267C126.096 243.423 123.544 237.951 122.529 238.823Z" fill="#2B2B2B"/>
<path d="M119.874 239.313C118.858 240.183 120.783 243.601 122.112 243.756C123.441 243.911 120.889 238.442 119.874 239.313Z" fill="#2B2B2B"/>
<path d="M117.305 239.298C116.289 240.168 118.215 243.586 119.544 243.742C120.873 243.898 118.321 238.426 117.305 239.298Z" fill="#2B2B2B"/>
<path d="M126.007 194.166L122.262 222.258L149.087 224.134L147.631 205.147L150.38 204.374L159.612 218.552L184.1 208.252L168 185.052L126.007 194.166Z" fill="#51A7BB"/>
<path d="M175.685 196.124L167.999 185.049L158.78 187.049L125.343 199.149L123.881 210.116C126.094 210.433 128.511 209.016 130.745 203.949L165.945 190.485C165.945 190.485 170.079 196.558 175.685 196.124Z" fill="#69BCCD"/>
<path d="M154.704 216.713L183.38 203.713L186.75 208.465L158.01 222.442L154.704 216.713Z" fill="#69BCCD"/>
<path d="M120.015 217.922L150.762 217.946L150.823 225.498L119.554 224.065L120.015 217.922Z" fill="#69BCCD"/>
<path d="M122.734 207.071C122.734 207.071 112.405 160.254 117.384 153.341C122.363 146.428 136.778 141.204 147.526 147.898C158.274 154.592 173.918 188.786 173.918 188.786L122.734 207.071Z" fill="#0074AF"/>
<path d="M130.006 152.637L132.049 162.35L138.127 160.326L135.27 150.157L130.006 152.637Z" fill="#EFA47D"/>
<path d="M73.1154 143.625C82.5071 141.385 88.1402 131.264 85.6972 121.019C83.2543 110.773 73.6605 104.283 64.2688 106.522C54.8771 108.762 49.2441 118.883 51.687 129.128C54.1299 139.374 63.7237 145.864 73.1154 143.625Z" fill="#FDC59D"/>
<path d="M55.1149 128.054C56.5539 134.094 62.2079 137.921 67.7439 136.602C73.2799 135.283 76.6019 129.319 75.1639 123.279C73.7259 117.239 68.0699 113.412 62.5339 114.731C56.9979 116.05 53.6759 122.014 55.1149 128.054Z" fill="#EFA47D"/>
<path d="M164.112 100.587C166.552 110.829 176.141 117.32 185.53 115.087C194.919 112.854 200.553 102.734 198.114 92.487C195.675 82.24 186.083 75.754 176.695 77.987C167.307 80.22 161.672 90.344 164.112 100.587Z" fill="#FDC59D"/>
<path d="M171.859 98.599C173.298 104.639 178.952 108.466 184.488 107.147C190.024 105.828 193.346 99.864 191.908 93.824C190.47 87.784 184.815 83.957 179.279 85.276C173.743 86.595 170.421 92.559 171.859 98.599Z" fill="#EFA47D"/>
<path d="M92.3002 63.4687L131.455 54.1415C140.852 51.9037 150.754 53.4905 158.981 58.5528C167.209 63.6152 173.089 71.7384 175.327 81.1357L181.806 108.332C184.044 117.73 182.458 127.632 177.396 135.86C172.334 144.088 164.21 149.969 154.812 152.207L115.66 161.534C106.262 163.773 96.3598 162.186 88.1315 157.124C79.9033 152.062 74.023 143.938 71.7843 134.54L65.306 107.345C63.0672 97.9474 64.6535 88.0449 69.7159 79.8164C74.7783 71.5879 82.9021 65.7075 92.3002 63.4687Z" fill="#FDC59D"/>
<path d="M140.784 118.928C131.746 121.074 133.521 127.721 129.767 128.272C126.013 128.823 120.174 124.763 116.495 130.145C112.816 135.527 120.887 153.859 142.421 141.921C157.489 133.563 149.821 116.782 140.784 118.928Z" fill="#2B2B2B"/>
<path d="M116.451 137.425C118.705 135.874 121.187 134.682 123.807 133.892C132.674 131.214 141.618 133.37 146.75 138.73C145.458 139.985 144.002 141.058 142.421 141.92C127.431 150.231 118.972 143.873 116.451 137.425Z" fill="#FFAC9F"/>
<path d="M144.277 119.025C144.456 125.484 139.466 131.856 131.877 134.146C125.9 135.946 119.86 134.752 115.89 131.483C116.016 131.007 116.219 130.554 116.49 130.143C120.169 124.762 126.008 128.821 129.762 128.27C133.516 127.719 131.741 121.07 140.779 118.926C141.933 118.651 143.14 118.685 144.277 119.025Z" fill="#F7FFFA"/>
<path d="M92.0435 96.061C92.4228 94.5969 92.9881 93.1875 93.7255 91.867C94.0485 91.2245 94.4983 90.654 95.0478 90.1901C95.5973 89.7261 96.235 89.3783 96.9226 89.1674C97.6102 88.9566 98.3333 88.8872 99.0484 88.9635C99.7635 89.0397 100.456 89.26 101.083 89.611C102.279 90.2213 103.402 90.9654 104.429 91.829" stroke="#4F0200" stroke-width="0.75" stroke-miterlimit="10"/>
<path d="M135.036 85.322C135.591 83.8948 136.281 82.5239 137.097 81.228C137.593 80.3044 138.334 79.5356 139.239 79.006C139.897 78.7431 140.607 78.6327 141.314 78.6829C142.021 78.7331 142.708 78.9427 143.323 79.296C144.544 80.0103 145.725 80.7905 146.862 81.633" stroke="#4F0200" stroke-width="0.75" stroke-miterlimit="10"/>
<path d="M124.751 106.006L126.698 108.406C127.253 107.169 127.899 105.975 128.631 104.835C129.088 106.237 129.422 107.676 129.631 109.135" stroke="#4F0200" stroke-width="0.5" stroke-miterlimit="10"/>
<path d="M151.735 116.732C154.755 116.012 157.366 114.123 158.993 111.479C160.62 108.834 161.131 105.652 160.412 102.632L158.975 96.603C158.256 93.5828 156.366 90.9722 153.722 89.345C151.078 87.7179 147.896 87.2074 144.875 87.926C141.855 88.6456 139.245 90.5353 137.617 93.1794C135.99 95.8235 135.48 99.0056 136.198 102.026L137.635 108.055C138.355 111.075 140.244 113.686 142.888 115.313C145.533 116.94 148.715 117.451 151.735 116.732Z" fill="#F7FFFA"/>
<path d="M136.199 102.026C135.813 100.41 135.777 98.7299 136.093 97.0987C136.409 95.4675 137.071 93.9228 138.033 92.568C138.86 92.0182 139.777 91.6181 140.743 91.386C146.293 90.063 152.115 94.541 153.743 101.386C155.371 108.231 152.196 114.853 146.643 116.175C146.145 116.288 145.638 116.354 145.128 116.375C143.28 115.727 141.626 114.625 140.315 113.171C139.005 111.716 138.081 109.956 137.628 108.052L136.199 102.026Z" fill="#2B2B2B"/>
<path d="M108.923 127.799C107.461 128.274 105.919 128.456 104.387 128.335C102.854 128.214 101.36 127.792 99.9903 127.093C98.6206 126.395 97.4019 125.433 96.4038 124.264C95.4058 123.094 94.6479 121.74 94.1735 120.277L92.2595 114.377C91.7848 112.915 91.6028 111.373 91.7239 109.84C91.845 108.307 92.2668 106.813 92.9653 105.444C93.6638 104.074 94.6253 102.855 95.7948 101.857C96.9643 100.859 98.319 100.101 99.7815 99.626C102.735 98.6678 105.948 98.922 108.715 100.333C111.481 101.743 113.573 104.195 114.532 107.148L116.444 113.048C116.919 114.51 117.102 116.052 116.981 117.585C116.86 119.118 116.438 120.612 115.74 121.982C115.041 123.351 114.08 124.57 112.91 125.568C111.741 126.567 110.386 127.325 108.923 127.799Z" fill="#F7FFFA"/>
<path d="M114.531 107.154C114.018 105.574 113.174 104.121 112.054 102.893C110.935 101.665 109.566 100.69 108.04 100.034C107.047 99.995 106.055 100.13 105.109 100.434C99.6827 102.194 97.0447 109.048 99.2157 115.742C101.387 122.436 107.549 126.433 112.975 124.672C113.459 124.51 113.928 124.304 114.375 124.057C115.614 122.542 116.453 120.74 116.814 118.817C117.176 116.893 117.048 114.909 116.444 113.048L114.531 107.154Z" fill="#2B2B2B"/>
<path d="M152.986 124.082C154.007 128.372 159.407 130.761 165.045 129.417C170.683 128.073 174.426 123.508 173.405 119.217C172.384 114.926 166.983 112.538 161.345 113.88C155.707 115.222 151.963 119.792 152.986 124.082Z" fill="#FAA29D"/>
<path d="M88.1586 141.264C89.1796 145.554 94.5796 147.943 100.218 146.599C105.856 145.255 109.599 140.69 108.578 136.399C107.557 132.108 102.156 129.72 96.5176 131.062C90.8796 132.404 87.1356 136.971 88.1586 141.264Z" fill="#FAA29D"/>
<path d="M167.6 48.576C167.6 48.576 185.428 38.791 181.47 33.011C177.512 27.231 150.229 29.326 150.229 29.326C150.229 29.326 161.255 22.476 145.181 18.259C98.4146 5.99 89.7186 32.953 84.8096 44.209C81.7096 42.198 77.8776 40.447 75.7416 42.237C71.7546 45.578 75.6356 51.828 75.6356 51.828C75.6356 51.828 65.3706 48.893 64.8856 54.388C64.6416 57.166 68.0756 59.371 71.5346 60.874C56.3956 79.114 62.0256 99.993 63.8056 105.261C64.1316 109.861 65.5666 124.098 71.0396 127.826C75.9916 131.199 75.2516 113.562 74.5946 104.732C93.0776 96.949 100.915 66.983 100.915 66.983C100.915 66.983 98.6736 85.197 109.254 84.733C114.744 84.493 116.479 74.838 117.017 69.54C117.053 73.257 118.142 78.504 124.28 77.04C133.554 74.831 128.613 61.256 128.613 61.256C137.413 79.266 155.504 80.713 167.49 79.389L177.726 91.315C202.766 64.141 167.6 48.576 167.6 48.576Z" fill="#2B2B2B"/>
<path d="M126.756 22.184C129.95 26.584 111.618 34.419 109.023 28.544C106.428 22.669 123.56 17.785 126.756 22.184Z" fill="#686868"/>
<path d="M128.616 32.403C129.244 35.927 118.068 43.929 114.244 40.649C110.42 37.369 127.984 28.879 128.616 32.403Z" fill="#686868"/>
<path d="M70.9296 67.548C74.2636 69.078 74.8616 76.892 68.9066 78.421C62.9516 79.95 67.5966 66.016 70.9296 67.548Z" fill="#686868"/>
<path d="M80.5197 66.812C84.1527 67.604 85.3787 78.942 79.3407 79.405C73.3027 79.868 76.8857 66.018 80.5197 66.812Z" fill="#686868"/>
<path d="M81.6565 164.005C85.3455 165.714 85.0185 172.469 82.3625 173.199C77.3445 174.58 77.9685 162.294 81.6565 164.005Z" fill="#EFA47D"/>
<path d="M302.031 140.127C305.719 141.837 305.391 148.591 302.731 149.327C297.718 150.703 298.342 138.418 302.031 140.127Z" fill="#EFA47D"/>
<path d="M107.072 228.543L76.0454 146.297L286.004 121.07L312.998 204.828L107.072 228.543Z" fill="#FAA29D"/>
<path d="M85.2096 171.369C87.4916 173.743 80.0696 180.4 76.5326 177.951C72.9956 175.502 81.8606 167.886 85.2096 171.369Z" fill="#FDC59D"/>
<path d="M87.6456 175.308C89.9276 177.682 82.5056 184.34 78.9686 181.89C75.4316 179.44 84.2966 171.825 87.6456 175.308Z" fill="#FDC59D"/>
<path d="M89.6148 178.715C91.8968 181.089 84.4748 187.747 80.9378 185.297C77.4008 182.847 86.2668 175.232 89.6148 178.715Z" fill="#FDC59D"/>
<path d="M88.8026 183.492C90.6026 185.36 84.7566 190.6 81.9716 188.671C79.1866 186.742 86.1696 180.749 88.8026 183.492Z" fill="#FDC59D"/>
<path d="M295.465 149.254C294.52 152.407 304.165 154.937 306.191 151.141C308.217 147.345 296.851 144.624 295.465 149.254Z" fill="#FDC59D"/>
<path d="M295.103 153.871C294.158 157.026 303.803 159.555 305.829 155.759C307.855 151.963 296.485 149.242 295.103 153.871Z" fill="#FDC59D"/>
<path d="M294.904 157.801C293.959 160.954 303.604 163.484 305.63 159.689C307.656 155.894 296.291 153.171 294.904 157.801Z" fill="#FDC59D"/>
<path d="M297.809 161.677C297.066 164.161 304.656 166.151 306.252 163.164C307.848 160.177 298.896 158.034 297.809 161.677Z" fill="#FDC59D"/>
</svg>
