<svg width="275" height="231" viewBox="0 0 275 231" fill="none" xmlns="http://www.w3.org/2000/svg">
<path d="M209.112 175.582C209.112 175.582 201.03 227.282 202.902 226.832C204.774 226.382 219.447 229.979 217.815 229.21C216.183 228.441 209.541 219.104 209.541 219.104L222.293 181.462L209.112 175.582Z" fill="#FDC59D"/>
<path d="M209.541 219.105L211.48 213.384C208.911 213.305 206.349 213.085 203.805 212.723C202.805 220.823 202.25 226.988 202.905 226.833C203.581 226.774 204.263 226.807 204.93 226.933L213.724 224.721C211.61 222.012 209.541 219.105 209.541 219.105Z" fill="#FFB3DB"/>
<path d="M204.576 206.732L213.333 207.913L217.312 196.169V196.156L206.619 192.181C205.939 196.821 205.217 201.913 204.576 206.732Z" fill="#EFA47D"/>
<path d="M208.348 220.091C208.348 220.091 207.923 216.191 209.983 216.372C212.043 216.553 216.423 218.058 215.719 219.33C214.956 220.418 214.034 221.386 212.984 222.2C212.984 222.2 221.984 228.695 220.263 230.547C219.188 231.706 199.656 227.933 199.705 226.528C199.754 225.123 201.605 218.389 202.698 218.56C203.791 218.731 205.782 220.609 205.782 220.609L208.348 220.091Z" fill="#ADD6E5"/>
<path d="M219.961 228.627C213.137 228.441 206.413 226.942 200.156 224.212C199.942 224.97 199.793 225.745 199.708 226.528C199.659 227.933 219.191 231.706 220.266 230.547C220.667 230.114 220.478 229.426 219.961 228.627Z" fill="#ADD6E5"/>
<path d="M215.48 223.056C215.48 223.056 214.727 221.701 213.694 221.603C212.661 221.505 210.405 222.628 211.208 223.99C212.011 225.352 214.95 224.326 215.48 223.056Z" fill="#ADD6E5"/>
<path d="M218.139 225.22C218.139 225.22 217.386 223.865 216.352 223.768C215.318 223.671 213.063 224.793 213.866 226.155C214.669 227.517 217.609 226.491 218.139 225.22Z" fill="#ADD6E5"/>
<path d="M194.35 173.45L189.55 217.376C189.55 217.376 180.044 218.017 180.461 220.102C180.878 222.187 195.002 223.402 195.002 223.402L207.145 176.061L194.35 173.45Z" fill="#FDC59D"/>
<path d="M194.998 223.398L197.953 211.878C195.034 211.42 192.298 210.944 190.29 210.578L189.546 217.37C187.67 217.507 185.803 217.76 183.958 218.127L187.143 222.287L187.796 222.512C191.408 223.089 194.998 223.398 194.998 223.398Z" fill="#FFB3DB"/>
<path d="M202.929 192.478L192.103 194L191.126 202.932L199.626 205.364L202.929 192.478Z" fill="#EFA47D"/>
<path d="M191.217 216.055C191.217 216.055 193.561 213.393 191.607 212.715C189.653 212.037 185.665 211.886 185.787 213.337C185.909 214.788 186.126 216.085 186.126 216.085C186.126 216.085 175.998 219.9 176.81 222.293C177.317 223.793 195.944 226.766 196.474 225.464C197.004 224.162 198.074 217.264 196.999 216.964C195.924 216.664 193.348 217.573 193.348 217.573L191.217 216.055Z" fill="#ADD6E5"/>
<path d="M196.916 223.699C191.649 224.299 181.834 222.299 177.075 221.21C176.948 221.357 176.858 221.531 176.812 221.719C176.766 221.907 176.765 222.104 176.81 222.292C177.317 223.792 195.944 226.764 196.474 225.463C196.668 224.888 196.816 224.298 196.916 223.699Z" fill="#ADD6E5"/>
<path d="M183.67 215.961C183.67 215.961 184.77 214.873 185.792 215.068C186.814 215.263 188.661 216.975 187.51 218.056C186.359 219.137 183.822 217.331 183.67 215.961Z" fill="#ADD6E5"/>
<path d="M180.509 217.293C180.509 217.293 181.609 216.205 182.632 216.4C183.655 216.595 185.501 218.307 184.348 219.388C183.195 220.469 180.662 218.662 180.509 217.293Z" fill="#ADD6E5"/>
<path d="M178.232 197.627C178.232 197.627 195.472 139.374 201.62 136.28C207.768 133.186 216.752 137.939 225.245 143.642C238.672 152.66 237.881 203.249 237.881 203.249L178.232 197.627Z" fill="#ADD6E5"/>
<path d="M237.743 193.378C236.759 192.885 235.721 192.507 234.651 192.25C231.925 191.625 230.023 192.708 227.622 193.782C226.991 194.097 226.29 194.244 225.586 194.209C224.882 194.174 224.199 193.958 223.603 193.582C222.542 192.841 221.402 192.222 220.203 191.736C218.163 191.122 216.168 192 214.309 192.776C213.232 193.334 212.034 193.618 210.822 193.6C209.494 193.346 208.229 192.836 207.095 192.1C205.249 191.128 203.344 190.405 201.323 191.337C200.267 191.825 199.323 192.673 198.148 192.882C197.608 192.932 197.064 192.874 196.547 192.712C196.03 192.549 195.55 192.285 195.136 191.936C193.474 190.783 192.103 189.226 190.262 188.331C187.832 187.15 185.715 188.068 183.426 189.107C182.538 189.508 181.584 189.745 180.612 189.807C180.43 190.395 180.255 190.96 180.091 191.493C182.418 191.487 184.165 190.267 186.379 189.543C190.899 188.064 193.143 194.225 197.367 194.516C199.956 194.696 201.43 191.736 203.904 192.075C206.278 192.4 208.063 194.426 210.452 194.798C212.652 195.14 214.589 193.978 216.552 193.21C217.13 192.926 217.762 192.768 218.406 192.746C219.05 192.724 219.691 192.839 220.287 193.083C221.512 193.634 222.493 194.61 223.7 195.201C226.392 196.521 228.367 194.801 230.837 193.917C233.537 192.952 235.665 194.194 237.801 195.498C237.788 194.824 237.769 194.117 237.743 193.378Z" fill="#F7FFFA"/>
<path d="M187.675 186.11C188.716 185.374 189.794 184.691 190.905 184.064C191.485 183.873 192.107 183.85 192.699 183.998C193.291 184.146 193.829 184.458 194.252 184.899C195.686 186.047 196.933 187.672 198.808 188.11C201.356 188.704 202.923 186.051 205.317 186.265C207.604 186.465 209.278 188.776 211.708 188.479C214.062 188.19 215.408 185.091 217.969 186.269C219.856 187.136 221.199 188.958 223.255 189.516C224.39 189.77 225.577 189.641 226.632 189.149C228.049 188.472 229.558 188.006 231.11 187.765C233.288 187.667 235.466 187.972 237.534 188.665C237.506 188.142 237.476 187.611 237.444 187.072C233.826 186.149 230.008 186.404 226.544 187.798C225.973 188.114 225.34 188.299 224.689 188.339C224.038 188.38 223.386 188.275 222.781 188.032C221.702 187.464 220.67 186.811 219.694 186.081C218.274 185.181 216.657 184.597 215.025 185.306C214.041 185.734 213.294 186.596 212.289 186.977C210.838 187.527 209.489 186.722 208.224 186.093C206.256 185.12 204.569 184.74 202.524 185.703C201.388 186.237 200.224 187.011 198.924 186.612C197.977 186.22 197.125 185.631 196.424 184.884C195.148 183.745 193.772 182.455 191.952 182.446C189.273 182.432 187.388 184.93 184.722 185.217C183.845 185.306 182.96 185.248 182.102 185.048C181.913 185.648 181.729 186.229 181.552 186.799C183.608 187.33 185.788 187.084 187.675 186.11Z" fill="#F7FFFA"/>
<path d="M209.625 151.886C209.625 151.886 225.839 171.798 231.748 153.386C230.075 148.958 227.948 145.46 225.248 143.646C224.292 143.004 223.327 142.376 222.364 141.767L200.193 137.693C198.099 140.521 195.305 146.981 192.411 154.666C193.427 155.624 194.695 156.274 196.066 156.539C206.615 158.434 209.625 151.886 209.625 151.886Z" fill="#F7FFFA"/>
<path d="M209.57 140.297L207.405 148.018L212.515 148.839L214.268 140.487L209.57 140.297Z" fill="#EFA47D"/>
<path d="M221.263 154.949C217.532 164.834 210.315 182.537 202.796 179.99C202.796 179.99 203.381 173.959 199.491 173.958L197.464 188.12C197.464 188.12 217.037 200.505 230.127 160.82C230.642 159.257 231.14 154.927 228.947 153.534C228.409 152.978 227.743 152.563 227.006 152.327C226.27 152.091 225.486 152.04 224.725 152.18C223.965 152.321 223.25 152.647 222.646 153.13C222.042 153.613 221.567 154.238 221.263 154.949Z" fill="#FFC89E"/>
<path d="M266.607 128.393C269.713 120.726 266.535 112.203 259.507 109.356C252.48 106.508 244.265 110.414 241.159 118.08C238.052 125.746 241.231 134.269 248.258 137.117C255.285 139.965 263.5 136.059 266.607 128.393Z" fill="#FFC89E"/>
<path d="M264.067 127.155C262.235 131.675 257.392 133.979 253.248 132.3C249.104 130.621 247.231 125.595 249.061 121.076C250.891 116.557 255.736 114.253 259.88 115.931C264.024 117.609 265.898 122.635 264.067 127.155Z" fill="#EFA47D"/>
<path d="M182.671 92.9329C185.777 85.2666 182.598 76.7438 175.57 73.8965C168.543 71.0493 160.328 74.9558 157.222 82.622C154.116 90.2883 157.295 98.8111 164.322 101.658C171.35 104.506 179.564 100.599 182.671 92.9329Z" fill="#FFC89E"/>
<path d="M176.888 90.474C175.056 94.994 170.213 97.297 166.069 95.619C161.925 93.941 160.052 88.919 161.882 84.395C163.712 79.871 168.557 77.572 172.701 79.251C176.845 80.93 178.719 85.954 176.888 90.474Z" fill="#EFA47D"/>
<path d="M168.75 95.0287L175.515 78.3333C177.023 74.61 179.25 71.2203 182.068 68.3577C184.886 65.495 188.241 63.2156 191.94 61.6494C195.639 60.0833 199.61 59.2611 203.627 59.23C207.644 59.1988 211.628 59.9593 215.351 61.4678L241.001 71.8614C244.724 73.3698 248.113 75.5967 250.975 78.4149C253.837 81.2331 256.116 84.5874 257.681 88.2863C259.247 91.9852 260.069 95.9562 260.1 99.9727C260.131 103.989 259.37 107.972 257.862 111.695L251.095 128.394C248.049 135.913 242.141 141.913 234.67 145.075C227.2 148.237 218.779 148.302 211.26 145.256L185.611 134.862C178.093 131.816 172.093 125.908 168.931 118.438C165.769 110.967 165.704 102.547 168.75 95.0287Z" fill="#FFC89E"/>
<path d="M212.595 101.796L210.795 103.434C210.511 102.408 210.15 101.406 209.716 100.434C209.195 101.47 208.764 102.548 208.428 103.658" stroke="#4F0200" stroke-miterlimit="10"/>
<path d="M189.763 106.948C187.502 106.031 185.699 104.254 184.748 102.008C183.797 99.7618 183.777 97.2299 184.693 94.969L186.521 90.456C187.438 88.1957 189.215 86.392 191.461 85.4415C193.707 84.4909 196.239 84.4713 198.5 85.387C200.76 86.3034 202.564 88.08 203.515 90.3261C204.466 92.5723 204.486 95.1041 203.571 97.365L201.742 101.878C200.825 104.138 199.048 105.942 196.802 106.893C194.556 107.844 192.024 107.864 189.763 106.948Z" fill="#F7FFFA"/>
<path d="M203.57 97.364C204.06 96.1544 204.287 94.8541 204.234 93.5499C204.181 92.2458 203.85 90.968 203.264 89.802C202.686 89.2777 202.02 88.8587 201.298 88.564C197.145 86.88 192.098 89.664 190.019 94.792C187.94 99.92 189.627 105.433 193.781 107.116C194.154 107.263 194.54 107.376 194.933 107.453C196.444 107.168 197.859 106.508 199.049 105.533C200.238 104.559 201.164 103.302 201.742 101.877L203.57 97.364Z" fill="#2B2B2B"/>
<path d="M227.054 122.007C229.39 122.708 231.909 122.453 234.057 121.298C236.205 120.142 237.806 118.181 238.509 115.845L239.909 111.182C240.61 108.846 240.355 106.327 239.2 104.179C238.044 102.031 236.083 100.43 233.748 99.727C231.412 99.0258 228.893 99.2809 226.745 100.436C224.597 101.591 222.996 103.552 222.293 105.888L220.893 110.551C220.191 112.887 220.446 115.406 221.602 117.555C222.757 119.703 224.718 121.304 227.054 122.007Z" fill="#F7FFFA"/>
<path d="M222.297 105.891C222.672 104.641 223.311 103.487 224.169 102.504C225.027 101.52 226.085 100.732 227.272 100.191C228.051 100.143 228.832 100.233 229.58 100.456C233.873 101.745 236.063 107.082 234.472 112.376C232.881 117.67 228.111 120.917 223.82 119.626C223.437 119.507 223.066 119.354 222.711 119.168C221.711 117.999 221.021 116.598 220.704 115.093C220.387 113.588 220.453 112.028 220.896 110.555L222.297 105.891Z" fill="#2B2B2B"/>
<path d="M199.646 113.04C206.967 114.69 205.594 120.075 208.631 120.486C211.668 120.897 216.348 117.562 219.371 121.876C222.394 126.19 216.041 141.076 198.535 131.629C186.285 125.021 192.324 111.388 199.646 113.04Z" fill="#2B2B2B"/>
<path d="M219.474 127.758C217.638 126.525 215.622 125.586 213.498 124.972C206.31 122.89 199.104 124.715 195.008 129.092C196.062 130.094 197.249 130.948 198.534 131.63C210.721 138.204 217.497 132.99 219.474 127.758Z" fill="#FFAC9F"/>
<path d="M196.824 113.149C196.74 118.369 200.829 123.47 206.978 125.249C209.152 125.942 211.462 126.095 213.708 125.694C215.954 125.293 218.069 124.351 219.869 122.949C219.76 122.566 219.592 122.203 219.369 121.873C216.346 117.56 211.669 120.894 208.629 120.483C205.589 120.072 206.964 114.683 199.644 113.036C198.71 112.826 197.738 112.865 196.824 113.149Z" fill="#F7FFFA"/>
<path d="M218.68 121.059C218.518 120.891 218.345 120.735 218.161 120.591C217.475 121.137 216.725 121.597 215.927 121.961C215.908 121.928 215.895 121.893 215.872 121.861C215.751 121.677 215.585 121.527 215.389 121.427C215.173 121.317 214.931 121.266 214.689 121.281C214.46 121.296 214.239 121.37 214.047 121.496C213.827 121.643 213.657 121.855 213.563 122.103C213.534 122.146 213.502 122.188 213.475 122.231L213.462 122.25C213.455 122.264 213.447 122.278 213.441 122.292C213.395 122.403 213.355 122.516 213.323 122.632C213.323 122.648 213.317 122.663 213.315 122.679C213.313 122.695 213.315 122.739 213.309 122.77C211.288 123.134 209.205 122.933 207.291 122.188L207.327 122.135L207.435 121.829L207.458 121.504V121.496C207.451 121.443 207.441 121.39 207.427 121.338L207.396 121.181V121.174C207.396 121.167 207.259 120.892 207.255 120.886C207.221 120.841 207.185 120.799 207.147 120.758L207.047 120.637L206.779 120.453L206.621 120.397C206.599 120.387 206.577 120.397 206.555 120.384L206.507 120.366C206.455 120.342 206.4 120.324 206.343 120.312C206.233 120.298 206.122 120.293 206.01 120.288C205.984 120.286 205.958 120.286 205.932 120.288C205.832 120.305 205.718 120.329 205.615 120.351H205.595L205.554 120.364C205.541 120.364 205.529 120.375 205.516 120.381C205.416 120.426 205.316 120.473 205.224 120.523L205.206 120.534C205.099 120.607 204.998 120.69 204.906 120.782C204.885 120.801 204.865 120.822 204.848 120.844L204.826 120.874C203.477 119.942 202.304 118.778 201.359 117.438C201.375 117.423 201.389 117.406 201.402 117.389C201.424 117.36 201.442 117.329 201.463 117.3C201.495 117.256 201.527 117.21 201.558 117.166C201.589 117.122 201.638 117.056 201.67 116.997C201.681 116.978 201.683 116.956 201.693 116.936C201.78 116.813 201.842 116.675 201.875 116.528C201.913 116.377 201.911 116.219 201.868 116.069C201.852 115.919 201.797 115.775 201.708 115.653C201.598 115.483 201.446 115.346 201.267 115.253L201.096 115.193C201.079 115.182 201.065 115.167 201.047 115.157C200.927 115.058 200.783 114.993 200.629 114.968C200.574 114.961 200.499 114.958 200.457 114.956C200.4 114.948 200.343 114.944 200.286 114.945C200.176 114.954 200.067 114.975 199.961 115.009C199.661 114.348 199.408 113.667 199.204 112.97C198.95 112.934 198.694 112.916 198.437 112.916C198.637 113.817 198.919 114.697 199.279 115.547C199.255 115.584 199.226 115.617 199.205 115.652C199.175 115.711 199.152 115.772 199.135 115.836C199.108 115.897 199.088 115.961 199.074 116.026L199.051 116.348V116.356C199.064 116.465 199.085 116.572 199.113 116.678L199.204 116.865L199.261 117.156L199.391 117.422L199.583 117.647C199.692 117.754 199.828 117.83 199.976 117.868C200.069 117.915 200.172 117.936 200.276 117.93C200.365 117.947 200.457 117.941 200.544 117.915C201.575 119.474 202.918 120.802 204.488 121.815C204.488 121.847 204.482 121.87 204.482 121.904C204.496 122.124 204.567 122.336 204.688 122.52C204.809 122.703 204.975 122.853 205.171 122.953C205.375 123.056 205.603 123.103 205.832 123.089C206.051 123.074 206.263 123.003 206.446 122.882L206.469 122.866C206.531 122.892 206.588 122.925 206.652 122.95C208.814 123.831 211.184 124.069 213.478 123.638L213.509 123.7L213.517 123.713C213.524 123.727 213.533 123.74 213.543 123.752C213.662 123.932 213.826 124.078 214.019 124.175C214.212 124.272 214.427 124.315 214.643 124.302C214.855 124.288 215.059 124.22 215.237 124.103C215.414 123.987 215.558 123.826 215.655 123.637L215.793 123.418L215.86 123.312L215.895 123.256C215.905 123.236 215.914 123.216 215.921 123.195L215.912 123.222C215.918 123.213 215.918 123.202 215.923 123.192C215.956 123.116 215.984 123.038 216.007 122.959C216.013 122.933 216.029 122.91 216.033 122.885C216.039 122.863 216.051 122.844 216.056 122.822V122.816C217.015 122.367 217.9 121.775 218.68 121.059ZM201.814 116.602L201.714 116.877L201.703 116.894C201.747 116.797 201.785 116.699 201.815 116.602H201.814ZM215.709 122.055C215.666 121.968 215.609 121.889 215.54 121.821L215.728 122.04V122.046L215.709 122.055Z" fill="#A0A0A0"/>
<path d="M201.096 115.192L201.253 115.247C201.2 115.228 201.148 115.21 201.096 115.192Z" fill="#A0A0A0"/>
<path d="M188.481 113.455C187.181 116.666 182.704 117.882 178.481 116.172C174.258 114.462 171.896 110.472 173.197 107.263C174.498 104.054 178.973 102.835 183.197 104.545C187.421 106.255 189.782 110.244 188.481 113.455Z" fill="#FFB8A1"/>
<path d="M239.687 133.166C238.387 136.377 233.91 137.593 229.687 135.883C225.464 134.173 223.102 130.183 224.403 126.974C225.704 123.765 230.179 122.546 234.403 124.256C238.627 125.966 240.988 129.955 239.687 133.166Z" fill="#FFB8A1"/>
<path d="M249.887 48.567C207.837 22.367 165.359 48.092 167.6 72.66C167.6 72.66 179.979 75.734 182.488 76.975C187.861 79.633 196.004 64.506 199.965 64.202C199.965 64.202 192.133 75.768 193.455 76.169C194.062 76.353 205.997 82.2 218.711 88.462C221.45 83.682 229.566 69.52 228.97 70.662C228.354 71.84 223.713 86.286 222.43 90.298L231.53 94.788C234.294 90.653 242.514 78.482 242.049 80.73C241.649 82.683 237.49 91.74 235.217 96.61C243.467 100.687 249.64 103.743 249.64 103.743C249.64 103.743 256.474 87.099 256.688 89.568C256.902 92.037 256.309 106.026 255.471 109.068C255.471 109.068 267.771 111.678 267.92 122.298C267.922 122.288 291.936 74.768 249.887 48.567Z" fill="#2B2B2B"/>
<path d="M195.266 80.661C196.866 80.0617 198.596 79.9015 200.279 80.1969C201.961 80.4923 203.534 81.2326 204.834 82.341" fill="#2B2B2B"/>
<path d="M195.266 80.661C196.866 80.0617 198.596 79.9015 200.279 80.1969C201.961 80.4923 203.534 81.2326 204.834 82.341" stroke="#2B2B2B" stroke-miterlimit="10"/>
<path d="M232.541 94.63C233.354 94.4264 234.2 94.3862 235.029 94.5119C235.858 94.6375 236.654 94.9265 237.371 95.362C238.799 96.2413 240.076 97.344 241.154 98.628" fill="#2B2B2B"/>
<path d="M232.541 94.63C233.354 94.4264 234.2 94.3862 235.029 94.5119C235.858 94.6375 236.654 94.9265 237.371 95.362C238.799 96.2413 240.076 97.344 241.154 98.628" stroke="#2B2B2B" stroke-miterlimit="10"/>
<path d="M224.002 38.982C224.002 38.982 196.535 14.183 197.793 12.393C199.051 10.603 208.446 6.32301 208.446 6.32301L213.603 17.976L212.703 3.049L228.068 3.28101L226.479 14.296L234.852 0.656006C234.852 0.656006 246.796 0.992006 247.103 3.44701C247.41 5.90201 236.354 25.134 236.354 25.134L247.696 9.97201L251.816 12.721C251.816 12.721 239.591 39.321 237.352 40.186C235.113 41.051 224.002 38.982 224.002 38.982Z" fill="#2B2B2B"/>
<path d="M216.175 34.721C220.413 27.667 233.148 32.205 227.988 41.121C222.828 50.037 211.937 41.777 216.175 34.721Z" fill="#2B2B2B"/>
<path d="M224.73 35.097C228.211 38.115 224.417 44.372 219.536 40.469C214.655 36.566 222.118 32.834 224.73 35.097Z" fill="#2B2B2B"/>
<path d="M230.183 35.87C234.421 28.815 247.155 33.353 241.997 42.27C236.839 51.187 225.95 42.924 230.183 35.87Z" fill="#2B2B2B"/>
<path d="M239.427 35.27C242.05 37.544 239.191 42.259 235.514 39.318C231.837 36.377 237.459 33.564 239.427 35.27Z" fill="#2B2B2B"/>
<path d="M208.348 173.353C206.854 173.127 206.486 168.606 208.455 167.791C210.424 166.976 210.847 173.735 208.348 173.353Z" fill="#EFA47D"/>
<path d="M144.749 133.766C143.255 133.54 142.888 129.019 144.856 128.204C146.824 127.389 147.248 134.142 144.749 133.766Z" fill="#EFA47D"/>
<path d="M0.528884 188.56C-0.544116 187.76 23.9469 124.097 23.9469 124.097L213.174 136.83L194.634 198.27L0.528884 188.56Z" fill="#FAA29D"/>
<path d="M210.078 172.806C210.016 174.316 205.562 175.175 204.537 173.306C203.512 171.437 210.181 170.281 210.078 172.806Z" fill="#FFC89E"/>
<path d="M209.872 175.447C209.81 176.956 205.356 177.815 204.332 175.947C203.308 174.079 209.974 172.922 209.872 175.447Z" fill="#FFC89E"/>
<path d="M209.908 177.604C209.846 179.114 205.392 179.973 204.368 178.104C203.344 176.235 210.015 175.079 209.908 177.604Z" fill="#FFC89E"/>
<path d="M209.124 179.644C209.079 180.744 205.829 181.371 205.082 180.008C204.335 178.645 209.199 177.801 209.124 179.644Z" fill="#FFC89E"/>
<path d="M129.885 127.373C131.385 127.588 131.779 132.107 129.816 132.935C127.853 133.763 127.384 127.01 129.885 127.373Z" fill="#FFC89E"/>
<path d="M132.487 127.848C133.987 128.064 134.38 132.583 132.417 133.41C130.454 134.237 129.987 127.487 132.487 127.848Z" fill="#FFC89E"/>
<path d="M134.642 128.033C136.137 128.248 136.535 132.767 134.572 133.595C132.609 134.423 132.14 127.672 134.642 128.033Z" fill="#FFC89E"/>
<path d="M136.589 129.02C137.68 129.177 137.971 132.474 136.538 133.078C135.105 133.682 134.764 128.752 136.589 129.02Z" fill="#FFC89E"/>
</svg>
