<svg width="340" height="239" viewBox="0 0 340 239" fill="none" xmlns="http://www.w3.org/2000/svg">
<path d="M246.287 59.758C246.126 59.7584 245.968 59.7181 245.827 59.641C194.114 31.328 139.734 38.832 139.194 38.908C138.942 38.9446 138.686 38.8796 138.482 38.7273C138.278 38.575 138.143 38.348 138.106 38.096C138.069 37.844 138.134 37.5879 138.287 37.3838C138.439 37.1798 138.666 37.0446 138.918 37.008C139.468 36.931 194.481 29.338 246.749 57.955C246.937 58.0568 247.085 58.2184 247.17 58.4141C247.255 58.6098 247.273 58.8284 247.22 59.0352C247.167 59.242 247.046 59.4251 246.877 59.5555C246.708 59.6859 246.5 59.7561 246.287 59.755V59.758Z" fill="white"/>
<path d="M243.538 73.364C243.347 73.3637 243.16 73.3064 243.002 73.1995C242.843 73.0927 242.721 72.941 242.649 72.764C239.895 65.853 226.868 63.658 226.737 63.637C226.486 63.596 226.262 63.4572 226.113 63.2509C225.964 63.0447 225.903 62.788 225.944 62.537C225.962 62.412 226.006 62.2921 226.072 62.1842C226.137 62.0763 226.224 61.9827 226.327 61.9089C226.429 61.8351 226.546 61.7825 226.669 61.7544C226.792 61.7262 226.919 61.723 227.044 61.745C227.623 61.837 241.275 64.133 244.43 72.055C244.487 72.2004 244.508 72.3577 244.491 72.513C244.473 72.6684 244.419 72.8172 244.331 72.9466C244.243 73.076 244.125 73.1819 243.987 73.2554C243.849 73.3288 243.695 73.3675 243.539 73.368L243.538 73.364Z" fill="white"/>
<path d="M94.8179 233.052H94.7839C30.7839 230.721 0.955924 191.258 0.662924 190.861C0.520325 190.656 0.463327 190.403 0.504051 190.157C0.544776 189.911 0.680009 189.69 0.880995 189.542C1.08198 189.393 1.33286 189.329 1.58029 189.363C1.82772 189.397 2.05217 189.526 2.20593 189.723C2.49293 190.114 31.8179 228.841 94.8529 231.137C95.1026 231.148 95.338 231.256 95.5091 231.439C95.6801 231.621 95.7733 231.863 95.7687 232.113C95.7642 232.362 95.6622 232.601 95.4846 232.776C95.3071 232.952 95.0678 233.052 94.8179 233.054V233.052Z" fill="white"/>
<g opacity="0.53">
<path d="M166.64 60.09C165.701 58.9487 165.05 57.599 164.74 56.154C164.594 55.4303 164.641 54.681 164.876 53.9811C165.111 53.2812 165.525 52.6553 166.078 52.166C166.364 51.9392 166.692 51.7712 167.043 51.6715C167.394 51.5717 167.761 51.5424 168.123 51.585C168.486 51.6277 168.836 51.7415 169.154 51.92C169.473 52.0985 169.753 52.3381 169.978 52.625C170.284 53.1849 170.468 53.8031 170.518 54.439L171.366 60.118C172.513 57.8029 174.347 55.898 176.616 54.663C177.804 54.021 179.497 53.672 180.331 54.735C180.544 55.0509 180.672 55.4168 180.702 55.7968C180.731 56.1769 180.661 56.5581 180.499 56.903C180.165 57.5885 179.702 58.2028 179.135 58.712C177.421 60.4288 175.564 61.9977 173.586 63.402C174.944 63.715 176.177 64.4272 177.127 65.4469C178.077 66.4667 178.699 67.7473 178.915 69.124C179.02 69.6646 178.966 70.224 178.758 70.734C178.47 71.2011 178.03 71.5551 177.512 71.7371C176.994 71.919 176.429 71.918 175.912 71.734C174.884 71.3345 173.985 70.6616 173.312 69.788C172.346 68.7017 171.462 67.5448 170.668 66.327C170.416 67.4722 169.932 68.5535 169.245 69.5039C168.559 70.4542 167.684 71.2535 166.676 71.852C165.692 72.428 164.36 72.771 163.469 72.058C163.195 71.8023 162.982 71.4884 162.845 71.1396C162.709 70.7908 162.652 70.4157 162.679 70.042C162.708 67.805 164.364 65.967 165.92 64.359C164.641 64.212 163.355 64.548 162.068 64.512C160.781 64.476 159.341 63.899 158.962 62.669C158.842 62.1491 158.887 61.6047 159.09 61.1113C159.293 60.6179 159.645 60.1998 160.096 59.915C161.017 59.3637 162.096 59.137 163.161 59.271C164.536 59.3819 165.865 59.819 167.038 60.546" fill="#ADD6E5"/>
<path d="M108.496 222.487C106.739 221.642 105.017 220.708 103.309 219.733V223.089L103.37 223.122C104.258 223.606 105.149 224.053 106.041 224.484H113.341C111.689 223.912 110.071 223.245 108.496 222.487Z" fill="#ADD6E5"/>
<path d="M228.156 214.275C225.716 213.303 223.223 212.471 220.69 211.781C223.049 209.934 225.545 208.27 228.156 206.801V203.474C224.223 205.547 220.527 208.041 217.133 210.911C209.26 209.214 201.144 208.963 193.182 210.169C179.104 212.329 164.962 218.904 150.754 223.157C149.963 223.357 149.175 223.582 148.393 223.843C147.593 224.066 146.795 224.28 146 224.485H168.619C168.13 224.279 167.645 224.085 167.17 223.907C165.422 223.262 163.612 222.797 161.77 222.521C169.044 219.945 176.27 217.221 183.716 215.201C193.694 212.352 204.174 211.721 214.422 213.352C210.954 216.737 208.404 220.671 205.61 224.486H209.01C210.195 222.638 211.492 220.865 212.895 219.177C214.472 217.362 216.166 215.651 217.965 214.056C220.455 214.627 222.909 215.348 225.313 216.215C226.271 216.562 227.213 216.937 228.157 217.327L228.156 214.275Z" fill="#ADD6E5"/>
<path d="M74.2899 85.033C73.6609 81.624 74.1629 77.833 76.4249 75.207C78.6869 72.581 82.9519 71.593 85.7569 73.63C85.5429 67.641 90.472 62.393 96.146 60.467C98.6681 59.4774 101.458 59.4091 104.026 60.274C106.334 61.3128 108.201 63.1336 109.298 65.415C110.376 67.6807 111.179 70.0674 111.69 72.524C113.58 69.756 117.527 69.512 120.868 69.8C122.768 69.964 124.837 70.3 126.111 71.717C126.763 72.5233 127.21 73.4765 127.411 74.494C128.175 77.6257 127.917 80.9197 126.674 83.894C129.274 83.069 131.974 84.853 133.813 86.866C135.946 89.198 137.649 92.231 137.3 95.372C136.846 99.443 132.785 102.537 128.689 102.614C124.593 102.691 120.737 100.208 118.389 96.853C118.011 101.453 113.802 104.809 109.552 106.614C107.494 107.537 105.298 108.112 103.052 108.314C99.7084 108.468 96.4054 107.531 93.64 105.646C90.8747 103.76 88.7967 101.027 87.719 97.858C86.7222 99.1447 85.4389 100.181 83.9711 100.884C82.5033 101.588 80.8916 101.939 79.2642 101.91C77.6369 101.881 76.0388 101.472 74.5971 100.717C73.1555 99.9612 71.91 98.8796 70.9599 97.558C70.2256 96.596 69.7157 95.482 69.4674 94.2975C69.2191 93.113 69.2387 91.888 69.5249 90.712C69.8471 89.5451 70.5388 88.514 71.4962 87.7732C72.4537 87.0324 73.6255 86.6219 74.836 86.603" fill="#ADD6E5"/>
</g>
<path d="M228.112 175.582C228.112 175.582 220.03 227.282 221.902 226.832C223.774 226.382 238.447 229.979 236.815 229.21C235.183 228.441 228.541 219.104 228.541 219.104L241.293 181.462L228.112 175.582Z" fill="#FDC59D"/>
<path d="M228.541 219.105L230.48 213.384C227.911 213.305 225.349 213.085 222.805 212.723C221.805 220.823 221.25 226.988 221.905 226.833C222.581 226.774 223.263 226.807 223.93 226.933L232.724 224.721C230.61 222.012 228.541 219.105 228.541 219.105Z" fill="#FFB3DB"/>
<path d="M223.576 206.732L232.333 207.913L236.312 196.169V196.156L225.619 192.181C224.939 196.821 224.217 201.913 223.576 206.732Z" fill="#EFA47D"/>
<path d="M227.348 220.091C227.348 220.091 226.923 216.191 228.983 216.372C231.043 216.553 235.423 218.058 234.719 219.33C233.956 220.418 233.034 221.386 231.984 222.2C231.984 222.2 240.984 228.695 239.263 230.547C238.188 231.706 218.656 227.933 218.705 226.528C218.754 225.123 220.605 218.389 221.698 218.56C222.791 218.731 224.782 220.609 224.782 220.609L227.348 220.091Z" fill="#ADD6E5"/>
<path d="M238.961 228.627C232.137 228.441 225.413 226.942 219.156 224.212C218.942 224.97 218.793 225.745 218.708 226.528C218.659 227.933 238.191 231.706 239.266 230.547C239.667 230.114 239.478 229.426 238.961 228.627Z" fill="#ADD6E5"/>
<path d="M234.48 223.056C234.48 223.056 233.727 221.701 232.694 221.603C231.661 221.505 229.405 222.628 230.208 223.99C231.011 225.352 233.95 224.326 234.48 223.056Z" fill="#ADD6E5"/>
<path d="M237.139 225.22C237.139 225.22 236.386 223.865 235.352 223.768C234.318 223.671 232.063 224.793 232.866 226.155C233.669 227.517 236.609 226.491 237.139 225.22Z" fill="#ADD6E5"/>
<path d="M213.35 173.45L208.55 217.376C208.55 217.376 199.044 218.017 199.461 220.102C199.878 222.187 214.002 223.402 214.002 223.402L226.145 176.061L213.35 173.45Z" fill="#FDC59D"/>
<path d="M213.998 223.398L216.953 211.878C214.034 211.42 211.298 210.944 209.29 210.578L208.546 217.37C206.67 217.507 204.803 217.76 202.958 218.127L206.143 222.287L206.796 222.512C210.408 223.089 213.998 223.398 213.998 223.398Z" fill="#FFB3DB"/>
<path d="M221.929 192.478L211.103 194L210.126 202.932L218.626 205.364L221.929 192.478Z" fill="#EFA47D"/>
<path d="M210.217 216.055C210.217 216.055 212.561 213.393 210.607 212.715C208.653 212.037 204.665 211.886 204.787 213.337C204.909 214.788 205.126 216.085 205.126 216.085C205.126 216.085 194.998 219.9 195.81 222.293C196.317 223.793 214.944 226.766 215.474 225.464C216.004 224.162 217.074 217.264 215.999 216.964C214.924 216.664 212.348 217.573 212.348 217.573L210.217 216.055Z" fill="#ADD6E5"/>
<path d="M215.916 223.699C210.649 224.299 200.834 222.299 196.075 221.21C195.948 221.357 195.858 221.531 195.812 221.719C195.766 221.907 195.765 222.104 195.81 222.292C196.317 223.792 214.944 226.764 215.474 225.463C215.668 224.888 215.816 224.298 215.916 223.699Z" fill="#ADD6E5"/>
<path d="M202.67 215.961C202.67 215.961 203.77 214.873 204.792 215.068C205.814 215.263 207.661 216.975 206.51 218.056C205.359 219.137 202.822 217.331 202.67 215.961Z" fill="#ADD6E5"/>
<path d="M199.509 217.293C199.509 217.293 200.609 216.205 201.632 216.4C202.655 216.595 204.501 218.307 203.348 219.388C202.195 220.469 199.662 218.662 199.509 217.293Z" fill="#ADD6E5"/>
<path d="M197.232 197.627C197.232 197.627 214.472 139.374 220.62 136.28C226.768 133.186 235.752 137.939 244.245 143.642C257.672 152.66 256.881 203.249 256.881 203.249L197.232 197.627Z" fill="#ADD6E5"/>
<path d="M256.743 193.378C255.759 192.885 254.721 192.507 253.651 192.25C250.925 191.625 249.023 192.708 246.622 193.782C245.991 194.097 245.29 194.244 244.586 194.209C243.882 194.174 243.199 193.958 242.603 193.582C241.542 192.841 240.402 192.222 239.203 191.736C237.163 191.122 235.168 192 233.309 192.776C232.232 193.334 231.034 193.618 229.822 193.6C228.494 193.346 227.229 192.836 226.095 192.1C224.249 191.128 222.344 190.405 220.323 191.337C219.267 191.825 218.323 192.673 217.148 192.882C216.608 192.932 216.064 192.874 215.547 192.712C215.03 192.549 214.55 192.285 214.136 191.936C212.474 190.783 211.103 189.226 209.262 188.331C206.832 187.15 204.715 188.068 202.426 189.107C201.538 189.508 200.584 189.745 199.612 189.807C199.43 190.395 199.255 190.96 199.091 191.493C201.418 191.487 203.165 190.267 205.379 189.543C209.899 188.064 212.143 194.225 216.367 194.516C218.956 194.696 220.43 191.736 222.904 192.075C225.278 192.4 227.063 194.426 229.452 194.798C231.652 195.14 233.589 193.978 235.552 193.21C236.13 192.926 236.762 192.768 237.406 192.746C238.05 192.724 238.691 192.839 239.287 193.083C240.512 193.634 241.493 194.61 242.7 195.201C245.392 196.521 247.367 194.801 249.837 193.917C252.537 192.952 254.665 194.194 256.801 195.498C256.788 194.824 256.769 194.117 256.743 193.378Z" fill="#F7FFFA"/>
<path d="M206.675 186.11C207.716 185.374 208.794 184.691 209.905 184.064C210.485 183.873 211.107 183.85 211.699 183.998C212.291 184.146 212.829 184.458 213.252 184.899C214.686 186.047 215.933 187.672 217.808 188.11C220.356 188.704 221.923 186.051 224.317 186.265C226.604 186.465 228.278 188.776 230.708 188.479C233.062 188.19 234.408 185.091 236.969 186.269C238.856 187.136 240.199 188.958 242.255 189.516C243.39 189.77 244.577 189.641 245.632 189.149C247.049 188.472 248.558 188.006 250.11 187.765C252.288 187.667 254.466 187.972 256.534 188.665C256.506 188.142 256.476 187.611 256.444 187.072C252.826 186.149 249.008 186.404 245.544 187.798C244.973 188.114 244.34 188.299 243.689 188.339C243.038 188.38 242.386 188.275 241.781 188.032C240.702 187.464 239.67 186.811 238.694 186.081C237.274 185.181 235.657 184.597 234.025 185.306C233.041 185.734 232.294 186.596 231.289 186.977C229.838 187.527 228.489 186.722 227.224 186.093C225.256 185.12 223.569 184.74 221.524 185.703C220.388 186.237 219.224 187.011 217.924 186.612C216.977 186.22 216.125 185.631 215.424 184.884C214.148 183.745 212.772 182.455 210.952 182.446C208.273 182.432 206.388 184.93 203.722 185.217C202.845 185.306 201.96 185.248 201.102 185.048C200.913 185.648 200.729 186.229 200.552 186.799C202.608 187.33 204.788 187.084 206.675 186.11Z" fill="#F7FFFA"/>
<path d="M228.625 151.886C228.625 151.886 244.839 171.798 250.748 153.386C249.075 148.958 246.948 145.46 244.248 143.646C243.292 143.004 242.327 142.376 241.364 141.767L219.193 137.693C217.099 140.521 214.305 146.981 211.411 154.666C212.427 155.624 213.695 156.274 215.066 156.539C225.615 158.434 228.625 151.886 228.625 151.886Z" fill="#F7FFFA"/>
<path d="M228.57 140.297L226.405 148.018L231.515 148.839L233.268 140.487L228.57 140.297Z" fill="#EFA47D"/>
<path d="M240.263 154.949C236.532 164.834 229.315 182.537 221.796 179.99C221.796 179.99 222.381 173.959 218.491 173.958L216.464 188.12C216.464 188.12 236.037 200.505 249.127 160.82C249.642 159.257 250.14 154.927 247.947 153.534C247.409 152.978 246.743 152.563 246.006 152.327C245.27 152.091 244.486 152.04 243.725 152.18C242.965 152.321 242.25 152.647 241.646 153.13C241.042 153.613 240.567 154.238 240.263 154.949Z" fill="#FFC89E"/>
<path d="M285.607 128.393C288.713 120.726 285.535 112.203 278.507 109.356C271.48 106.508 263.265 110.414 260.159 118.08C257.052 125.746 260.231 134.269 267.258 137.117C274.285 139.965 282.5 136.059 285.607 128.393Z" fill="#FFC89E"/>
<path d="M283.067 127.155C281.235 131.675 276.392 133.979 272.248 132.3C268.104 130.621 266.231 125.595 268.061 121.076C269.891 116.557 274.736 114.253 278.88 115.931C283.024 117.609 284.898 122.635 283.067 127.155Z" fill="#EFA47D"/>
<path d="M201.671 92.9329C204.777 85.2666 201.598 76.7438 194.57 73.8965C187.543 71.0493 179.328 74.9558 176.222 82.622C173.116 90.2883 176.295 98.8111 183.322 101.658C190.35 104.506 198.564 100.599 201.671 92.9329Z" fill="#FFC89E"/>
<path d="M195.888 90.474C194.056 94.994 189.213 97.297 185.069 95.619C180.925 93.941 179.052 88.919 180.882 84.395C182.712 79.871 187.557 77.572 191.701 79.251C195.845 80.93 197.719 85.954 195.888 90.474Z" fill="#EFA47D"/>
<path d="M187.75 95.0287L194.515 78.3333C196.023 74.61 198.25 71.2203 201.068 68.3577C203.886 65.495 207.241 63.2155 210.94 61.6494C214.639 60.0833 218.61 59.2611 222.627 59.23C226.644 59.1988 230.628 59.9593 234.351 61.4678L260.001 71.8614C263.724 73.3698 267.113 75.5967 269.975 78.4149C272.837 81.2331 275.116 84.5874 276.681 88.2863C278.247 91.9852 279.069 95.9562 279.1 99.9727C279.131 103.989 278.37 107.972 276.862 111.695L270.095 128.394C267.049 135.913 261.141 141.913 253.67 145.075C246.2 148.237 237.779 148.302 230.26 145.256L204.611 134.862C197.093 131.816 191.093 125.908 187.931 118.438C184.769 110.967 184.704 102.547 187.75 95.0287Z" fill="#FFC89E"/>
<path d="M231.595 101.796L229.795 103.434C229.511 102.408 229.15 101.406 228.716 100.434C228.195 101.47 227.764 102.548 227.428 103.658" stroke="#4F0200" stroke-miterlimit="10"/>
<path d="M208.763 106.948C206.502 106.031 204.699 104.254 203.748 102.008C202.797 99.7618 202.777 97.2299 203.693 94.969L205.521 90.456C206.438 88.1957 208.215 86.392 210.461 85.4415C212.707 84.4909 215.239 84.4713 217.5 85.387C219.76 86.3034 221.564 88.08 222.515 90.3261C223.466 92.5723 223.486 95.1041 222.571 97.365L220.742 101.878C219.825 104.138 218.048 105.942 215.802 106.893C213.556 107.844 211.024 107.864 208.763 106.948Z" fill="#F7FFFA"/>
<path d="M222.57 97.364C223.06 96.1544 223.287 94.8541 223.234 93.5499C223.181 92.2458 222.85 90.968 222.264 89.802C221.686 89.2777 221.02 88.8587 220.298 88.564C216.145 86.88 211.098 89.664 209.019 94.792C206.94 99.92 208.627 105.433 212.781 107.116C213.154 107.263 213.54 107.376 213.933 107.453C215.444 107.168 216.859 106.508 218.049 105.533C219.238 104.559 220.164 103.302 220.742 101.877L222.57 97.364Z" fill="#2B2B2B"/>
<path d="M246.054 122.007C248.39 122.708 250.909 122.453 253.057 121.298C255.205 120.142 256.806 118.181 257.509 115.845L258.909 111.182C259.61 108.846 259.355 106.327 258.2 104.179C257.044 102.031 255.083 100.43 252.748 99.727C250.412 99.0258 247.893 99.2809 245.745 100.436C243.597 101.591 241.996 103.552 241.293 105.888L239.893 110.551C239.191 112.887 239.446 115.406 240.602 117.555C241.757 119.703 243.718 121.304 246.054 122.007Z" fill="#F7FFFA"/>
<path d="M241.297 105.891C241.672 104.641 242.311 103.487 243.169 102.504C244.027 101.52 245.085 100.732 246.272 100.191C247.051 100.143 247.832 100.233 248.58 100.456C252.873 101.745 255.063 107.082 253.472 112.376C251.881 117.67 247.111 120.917 242.82 119.626C242.437 119.507 242.066 119.354 241.711 119.168C240.711 117.999 240.021 116.598 239.704 115.093C239.387 113.588 239.453 112.028 239.896 110.555L241.297 105.891Z" fill="#2B2B2B"/>
<path d="M218.646 113.04C225.967 114.69 224.594 120.075 227.631 120.486C230.668 120.897 235.348 117.562 238.371 121.876C241.394 126.19 235.041 141.076 217.535 131.629C205.285 125.021 211.324 111.388 218.646 113.04Z" fill="#2B2B2B"/>
<path d="M238.474 127.758C236.638 126.525 234.622 125.586 232.498 124.972C225.31 122.89 218.104 124.715 214.008 129.092C215.062 130.094 216.249 130.948 217.534 131.63C229.721 138.204 236.497 132.99 238.474 127.758Z" fill="#FFAC9F"/>
<path d="M215.824 113.149C215.74 118.369 219.829 123.47 225.978 125.249C228.152 125.942 230.462 126.095 232.708 125.694C234.954 125.293 237.069 124.351 238.869 122.949C238.76 122.566 238.592 122.203 238.369 121.873C235.346 117.56 230.669 120.894 227.629 120.483C224.589 120.072 225.964 114.683 218.644 113.036C217.71 112.826 216.738 112.865 215.824 113.149Z" fill="#F7FFFA"/>
<path d="M237.68 121.059C237.518 120.891 237.345 120.735 237.161 120.591C236.475 121.137 235.725 121.597 234.927 121.961C234.908 121.928 234.895 121.893 234.872 121.861C234.751 121.677 234.585 121.527 234.389 121.427C234.173 121.317 233.931 121.266 233.689 121.281C233.46 121.296 233.239 121.37 233.047 121.496C232.827 121.643 232.657 121.855 232.563 122.103C232.534 122.146 232.502 122.188 232.475 122.231L232.462 122.25C232.455 122.264 232.447 122.278 232.441 122.292C232.395 122.403 232.355 122.516 232.323 122.632C232.323 122.648 232.317 122.663 232.315 122.679C232.313 122.695 232.315 122.739 232.309 122.77C230.288 123.134 228.205 122.933 226.291 122.188L226.327 122.135L226.435 121.829L226.458 121.504V121.496C226.451 121.443 226.441 121.39 226.427 121.338L226.396 121.181V121.174C226.396 121.167 226.259 120.892 226.255 120.886C226.221 120.841 226.185 120.799 226.147 120.758L226.047 120.637L225.779 120.453L225.621 120.397C225.599 120.387 225.577 120.397 225.555 120.384L225.507 120.366C225.455 120.342 225.4 120.324 225.343 120.312C225.233 120.298 225.122 120.293 225.01 120.288C224.984 120.286 224.958 120.286 224.932 120.288C224.832 120.305 224.718 120.329 224.615 120.351H224.595L224.554 120.364C224.541 120.364 224.529 120.375 224.516 120.381C224.416 120.426 224.316 120.473 224.224 120.523L224.206 120.534C224.099 120.607 223.998 120.69 223.906 120.782C223.885 120.801 223.865 120.822 223.848 120.844L223.826 120.874C222.477 119.942 221.304 118.778 220.359 117.438C220.375 117.423 220.389 117.406 220.402 117.389C220.424 117.36 220.442 117.329 220.463 117.3C220.495 117.256 220.527 117.21 220.558 117.166C220.589 117.122 220.638 117.056 220.67 116.997C220.681 116.978 220.683 116.956 220.693 116.936C220.78 116.813 220.842 116.675 220.875 116.528C220.913 116.377 220.911 116.219 220.868 116.069C220.852 115.919 220.797 115.775 220.708 115.653C220.598 115.483 220.446 115.346 220.267 115.253L220.096 115.193C220.079 115.182 220.065 115.167 220.047 115.157C219.927 115.058 219.783 114.993 219.629 114.968C219.574 114.961 219.499 114.958 219.457 114.956C219.4 114.948 219.343 114.944 219.286 114.945C219.176 114.954 219.067 114.975 218.961 115.009C218.661 114.348 218.408 113.667 218.204 112.97C217.95 112.934 217.694 112.916 217.437 112.916C217.637 113.817 217.919 114.697 218.279 115.547C218.255 115.584 218.226 115.617 218.205 115.652C218.175 115.711 218.152 115.772 218.135 115.836C218.108 115.897 218.088 115.961 218.074 116.026L218.051 116.348V116.356C218.064 116.465 218.085 116.572 218.113 116.678L218.204 116.865L218.261 117.156L218.391 117.422L218.583 117.647C218.692 117.754 218.828 117.83 218.976 117.868C219.069 117.915 219.172 117.936 219.276 117.93C219.365 117.947 219.457 117.941 219.544 117.915C220.575 119.474 221.918 120.802 223.488 121.815C223.488 121.847 223.482 121.87 223.482 121.904C223.496 122.124 223.567 122.336 223.688 122.52C223.809 122.703 223.975 122.853 224.171 122.953C224.375 123.056 224.603 123.103 224.832 123.089C225.051 123.074 225.263 123.003 225.446 122.882L225.469 122.866C225.531 122.892 225.588 122.925 225.652 122.95C227.814 123.831 230.184 124.069 232.478 123.638L232.509 123.7L232.517 123.713C232.524 123.727 232.533 123.74 232.543 123.752C232.662 123.932 232.826 124.078 233.019 124.175C233.212 124.272 233.427 124.315 233.643 124.302C233.855 124.288 234.059 124.22 234.237 124.103C234.414 123.987 234.558 123.826 234.655 123.637L234.793 123.418L234.86 123.312L234.895 123.256C234.905 123.236 234.914 123.216 234.921 123.195L234.912 123.222C234.918 123.213 234.918 123.202 234.923 123.192C234.956 123.116 234.984 123.038 235.007 122.959C235.013 122.933 235.029 122.91 235.033 122.885C235.039 122.863 235.051 122.844 235.056 122.822V122.816C236.015 122.367 236.9 121.775 237.68 121.059ZM220.814 116.602L220.714 116.877L220.703 116.894C220.747 116.797 220.785 116.699 220.815 116.602H220.814ZM234.709 122.055C234.666 121.968 234.609 121.889 234.54 121.821L234.728 122.04V122.046L234.709 122.055Z" fill="#A0A0A0"/>
<path d="M220.096 115.192L220.253 115.247C220.2 115.228 220.148 115.21 220.096 115.192Z" fill="#A0A0A0"/>
<path d="M207.481 113.455C206.181 116.666 201.704 117.882 197.481 116.172C193.258 114.462 190.896 110.472 192.197 107.263C193.498 104.054 197.973 102.835 202.197 104.545C206.421 106.255 208.782 110.244 207.481 113.455Z" fill="#FFB8A1"/>
<path d="M258.687 133.166C257.387 136.377 252.91 137.593 248.687 135.883C244.464 134.173 242.102 130.183 243.403 126.974C244.704 123.765 249.179 122.546 253.403 124.256C257.627 125.966 259.988 129.955 258.687 133.166Z" fill="#FFB8A1"/>
<path d="M268.887 48.567C226.837 22.367 184.359 48.092 186.6 72.66C186.6 72.66 198.979 75.734 201.488 76.975C206.861 79.633 215.004 64.506 218.965 64.202C218.965 64.202 211.133 75.768 212.455 76.169C213.062 76.353 224.997 82.2 237.711 88.462C240.45 83.682 248.566 69.52 247.97 70.662C247.354 71.84 242.713 86.286 241.43 90.298L250.53 94.788C253.294 90.653 261.514 78.482 261.049 80.73C260.649 82.683 256.49 91.74 254.217 96.61C262.467 100.687 268.64 103.743 268.64 103.743C268.64 103.743 275.474 87.099 275.688 89.568C275.902 92.037 275.309 106.026 274.471 109.068C274.471 109.068 286.771 111.678 286.92 122.298C286.922 122.288 310.936 74.768 268.887 48.567Z" fill="#2B2B2B"/>
<path d="M214.266 80.661C215.866 80.0617 217.596 79.9015 219.279 80.1969C220.961 80.4923 222.534 81.2326 223.834 82.341" fill="#2B2B2B"/>
<path d="M214.266 80.661C215.866 80.0617 217.596 79.9015 219.279 80.1969C220.961 80.4923 222.534 81.2326 223.834 82.341" stroke="#2B2B2B" stroke-miterlimit="10"/>
<path d="M251.541 94.63C252.354 94.4264 253.2 94.3862 254.029 94.5119C254.858 94.6375 255.654 94.9265 256.371 95.362C257.799 96.2413 259.076 97.344 260.154 98.628" fill="#2B2B2B"/>
<path d="M251.541 94.63C252.354 94.4264 253.2 94.3862 254.029 94.5119C254.858 94.6375 255.654 94.9265 256.371 95.362C257.799 96.2413 259.076 97.344 260.154 98.628" stroke="#2B2B2B" stroke-miterlimit="10"/>
<path d="M243.002 38.982C243.002 38.982 215.535 14.183 216.793 12.393C218.051 10.603 227.446 6.32301 227.446 6.32301L232.603 17.976L231.703 3.049L247.068 3.28101L245.479 14.296L253.852 0.656006C253.852 0.656006 265.796 0.992006 266.103 3.44701C266.41 5.90201 255.354 25.134 255.354 25.134L266.696 9.97201L270.816 12.721C270.816 12.721 258.591 39.321 256.352 40.186C254.113 41.051 243.002 38.982 243.002 38.982Z" fill="#2B2B2B"/>
<path d="M235.175 34.721C239.413 27.667 252.148 32.205 246.988 41.121C241.828 50.037 230.937 41.777 235.175 34.721Z" fill="#2B2B2B"/>
<path d="M243.73 35.097C247.211 38.115 243.417 44.372 238.536 40.469C233.655 36.566 241.118 32.834 243.73 35.097Z" fill="#2B2B2B"/>
<path d="M249.183 35.87C253.421 28.815 266.155 33.353 260.997 42.27C255.839 51.187 244.95 42.924 249.183 35.87Z" fill="#2B2B2B"/>
<path d="M258.427 35.27C261.05 37.544 258.191 42.259 254.514 39.318C250.837 36.377 256.459 33.564 258.427 35.27Z" fill="#2B2B2B"/>
<path d="M227.348 173.353C225.854 173.127 225.486 168.606 227.455 167.791C229.424 166.976 229.847 173.735 227.348 173.353Z" fill="#EFA47D"/>
<path d="M163.749 133.766C162.255 133.54 161.888 129.019 163.856 128.204C165.824 127.389 166.248 134.142 163.749 133.766Z" fill="#EFA47D"/>
<path d="M19.5289 188.56C18.4559 187.76 42.9469 124.097 42.9469 124.097L232.174 136.83L213.634 198.27L19.5289 188.56Z" fill="#FAA29D"/>
<path d="M229.078 172.806C229.016 174.316 224.562 175.175 223.537 173.306C222.512 171.437 229.181 170.281 229.078 172.806Z" fill="#FFC89E"/>
<path d="M228.872 175.447C228.81 176.956 224.356 177.815 223.332 175.947C222.308 174.079 228.974 172.922 228.872 175.447Z" fill="#FFC89E"/>
<path d="M228.908 177.604C228.846 179.114 224.392 179.973 223.368 178.104C222.344 176.235 229.015 175.079 228.908 177.604Z" fill="#FFC89E"/>
<path d="M228.124 179.644C228.079 180.744 224.829 181.371 224.082 180.008C223.335 178.645 228.199 177.801 228.124 179.644Z" fill="#FFC89E"/>
<path d="M148.885 127.373C150.385 127.588 150.779 132.107 148.816 132.935C146.853 133.763 146.384 127.01 148.885 127.373Z" fill="#FFC89E"/>
<path d="M151.487 127.848C152.987 128.064 153.38 132.583 151.417 133.41C149.454 134.237 148.987 127.487 151.487 127.848Z" fill="#FFC89E"/>
<path d="M153.642 128.033C155.137 128.248 155.535 132.767 153.572 133.595C151.609 134.423 151.14 127.672 153.642 128.033Z" fill="#FFC89E"/>
<path d="M155.589 129.02C156.68 129.177 156.971 132.474 155.538 133.078C154.105 133.682 153.764 128.752 155.589 129.02Z" fill="#FFC89E"/>
<path d="M112.1 227.7C111.423 223.607 111.307 219.225 113.138 215.5C115.543 210.609 120.995 207.748 126.419 207.208C127.548 207.064 128.692 207.103 129.808 207.326C130.727 207.561 131.609 207.921 132.429 208.397C136.048 210.321 138.907 213.414 140.54 217.173C141.332 219.049 141.709 221.073 141.645 223.108C141.58 225.144 141.076 227.14 140.166 228.962C139.264 230.569 138.127 232.033 136.794 233.306C135.683 234.465 134.426 235.474 133.053 236.306C131.235 237.308 129.212 237.88 127.138 237.98C125.065 238.08 122.996 237.705 121.09 236.883C117.095 235.177 113.876 232.05 112.053 228.107" fill="white"/>
<path d="M112.1 227.7C111.423 223.607 111.307 219.225 113.138 215.5C115.543 210.609 120.995 207.748 126.419 207.208C127.548 207.064 128.692 207.103 129.808 207.326C130.727 207.561 131.609 207.921 132.429 208.397C136.048 210.321 138.907 213.414 140.54 217.173C141.332 219.049 141.709 221.073 141.645 223.108C141.58 225.144 141.076 227.14 140.166 228.962C139.264 230.569 138.127 232.033 136.794 233.306C135.683 234.465 134.426 235.474 133.053 236.306C131.235 237.308 129.212 237.88 127.138 237.98C125.065 238.08 122.996 237.705 121.09 236.883C117.095 235.177 113.876 232.05 112.053 228.107" stroke="#FFB400" stroke-width="0.5" stroke-miterlimit="10"/>
<path d="M267.802 195.323C267.104 194.223 266.653 192.986 266.481 191.695C264.765 183.56 264.414 175.196 265.444 166.946C265.702 164.669 266.236 162.432 267.035 160.285C267.614 158.627 268.643 157.164 270.008 156.059C270.696 155.518 271.517 155.173 272.385 155.058C273.253 154.944 274.136 155.066 274.941 155.41C275.425 155.633 275.828 156.001 276.095 156.463C276.284 156.877 276.398 157.322 276.432 157.777L277.378 164.859C278.458 163.215 279.807 161.764 281.369 160.567C282.654 159.715 284.137 159.211 285.675 159.103C287.212 158.996 288.752 159.288 290.143 159.952C291.057 160.345 291.817 161.029 292.304 161.898C292.764 163.126 292.748 164.482 292.258 165.698C291.158 169.279 288.983 172.421 286.77 175.444C281.345 182.853 275.421 190.023 268.093 195.557" fill="white"/>
<path d="M267.802 195.323C267.104 194.223 266.653 192.986 266.481 191.695C264.765 183.56 264.414 175.196 265.444 166.946C265.702 164.669 266.236 162.432 267.035 160.285C267.614 158.627 268.643 157.164 270.008 156.059C270.696 155.518 271.517 155.173 272.385 155.058C273.253 154.944 274.136 155.066 274.941 155.41C275.425 155.633 275.828 156.001 276.095 156.463C276.284 156.877 276.398 157.322 276.432 157.777L277.378 164.859C278.458 163.215 279.807 161.764 281.369 160.567C282.654 159.715 284.137 159.211 285.675 159.103C287.212 158.996 288.752 159.288 290.143 159.952C291.057 160.345 291.817 161.029 292.304 161.898C292.764 163.126 292.748 164.482 292.258 165.698C291.158 169.279 288.983 172.421 286.77 175.444C281.345 182.853 275.421 190.023 268.093 195.557" stroke="#FF4B42" stroke-width="0.5" stroke-miterlimit="10"/>
<g filter="url(#filter0_d_4_8894)">
<path d="M29.486 68.673C22.636 71.537 26.955 79.594 32.15 79.264C32.928 79.215 33.81 79.196 34.738 79.164C34.688 79.443 36.338 79.25 36.428 79.096C39.809 78.91 43.316 78.324 44.371 75.637C48.179 65.944 35.126 66.315 29.486 68.673Z" fill="#ADD6E5"/>
</g>
<defs>
<filter id="filter0_d_4_8894" x="20.9482" y="62.2736" width="29.1079" height="22.0322" filterUnits="userSpaceOnUse" color-interpolation-filters="sRGB">
<feFlood flood-opacity="0" result="BackgroundImageFix"/>
<feColorMatrix in="SourceAlpha" type="matrix" values="0 0 0 0 0 0 0 0 0 0 0 0 0 0 0 0 0 0 127 0" result="hardAlpha"/>
<feOffset/>
<feGaussianBlur stdDeviation="2.5"/>
<feColorMatrix type="matrix" values="0 0 0 0 0.666667 0 0 0 0 0.301961 0 0 0 0 0.72549 0 0 0 0.102 0"/>
<feBlend mode="normal" in2="BackgroundImageFix" result="effect1_dropShadow_4_8894"/>
<feBlend mode="normal" in="SourceGraphic" in2="effect1_dropShadow_4_8894" result="shape"/>
</filter>
</defs>
</svg>
