<svg width="83" height="80" viewBox="0 0 83 80" fill="none" xmlns="http://www.w3.org/2000/svg">
<path d="M29.7263 32.316C26.3953 27.85 23.4153 22.916 22.5263 17.416C21.6373 11.916 23.1953 5.74503 27.5903 2.31603C31.9853 -1.11297 39.3203 -0.626967 42.3333 4.06203C43.6333 6.08703 44.0203 8.54903 44.3773 10.93C45.444 18.096 46.5143 25.2627 47.5883 32.43C51.9299 23.6664 58.869 16.4552 67.4593 11.78C71.9593 9.34803 78.3663 8.03003 81.5203 12.054C83.2953 14.318 83.2653 17.605 82.1573 20.261C80.8942 22.8557 79.1406 25.1812 76.9933 27.109C70.5054 33.6078 63.4805 39.5472 55.9933 44.864C61.1335 46.049 65.8015 48.7451 69.3964 52.6055C72.9914 56.4658 75.3488 61.3136 76.1653 66.525C76.5611 68.5712 76.3527 70.6884 75.5653 72.618C73.7733 76.362 68.7653 77.629 64.7913 76.418C60.8173 75.207 57.7123 72.152 54.9533 69.051C51.2966 64.9392 47.9516 60.5604 44.9463 55.951C43.9932 60.2855 42.1601 64.378 39.5606 67.975C36.9611 71.572 33.6507 74.5968 29.8343 76.862C26.1083 79.043 21.0673 80.34 17.6953 77.643C15.4843 75.877 14.6683 72.843 14.7033 70.011C14.8133 61.545 21.0824 54.585 26.9734 48.5C22.1324 47.943 17.2633 49.216 12.3923 49.081C7.5213 48.946 2.06832 46.761 0.633325 42.106C-0.553675 38.256 1.58931 33.932 4.92831 31.679C8.26731 29.426 12.5133 28.929 16.5283 29.241C21.7409 29.6503 26.7804 31.2976 31.2283 34.046" fill="white"/>
<path d="M15.7811 57.3882C14.8838 56.8597 14.2332 55.9964 13.9724 54.9883C13.7115 53.9801 13.8618 52.9096 14.3901 52.0122C15.3846 50.344 16.4933 48.7465 17.7081 47.2312C19.227 45.1933 21.0794 43.4267 23.1871 42.0062C23.6283 41.7392 24.1178 41.5616 24.6275 41.4838C25.1373 41.4059 25.6575 41.4292 26.1582 41.5523C26.659 41.6754 27.1307 41.896 27.5462 42.2014C27.9618 42.5068 28.3131 42.8911 28.5801 43.3322C28.8472 43.7734 29.0247 44.2629 29.1026 44.7726C29.1805 45.2824 29.1572 45.8026 29.034 46.3033C28.9109 46.8041 28.6904 47.2758 28.385 47.6913C28.0796 48.1069 27.6953 48.4582 27.2541 48.7252C25.9506 49.6857 24.799 50.8369 23.8381 52.1402C22.8563 53.3629 21.9602 54.652 21.1561 55.9982C20.6274 56.8951 19.7643 57.5453 18.7564 57.8059C17.7485 58.0666 16.6783 57.9163 15.7811 57.3882Z" fill="#FAA29D"/>
<path d="M26.9124 50.4671C27.2217 53.1953 27.1131 55.9547 26.5904 58.6501C26.2397 60.543 25.6758 62.3901 24.9094 64.1561C24.6645 64.7167 24.5627 65.3292 24.6132 65.9388C24.6637 66.5484 24.8648 67.136 25.1986 67.6486C25.5323 68.1612 25.9882 68.5829 26.5252 68.8757C27.0623 69.1685 27.6637 69.3233 28.2754 69.3261C31.1523 69.3503 34.0061 68.8105 36.6753 67.7371C39.6824 66.5922 42.2486 64.5225 44.0044 61.8261L26.9124 50.4671ZM69.2474 30.0671C66.5652 25.6985 62.4972 22.3539 57.6924 20.5671C54.0334 19.1714 50.1453 18.4734 46.2293 18.5091C44.6512 18.5072 43.0748 18.6141 41.5113 18.8291C25.8543 31.8291 30.0893 63.0491 65.5483 56.0891C69.0124 52.8056 71.2635 48.4466 71.9353 43.7211C72.6071 38.9957 71.6601 34.1819 69.2484 30.0631L69.2474 30.0671Z" fill="#FAFAFA"/>
<path d="M34.9209 61.0601C42.2252 63.7242 50.2355 63.7242 57.5399 61.0601C60.5068 59.942 63.2275 58.2567 65.5499 56.0981C30.1659 56.7321 36.2589 31.0981 41.5129 18.8381C39.2041 19.15 36.9401 19.733 34.7679 20.5751C29.9631 22.362 25.8951 25.7065 23.2129 30.0751C21.2925 33.3185 20.29 37.0229 20.3129 40.7921C20.3013 43.5648 20.838 46.3125 21.8919 48.8771C23.1141 51.6918 24.9009 54.2256 27.1419 56.3219C29.3828 58.4182 32.0301 60.0322 34.9199 61.0641L34.9209 61.0601Z" fill="#EEEEEE"/>
<path d="M35.4613 45.2421C37.6561 45.2421 39.4353 43.8255 39.4353 42.0781C39.4353 40.3306 37.6561 38.9141 35.4613 38.9141C33.2665 38.9141 31.4873 40.3306 31.4873 42.0781C31.4873 43.8255 33.2665 45.2421 35.4613 45.2421Z" fill="#FAA29D"/>
<path d="M56.9994 45.2421C59.1942 45.2421 60.9734 43.8255 60.9734 42.0781C60.9734 40.3306 59.1942 38.9141 56.9994 38.9141C54.8046 38.9141 53.0254 40.3306 53.0254 42.0781C53.0254 43.8255 54.8046 45.2421 56.9994 45.2421Z" fill="#FAA29D"/>
<path d="M54.6822 40.019C54.421 40.019 54.1704 39.9153 53.9857 39.7305C53.801 39.5458 53.6972 39.2953 53.6972 39.034V37.41C53.6972 37.1487 53.801 36.898 53.9859 36.7132C54.1707 36.5284 54.4213 36.4245 54.6827 36.4245C54.9441 36.4245 55.1947 36.5284 55.3796 36.7132C55.5644 36.898 55.6682 37.1487 55.6682 37.41V39.034C55.6682 39.1635 55.6427 39.2916 55.5931 39.4112C55.5436 39.5308 55.4709 39.6394 55.3794 39.7309C55.2878 39.8224 55.1791 39.8949 55.0595 39.9443C54.9398 39.9938 54.8117 40.0192 54.6822 40.019ZM40.1392 35.142C40.0045 34.9182 39.7864 34.757 39.5329 34.6938C39.2795 34.6306 39.0112 34.6706 38.7872 34.805C38.4806 34.9847 38.1316 35.0794 37.7762 35.0794C37.4208 35.0794 37.0719 34.9847 36.7652 34.805C36.5415 34.6782 36.277 34.6438 36.0282 34.7092C35.7795 34.7746 35.5661 34.9346 35.4337 35.1551C35.3013 35.3756 35.2603 35.6392 35.3194 35.8895C35.3785 36.1398 35.5331 36.3571 35.7502 36.495C36.1073 36.7089 36.4962 36.8645 36.9022 36.956C36.8291 37.0962 36.7911 37.252 36.7912 37.41V39.034C36.7912 39.2954 36.895 39.5461 37.0799 39.7309C37.2647 39.9157 37.5153 40.0195 37.7767 40.0195C38.0381 40.0195 38.2888 39.9157 38.4736 39.7309C38.6584 39.5461 38.7622 39.2954 38.7622 39.034V37.41C38.7621 37.2519 38.7237 37.0961 38.6502 36.956C39.0562 36.8645 39.4451 36.7088 39.8022 36.495C39.9134 36.4284 40.0104 36.3405 40.0875 36.2363C40.1647 36.1322 40.2205 36.0138 40.2518 35.888C40.2831 35.7622 40.2893 35.6315 40.27 35.5033C40.2506 35.3751 40.2062 35.252 40.1392 35.141V35.142ZM48.4572 40.986C48.3293 40.9862 48.2026 40.9614 48.0842 40.913C46.7683 40.5064 45.3923 40.3288 44.0162 40.388H44.0002C43.7388 40.388 43.4882 40.2842 43.3034 40.0994C43.1185 39.9146 43.0147 39.6639 43.0147 39.4025C43.0147 39.1412 43.1185 38.8905 43.3034 38.7057C43.4882 38.5209 43.7388 38.417 44.0002 38.417H44.0352C45.6626 38.3488 47.2889 38.5761 48.8352 39.088C49.0476 39.174 49.2234 39.3312 49.3324 39.5326C49.4415 39.7341 49.477 39.9672 49.4329 40.192C49.3888 40.4168 49.2677 40.6192 49.0906 40.7644C48.9135 40.9097 48.6913 40.9888 48.4622 40.988L48.4572 40.986Z" fill="#2B2B2B"/>
<path d="M66.067 59.6261C63.95 60.7091 61.391 60.2811 58.823 59.1481C56.508 58.1396 54.352 56.7996 52.423 55.1701C52.0307 54.8341 51.7086 54.4241 51.475 53.9636C51.2414 53.503 51.1009 53.0008 51.0617 52.4858C51.0224 51.9709 51.0851 51.4532 51.2461 50.9625C51.4072 50.4719 51.6635 50.0178 52.0003 49.6262C52.3371 49.2347 52.7478 48.9135 53.2089 48.6809C53.6701 48.4484 54.1725 48.3091 54.6875 48.271C55.2026 48.2329 55.7201 48.2967 56.2104 48.4589C56.7008 48.6211 57.1543 48.8784 57.545 49.2161C58.8889 50.3391 60.3868 51.2639 61.993 51.9621C63.8778 52.7564 65.8685 53.2712 67.902 53.49C68.4621 54.5491 68.5836 55.7858 68.2403 56.9336C67.8971 58.0814 67.1166 59.0484 66.067 59.6261Z" fill="#FAA29D"/>
<path d="M65.0329 41.5062C63.857 41.5062 62.9004 40.5477 62.9004 39.3697C62.9004 38.3456 63.6243 37.4659 64.6231 37.2749C64.7592 37.2475 64.8986 37.2336 65.0377 37.2336C66.0555 37.2336 66.9157 37.9347 67.1297 38.9386L67.1326 38.9521L67.135 38.9657C67.3493 40.1274 66.5939 41.2469 65.4503 41.4648C65.3127 41.4922 65.1723 41.5062 65.0329 41.5062ZM65.0367 36.5294C63.8588 36.5294 62.9005 35.5711 62.9005 34.3932L62.9005 29.6036C62.9006 28.4257 63.8589 27.4674 65.0367 27.4674C65.7129 27.4674 66.3424 27.1967 66.8092 26.7051C67.2754 26.2141 67.5128 25.5695 67.4775 24.8902C67.4116 23.6202 66.3622 22.6052 65.0884 22.5796C65.0687 22.5791 65.0506 22.5789 65.0326 22.5789C63.8223 22.5789 62.7836 23.482 62.6165 24.6796C62.6007 24.7929 62.5927 24.9085 62.5928 25.023C62.5928 26.2012 61.6345 27.1595 60.4565 27.1595C59.2786 27.1595 58.3203 26.2012 58.3203 25.0233C58.3203 24.7115 58.3421 24.3972 58.385 24.0892C58.6089 22.4853 59.4057 21.0166 60.6289 19.9536C61.8509 18.8915 63.4151 18.3066 65.0333 18.3066C65.0806 18.3066 65.1277 18.3071 65.1752 18.3081C68.6768 18.3784 71.5627 21.1724 71.7443 24.6689C71.8409 26.5298 71.1887 28.2977 69.9077 29.647C69.1592 30.4355 68.2085 31.0374 67.1731 31.3878V34.3933C67.1729 35.5713 66.2145 36.5294 65.0367 36.5294Z" fill="#FAA29D"/>
<path d="M65.0329 40.5062C65.1073 40.5062 65.1831 40.4987 65.2593 40.4832C65.832 40.3761 66.2731 39.806 66.1516 39.147C66.0133 38.498 65.3952 38.137 64.8154 38.2562C64.3089 38.351 63.9004 38.8099 63.9004 39.3697C63.9004 40.0073 64.4229 40.5062 65.0329 40.5062ZM65.0367 35.5294C65.6642 35.5294 66.173 35.0208 66.1731 34.3933V30.6245C67.3135 30.3912 68.372 29.8122 69.1825 28.9585C70.2726 27.8102 70.8279 26.3051 70.7456 24.7207C70.5911 21.7455 68.1352 19.3677 65.1543 19.3079C62.2553 19.2474 59.775 21.3645 59.3755 24.2273C59.339 24.4891 59.3203 24.7568 59.3203 25.0233C59.3203 25.6509 59.829 26.1595 60.4565 26.1595C61.084 26.1595 61.5928 25.6509 61.5928 25.0233C61.5927 24.8621 61.6039 24.7011 61.6261 24.5415C61.8665 22.8178 63.3632 21.5417 65.1086 21.5798C66.9038 21.616 68.3832 23.0473 68.4762 24.8384C68.5257 25.7942 68.1912 26.7019 67.5343 27.3937C66.8768 28.0861 65.99 28.4674 65.0367 28.4674C64.4092 28.4674 63.9005 28.9761 63.9005 29.6036L63.9005 34.3932C63.9005 35.0207 64.4092 35.5294 65.0367 35.5294ZM65.0329 42.5062C63.3056 42.5062 61.9004 41.0992 61.9004 39.3697C61.9004 38.3661 62.3747 37.4569 63.1271 36.8795C62.3817 36.3056 61.9005 35.4046 61.9005 34.3932L61.9005 29.6036C61.9006 27.8742 63.3075 26.4674 65.0367 26.4674C65.4418 26.4674 65.8039 26.3115 66.0841 26.0165C66.3635 25.7222 66.5001 25.3506 66.4789 24.942C66.44 24.1931 65.8204 23.5945 65.0683 23.5793C65.0543 23.579 65.0434 23.5789 65.0326 23.5789C64.3183 23.5789 63.7054 24.1115 63.6069 24.8178C63.5975 24.8853 63.5928 24.9543 63.5928 25.0227C63.5928 26.7526 62.1859 28.1595 60.4565 28.1595C58.7272 28.1595 57.3203 26.7526 57.3203 25.0233C57.3203 24.6655 57.3453 24.3047 57.3946 23.9511C57.6518 22.1079 58.5675 20.4203 59.9729 19.1988C61.3769 17.9786 63.1741 17.3066 65.0333 17.3066C65.0875 17.3066 65.1414 17.3072 65.1958 17.3083C69.2186 17.3891 72.5342 20.5994 72.7429 24.617C72.8539 26.7545 72.1046 28.7854 70.6329 30.3355C69.9284 31.0776 69.095 31.6643 68.1731 32.0733V34.3933C68.1729 35.4056 67.6906 36.3074 66.9441 36.8811C66.9552 36.8896 66.9662 36.8982 66.9772 36.9068C67.5521 37.3598 67.9536 38.0073 68.1077 38.7301L68.1185 38.7844C68.4318 40.4837 67.3226 42.1225 65.6438 42.4459C65.4425 42.4859 65.2371 42.5062 65.0329 42.5062Z" fill="white"/>
</svg>
