<svg width="230" height="150" viewBox="0 0 230 150" fill="none" xmlns="http://www.w3.org/2000/svg">
<path d="M161.069 91.056C147.296 117.724 101.085 132.447 57.8692 123.935C14.6532 115.423 -9.18376 86.902 4.63224 60.244C18.4482 33.586 64.6832 18.89 107.882 27.428C151.046 35.935 174.858 64.428 161.064 91.057L161.069 91.056Z" fill="#FEF5F6" stroke="#FFF1F3"/>
<path d="M116.293 44.8451C115.822 46.3212 114.855 47.5885 113.555 48.4313C112.255 49.2741 110.703 49.6403 109.163 49.4676C107.623 49.2949 106.191 48.5938 105.11 47.4839C104.029 46.3739 103.366 44.9236 103.234 43.3799C103.102 41.8362 103.51 40.2944 104.386 39.0172C105.263 37.7399 106.556 36.806 108.044 36.3745C109.532 35.943 111.124 36.0405 112.548 36.6505C113.972 37.2605 115.141 38.3452 115.855 39.7201C116.262 40.5033 116.51 41.3593 116.586 42.2389C116.661 43.1184 116.561 44.0041 116.293 44.8451Z" fill="white"/>
<path d="M30.9153 94.2119C30.2929 94.4325 29.7831 94.8905 29.4972 95.4857C29.2113 96.0809 29.1725 96.7651 29.3893 97.3889C30.5351 100.651 32.4214 103.603 34.9001 106.013C37.3789 108.423 40.3825 110.225 43.6753 111.279C43.9891 111.379 44.3195 111.416 44.6478 111.389C44.976 111.361 45.2957 111.27 45.5884 111.119C45.8811 110.967 46.1413 110.76 46.3539 110.509C46.5666 110.257 46.7276 109.966 46.8278 109.652C46.928 109.339 46.9654 109.008 46.9379 108.68C46.9104 108.352 46.8185 108.032 46.6674 107.739C46.5164 107.447 46.3092 107.186 46.0576 106.974C45.8061 106.761 45.5151 106.6 45.2013 106.5C42.6422 105.69 40.3065 104.296 38.3787 102.428C36.4509 100.56 34.9838 98.27 34.0933 95.7379C33.8726 95.1153 33.4145 94.6053 32.8191 94.3193C32.2236 94.0334 31.5392 93.9948 30.9153 94.2119Z" fill="white"/>
<path d="M84.6162 148.618C84.4468 148.941 84.1922 149.212 83.8799 149.401C83.5677 149.59 83.2097 149.69 82.8447 149.69C82.4798 149.69 82.1218 149.59 81.8095 149.401C81.4972 149.212 81.2426 148.941 81.0732 148.618L73.3782 133.928C73.2186 133.623 73.1403 133.282 73.1508 132.939C73.1614 132.595 73.2605 132.259 73.4386 131.965C73.6166 131.671 73.8676 131.427 74.1673 131.258C74.467 131.089 74.8052 131 75.1492 131H90.5392C90.8834 131 91.2217 131.089 91.5215 131.258C91.8213 131.427 92.0724 131.67 92.2506 131.965C92.4288 132.259 92.528 132.594 92.5386 132.938C92.5492 133.282 92.4709 133.623 92.3112 133.928L84.6162 148.618Z" fill="#FAA29D"/>
<path d="M160.74 16.1918C160.652 16.1921 160.565 16.1701 160.487 16.1278C132.055 0.561784 102.157 4.68678 101.86 4.72778C101.792 4.73776 101.722 4.73416 101.655 4.71717C101.588 4.70018 101.525 4.67015 101.469 4.62878C101.414 4.58741 101.367 4.53552 101.332 4.47607C101.296 4.41661 101.273 4.35077 101.263 4.28228C101.253 4.2138 101.256 4.14402 101.273 4.07693C101.29 4.00984 101.32 3.94675 101.362 3.89126C101.403 3.83578 101.455 3.78899 101.515 3.75356C101.574 3.71813 101.64 3.69476 101.708 3.68478C102.008 3.64278 132.257 -0.532219 160.994 15.2018C161.096 15.2583 161.177 15.3472 161.223 15.4543C161.269 15.5615 161.278 15.681 161.249 15.794C161.22 15.907 161.155 16.0072 161.062 16.0788C160.97 16.1505 160.857 16.1895 160.74 16.1898V16.1918Z" fill="white"/>
<path d="M159.228 23.6729C159.123 23.6726 159.02 23.6409 158.933 23.5817C158.846 23.5226 158.778 23.4387 158.739 23.3409C157.225 19.5409 150.062 18.3349 149.991 18.3229C149.854 18.3003 149.732 18.2246 149.65 18.1123C149.569 18 149.534 17.8601 149.555 17.7229C149.566 17.6547 149.589 17.5893 149.625 17.5303C149.661 17.4714 149.708 17.4202 149.764 17.3798C149.82 17.3393 149.883 17.3103 149.951 17.2945C150.018 17.2788 150.087 17.2765 150.155 17.2879C150.473 17.3389 157.979 18.6009 159.714 22.9559C159.746 23.0359 159.757 23.1224 159.748 23.2079C159.739 23.2934 159.708 23.3752 159.66 23.4464C159.612 23.5176 159.547 23.5759 159.471 23.6162C159.395 23.6565 159.31 23.6777 159.224 23.6779L159.228 23.6729Z" fill="white"/>
<path d="M77.4613 111.47H77.4423C42.2533 110.189 25.8553 88.4917 25.6943 88.2697C25.6113 88.1573 25.5764 88.0164 25.5972 87.8782C25.618 87.74 25.6929 87.6157 25.8053 87.5327C25.9178 87.4497 26.0586 87.4148 26.1968 87.4356C26.335 87.4564 26.4593 87.5312 26.5423 87.6437C26.7003 87.8587 42.8233 109.151 77.4803 110.414C77.6201 110.416 77.7531 110.474 77.8502 110.575C77.9472 110.675 78.0003 110.81 77.9978 110.95C77.9953 111.09 77.9374 111.223 77.8368 111.32C77.7361 111.417 77.6011 111.47 77.4613 111.468V111.47Z" fill="white"/>
<g opacity="0.53">
<path d="M100.824 33.1999C100.308 32.5725 99.9491 31.8305 99.7784 31.0359C99.6982 30.638 99.724 30.2259 99.8532 29.841C99.9823 29.4561 100.21 29.1119 100.514 28.8429C100.672 28.7186 100.852 28.6265 101.045 28.572C101.237 28.5174 101.439 28.5014 101.638 28.5249C101.837 28.5484 102.029 28.611 102.204 28.7089C102.379 28.8069 102.533 28.9384 102.656 29.0959C102.826 29.4043 102.928 29.7451 102.956 30.0959L103.422 33.2179C104.053 31.9447 105.061 30.897 106.308 30.2179C106.961 29.8649 107.892 29.6729 108.35 30.2579C108.468 30.4315 108.538 30.6326 108.555 30.8416C108.571 31.0506 108.533 31.2602 108.443 31.4499C108.26 31.8269 108.005 32.1648 107.693 32.4449C106.751 33.3889 105.73 34.2517 104.642 35.0239C105.389 35.196 106.067 35.5875 106.589 36.1482C107.111 36.7089 107.454 37.413 107.572 38.1699C107.63 38.467 107.6 38.7745 107.486 39.0549C107.328 39.3124 107.087 39.5077 106.802 39.6082C106.517 39.7086 106.206 39.7082 105.921 39.6069C105.356 39.3871 104.862 39.0172 104.492 38.5369C103.962 37.9406 103.476 37.3055 103.039 36.6369C102.901 37.2664 102.635 37.8608 102.257 38.3832C101.88 38.9056 101.399 39.3449 100.844 39.6739C100.594 39.8628 100.293 39.9741 99.9798 39.9942C99.6665 40.0143 99.3542 39.9422 99.0814 39.7869C98.9307 39.6463 98.8134 39.4737 98.7381 39.2818C98.6628 39.0899 98.6315 38.8835 98.6464 38.6779C98.8281 37.4501 99.464 36.3353 100.428 35.5539C99.7284 35.4729 99.0184 35.6539 98.3104 35.6379C97.9568 35.6612 97.6043 35.5769 97.2994 35.3961C96.9946 35.2152 96.7516 34.9464 96.6024 34.6249C96.5367 34.339 96.5614 34.0397 96.6732 33.7685C96.785 33.4972 96.9783 33.2675 97.2264 33.1109C97.7326 32.8077 98.326 32.6831 98.9114 32.7569C99.669 32.8169 100.401 33.0568 101.047 33.4569" fill="#ADD6E5"/>
<path d="M68.8574 122.487C67.8914 122.022 66.9444 121.509 66.0054 120.973V122.818L66.0384 122.836C66.5264 123.102 67.0164 123.348 67.5074 123.585H71.5224C70.6137 123.27 69.7239 122.904 68.8574 122.487Z" fill="#ADD6E5"/>
<path d="M134.646 117.972C133.307 117.438 131.938 116.98 130.546 116.601C131.842 115.586 133.212 114.671 134.646 113.863V112.034C132.484 113.174 130.452 114.545 128.585 116.123C124.257 115.19 119.795 115.052 115.417 115.715C107.677 116.903 99.9014 120.515 92.0904 122.856C91.6554 122.968 91.2223 123.09 90.7903 123.233C90.3517 123.356 89.913 123.473 89.4744 123.586H101.91C101.641 123.473 101.374 123.364 101.11 123.268C100.15 122.913 99.1558 122.658 98.1434 122.506C102.143 121.09 106.117 119.589 110.209 118.481C115.695 116.915 121.457 116.568 127.091 117.465C125.308 119.366 123.687 121.414 122.246 123.586H124.114C124.766 122.57 125.479 121.595 126.25 120.667C127.117 119.669 128.048 118.728 129.037 117.851C130.407 118.165 131.756 118.561 133.077 119.038C133.603 119.229 134.124 119.438 134.64 119.65L134.646 117.972Z" fill="#ADD6E5"/>
<path d="M50.0503 46.9148C49.8372 45.9838 49.8319 45.0172 50.0348 44.0839C50.2378 43.1505 50.6439 42.2734 51.2243 41.5148C51.8335 40.7791 52.6867 40.2867 53.6286 40.1276C54.5705 39.9684 55.5382 40.1531 56.3553 40.6478C56.2373 37.3548 58.9472 34.4698 62.0672 33.4108C63.4538 32.8669 64.9878 32.8293 66.3993 33.3048C67.6669 33.8743 68.6928 34.873 69.2963 36.1248C69.8891 37.3707 70.3305 38.683 70.6113 40.0338C71.6503 38.5118 73.8203 38.3778 75.6573 38.5338C76.7163 38.5123 77.7449 38.8883 78.5403 39.5878C78.9021 40.0336 79.1489 40.5614 79.2593 41.1248C79.6792 42.8467 79.5369 44.6577 78.8533 46.2928C80.2823 45.8388 81.7672 46.8198 82.7782 47.9268C83.4075 48.5285 83.9034 49.2556 84.2336 50.0611C84.5639 50.8667 84.7212 51.7326 84.6953 52.6028C84.493 53.7138 83.9095 54.7194 83.0453 55.4463C82.1812 56.1732 81.0905 56.5759 79.9613 56.5848C78.8322 56.5506 77.7278 56.2447 76.7419 55.6933C75.756 55.1419 74.9175 54.361 74.2973 53.4168C74.0893 55.9468 71.7753 57.7908 69.4383 58.7838C68.3069 59.2908 67.0991 59.6061 65.8643 59.7168C64.026 59.8014 62.2099 59.2865 60.6896 58.2496C59.1692 57.2128 58.0267 55.7101 57.4343 53.9678C56.8864 54.6753 56.1809 55.2452 55.374 55.632C54.5671 56.0189 53.6811 56.2121 52.7864 56.1963C51.8917 56.1805 51.0131 55.956 50.2204 55.5409C49.4277 55.1257 48.7428 54.5313 48.2203 53.8048C47.8165 53.2759 47.5362 52.6634 47.3996 52.0121C47.2631 51.3609 47.2739 50.6874 47.4313 50.0408C47.6081 49.3991 47.9884 48.8321 48.5149 48.4248C49.0414 48.0175 49.6857 47.7919 50.3513 47.7818" fill="#ADD6E5"/>
</g>
<path d="M134.623 96.698C134.623 96.698 130.18 125.122 131.209 124.876C132.238 124.63 140.309 126.606 139.409 126.184C138.509 125.762 134.86 120.628 134.86 120.628L141.871 99.928L134.623 96.698Z" fill="#FDC59D"/>
<path d="M134.858 120.627L135.924 117.482C134.512 117.439 133.103 117.318 131.704 117.119C131.154 121.573 130.849 124.962 131.204 124.877C131.576 124.844 131.95 124.862 132.317 124.93L137.152 123.714C135.996 122.225 134.858 120.627 134.858 120.627Z" fill="#FFB3DB"/>
<path d="M132.129 113.824L136.944 114.474L139.132 108.017V108.01L133.253 105.825C132.879 108.375 132.481 111.175 132.129 113.824Z" fill="#EFA47D"/>
<path d="M134.204 121.174C134.204 121.174 133.97 119.03 135.104 119.129C136.238 119.228 138.645 120.056 138.257 120.756C137.839 121.354 137.333 121.886 136.757 122.334C136.757 122.334 141.704 125.905 140.757 126.923C140.166 127.56 129.427 125.486 129.457 124.713C129.487 123.94 130.5 120.238 131.103 120.332C131.738 120.592 132.316 120.975 132.803 121.458L134.204 121.174Z" fill="#ADD6E5"/>
<path d="M140.592 125.862C136.84 125.76 133.143 124.936 129.703 123.435C129.586 123.852 129.504 124.278 129.457 124.709C129.43 125.482 140.169 127.556 140.757 126.919C140.976 126.68 140.872 126.302 140.592 125.862Z" fill="#ADD6E5"/>
<path d="M138.124 122.799C138.124 122.799 137.71 122.054 137.142 121.999C136.574 121.944 135.334 122.562 135.775 123.311C136.216 124.06 137.832 123.497 138.124 122.799Z" fill="#ADD6E5"/>
<path d="M139.585 123.989C139.585 123.989 139.171 123.244 138.603 123.189C138.035 123.134 136.795 123.753 137.236 124.501C137.677 125.249 139.295 124.688 139.585 123.989Z" fill="#ADD6E5"/>
<path d="M126.51 95.5259L123.868 119.677C123.868 119.677 118.642 120.029 118.868 121.177C119.094 122.325 126.863 122.989 126.863 122.989L133.539 96.9609L126.51 95.5259Z" fill="#FDC59D"/>
<path d="M126.863 122.988L128.488 116.654C126.888 116.402 125.379 116.141 124.275 115.942L123.866 119.676C122.835 119.751 121.809 119.89 120.794 120.092L122.545 122.379L122.904 122.503C124.889 122.818 126.863 122.988 126.863 122.988Z" fill="#FFB3DB"/>
<path d="M131.224 105.988L125.272 106.825L124.735 111.736L129.407 113.073L131.224 105.988Z" fill="#EFA47D"/>
<path d="M124.784 118.951C124.784 118.951 126.073 117.487 124.998 117.115C123.923 116.743 121.731 116.659 121.798 117.457C121.865 118.255 121.984 118.968 121.984 118.968C121.984 118.968 116.416 121.068 116.862 122.381C117.141 123.204 127.382 124.84 127.674 124.125C127.966 123.41 128.552 119.615 127.963 119.454C127.279 119.433 126.597 119.547 125.956 119.789L124.784 118.951Z" fill="#ADD6E5"/>
<path d="M127.917 123.153C125.017 123.485 119.625 122.382 117.008 121.785C116.938 121.866 116.888 121.963 116.862 122.067C116.837 122.172 116.837 122.281 116.862 122.385C117.141 123.208 127.382 124.844 127.673 124.129C127.781 123.811 127.862 123.484 127.917 123.153Z" fill="#ADD6E5"/>
<path d="M120.634 118.898C120.634 118.898 121.241 118.298 121.801 118.407C122.361 118.516 123.379 119.456 122.745 120.05C122.111 120.644 120.718 119.653 120.634 118.898Z" fill="#ADD6E5"/>
<path d="M118.892 119.632C118.892 119.632 119.498 119.032 120.059 119.141C120.62 119.25 121.637 120.19 121.002 120.784C120.367 121.378 118.981 120.384 118.892 119.632Z" fill="#ADD6E5"/>
<path d="M117.642 108.818C117.642 108.818 127.12 76.7899 130.501 75.0889C133.882 73.3879 138.821 76.0009 143.49 79.1359C150.872 84.0939 150.438 111.908 150.438 111.908L117.642 108.818Z" fill="#ADD6E5"/>
<path d="M150.364 106.481C149.823 106.21 149.252 106.002 148.664 105.861C147.164 105.517 146.12 106.113 144.799 106.703C144.452 106.876 144.066 106.957 143.679 106.937C143.292 106.918 142.917 106.798 142.589 106.591C142.006 106.184 141.38 105.843 140.721 105.576C139.607 105.382 138.46 105.584 137.48 106.148C136.888 106.455 136.23 106.611 135.563 106.601C134.833 106.461 134.137 106.182 133.514 105.777C133.058 105.456 132.531 105.25 131.979 105.176C131.426 105.103 130.864 105.165 130.34 105.357C129.797 105.713 129.21 105.998 128.594 106.206C128.297 106.233 127.998 106.201 127.714 106.112C127.43 106.022 127.167 105.877 126.939 105.685C126.098 104.956 125.202 104.293 124.259 103.703C122.923 103.053 121.759 103.558 120.501 104.13C120.013 104.351 119.489 104.482 118.954 104.517C118.854 104.841 118.754 105.151 118.668 105.444C119.948 105.444 120.908 104.77 122.125 104.372C124.61 103.559 125.844 106.946 128.166 107.106C129.589 107.206 130.4 105.577 131.76 105.764C133.065 105.943 134.047 107.057 135.36 107.264C136.568 107.452 137.635 106.813 138.716 106.391C139.034 106.235 139.381 106.147 139.735 106.135C140.089 106.123 140.441 106.187 140.769 106.321C141.442 106.621 141.982 107.161 142.645 107.485C144.125 108.211 145.211 107.264 146.569 106.779C148.053 106.248 149.223 106.932 150.398 107.648C150.389 107.277 150.378 106.888 150.364 106.481Z" fill="#F7FFFA"/>
<path d="M122.837 102.489C123.41 102.084 124.002 101.709 124.613 101.364C124.932 101.259 125.274 101.247 125.599 101.328C125.925 101.409 126.221 101.581 126.453 101.823C127.144 102.591 127.998 103.194 128.953 103.588C130.353 103.915 131.215 102.456 132.532 102.574C133.789 102.686 134.71 103.955 136.046 103.791C137.34 103.632 138.079 101.928 139.488 102.576C140.525 103.053 141.264 104.055 142.394 104.361C143.018 104.501 143.671 104.431 144.251 104.161C145.03 103.789 145.86 103.533 146.713 103.4C147.911 103.348 149.108 103.517 150.245 103.9C150.23 103.613 150.213 103.321 150.196 103.024C148.207 102.517 146.107 102.657 144.203 103.424C143.889 103.598 143.541 103.7 143.183 103.722C142.825 103.744 142.467 103.686 142.134 103.553C141.54 103.241 140.972 102.882 140.434 102.481C140.077 102.199 139.654 102.013 139.205 101.938C138.756 101.864 138.296 101.904 137.867 102.055C137.326 102.29 136.915 102.764 136.367 102.974C135.981 103.056 135.583 103.055 135.197 102.971C134.812 102.887 134.449 102.722 134.132 102.488C133.669 102.194 133.139 102.02 132.591 101.982C132.043 101.945 131.495 102.045 130.996 102.274C130.423 102.687 129.714 102.866 129.014 102.774C128.495 102.558 128.027 102.234 127.642 101.824C127.015 101.09 126.14 100.613 125.183 100.483C123.71 100.475 122.674 101.849 121.208 102.006C120.726 102.055 120.24 102.023 119.768 101.913C119.668 102.243 119.568 102.563 119.468 102.876C120.6 103.166 121.8 103.028 122.837 102.489Z" fill="#F7FFFA"/>
<path d="M134.905 83.67C134.905 83.67 143.82 94.618 147.068 84.492C146.148 82.057 144.98 80.134 143.495 79.137C142.969 78.784 142.439 78.437 141.909 78.104L129.719 75.864C128.568 77.419 127.031 80.971 125.44 85.196C125.999 85.7227 126.695 86.0799 127.449 86.226C133.25 87.267 134.905 83.67 134.905 83.67Z" fill="#F7FFFA"/>
<path d="M134.874 77.2979L133.684 81.5428L136.494 81.9939L137.458 77.4019L134.874 77.2979Z" fill="#EFA47D"/>
<path d="M141.303 85.353C139.252 90.788 135.284 100.521 131.15 99.121C131.15 99.121 131.472 95.805 129.333 95.805L128.219 103.592C128.219 103.592 138.981 110.402 146.177 88.584C146.46 87.725 146.734 85.344 145.528 84.578C145.233 84.272 144.866 84.0438 144.462 83.9137C144.057 83.7836 143.626 83.7556 143.208 83.8323C142.789 83.9091 142.397 84.0881 142.064 84.3534C141.732 84.6187 141.47 84.9621 141.303 85.353Z" fill="#FFC89E"/>
<path d="M166.233 70.7531C167.941 66.5384 166.194 61.8527 162.33 60.2871C158.467 58.7215 153.95 60.869 152.243 65.0836C150.535 69.2982 152.282 73.984 156.146 75.5496C160.009 77.1152 164.526 74.9677 166.233 70.7531Z" fill="#FFC89E"/>
<path d="M164.837 70.0728C164.443 70.8453 163.833 71.4863 163.08 71.9178C162.328 72.3493 161.466 72.5525 160.6 72.5026C159.735 72.4527 158.902 72.1519 158.204 71.637C157.506 71.122 156.974 70.415 156.671 69.6024C156.368 68.7897 156.308 67.9065 156.499 67.0604C156.689 66.2144 157.122 65.442 157.744 64.8377C158.366 64.2333 159.15 63.823 160.001 63.6568C160.852 63.4906 161.734 63.5757 162.537 63.9018C163.659 64.417 164.531 65.3557 164.962 66.5123C165.393 67.6688 165.348 68.9491 164.837 70.0728Z" fill="#EFA47D"/>
<path d="M120.084 51.2571C121.792 47.0423 120.044 42.3566 116.181 40.7913C112.317 39.2259 107.801 41.3736 106.093 45.5883C104.386 49.803 106.133 54.4887 109.997 56.0541C113.86 57.6195 118.377 55.4718 120.084 51.2571Z" fill="#FFC89E"/>
<path d="M116.906 49.9058C116.512 50.6783 115.902 51.3194 115.149 51.7508C114.397 52.1823 113.535 52.3855 112.67 52.3356C111.804 52.2857 110.971 51.985 110.273 51.47C109.576 50.955 109.043 50.2481 108.74 49.4354C108.437 48.6228 108.377 47.7395 108.568 46.8935C108.758 46.0474 109.191 45.2751 109.813 44.6707C110.435 44.0663 111.219 43.656 112.07 43.4898C112.922 43.3236 113.803 43.4087 114.606 43.7348C115.728 44.25 116.6 45.1887 117.031 46.3453C117.462 47.5019 117.417 48.7821 116.906 49.9058Z" fill="#EFA47D"/>
<path d="M114.292 47.8183C116.46 42.4672 120.665 38.1966 125.982 35.946C131.299 33.6954 137.293 33.6491 142.644 35.8174L147.565 37.8116C150.215 38.8852 152.627 40.4702 154.664 42.4761C156.701 44.4819 158.323 46.8694 159.437 49.5021C160.552 52.1348 161.136 54.9612 161.158 57.82C161.18 60.6787 160.639 63.5138 159.565 66.1633C157.397 71.5145 153.192 75.7851 147.875 78.0357C142.558 80.2863 136.564 80.3326 131.213 78.1643L126.293 76.1705C120.942 74.0022 116.671 69.7969 114.42 64.4799C112.17 59.1628 112.124 53.1695 114.292 47.8183Z" fill="#FFC89E"/>
<path d="M136.538 56.1299L135.55 57.0299C135.394 56.4655 135.196 55.9136 134.957 55.3789C134.671 55.9484 134.434 56.5416 134.249 57.1519" stroke="#4F0200" stroke-miterlimit="10"/>
<path d="M123.987 58.9628C123.372 58.7134 122.811 58.3453 122.338 57.8793C121.865 57.4134 121.488 56.8588 121.229 56.2472C120.97 55.6356 120.834 54.9791 120.829 54.315C120.824 53.6509 120.95 52.9923 121.199 52.3768L122.204 49.8958C122.708 48.6529 123.685 47.661 124.92 47.1384C126.155 46.6157 127.547 46.6051 128.79 47.1088C130.033 47.6124 131.025 48.5891 131.548 49.824C132.071 51.0588 132.082 52.4508 131.578 53.6938L130.573 56.1748C130.324 56.7903 129.956 57.3507 129.49 57.8239C129.024 58.2971 128.469 58.6739 127.858 58.9328C127.246 59.1917 126.59 59.3276 125.925 59.3328C125.261 59.3379 124.603 59.2122 123.987 58.9628Z" fill="#F7FFFA"/>
<path d="M131.575 53.6937C131.845 53.0286 131.969 52.3136 131.94 51.5965C131.911 50.8794 131.73 50.1768 131.407 49.5357C131.089 49.2473 130.724 49.0168 130.326 48.8547C128.043 47.9287 125.266 49.4617 124.126 52.2787C122.986 55.0957 123.91 58.1287 126.194 59.0547C126.399 59.1353 126.611 59.1972 126.827 59.2397C127.658 59.0828 128.436 58.7199 129.09 58.1842C129.744 57.6486 130.254 56.9572 130.571 56.1737L131.575 53.6937Z" fill="#2B2B2B"/>
<path d="M144.488 67.2418C145.124 67.4332 145.792 67.4973 146.453 67.4306C147.114 67.3639 147.755 67.1676 148.34 66.853C148.925 66.5384 149.442 66.1116 149.862 65.597C150.283 65.0824 150.597 64.49 150.788 63.8538L151.559 61.2898C151.751 60.6538 151.815 59.9862 151.748 59.3253C151.682 58.6644 151.486 58.0231 151.171 57.438C150.857 56.853 150.43 56.3356 149.915 55.9155C149.401 55.4955 148.808 55.1809 148.172 54.9898C147.536 54.7983 146.869 54.734 146.208 54.8006C145.547 54.8672 144.905 55.0634 144.32 55.3779C143.735 55.6925 143.218 56.1192 142.798 56.6338C142.378 57.1483 142.063 57.7406 141.872 58.3768L141.101 60.9408C140.91 61.577 140.846 62.2446 140.912 62.9055C140.979 63.5664 141.175 64.2078 141.49 64.7929C141.804 65.378 142.231 65.8954 142.745 66.3156C143.26 66.7358 143.852 67.0505 144.488 67.2418Z" fill="#F7FFFA"/>
<path d="M141.872 58.3788C142.078 57.6915 142.429 57.0561 142.901 56.5152C143.372 55.9744 143.954 55.5406 144.607 55.2428C145.035 55.2168 145.465 55.2662 145.876 55.3888C148.236 56.0978 149.44 59.0318 148.566 61.9428C147.692 64.8538 145.066 66.6428 142.709 65.9288C142.499 65.8634 142.295 65.7791 142.1 65.6768C141.55 65.0345 141.171 64.2643 140.996 63.437C140.821 62.6096 140.857 61.7517 141.1 60.9418L141.872 58.3788Z" fill="#2B2B2B"/>
<path d="M129.418 62.3088C133.443 63.2158 132.688 66.1768 134.358 66.4028C136.028 66.6288 138.601 64.7948 140.258 67.1668C141.915 69.5388 138.427 77.7218 128.802 72.5288C122.072 68.8988 125.392 61.4038 129.418 62.3088Z" fill="#2B2B2B"/>
<path d="M140.319 70.4039C139.31 69.7263 138.202 69.2095 137.034 68.8719C133.082 67.7269 129.12 68.7309 126.868 71.1369C127.448 71.6897 128.1 72.1607 128.807 72.5369C135.507 76.1469 139.232 73.2799 140.319 70.4039Z" fill="#FFAC9F"/>
<path d="M127.867 62.3719C127.821 65.2419 130.067 68.0469 133.45 69.0259C134.645 69.4071 135.915 69.4912 137.151 69.271C138.386 69.0507 139.548 68.5327 140.538 67.7619C140.479 67.5512 140.387 67.3514 140.265 67.1699C138.603 64.7979 136.03 66.6308 134.36 66.4058C132.69 66.1808 133.445 63.2189 129.42 62.3119C128.906 62.1951 128.371 62.2158 127.867 62.3719Z" fill="#F7FFFA"/>
<path d="M139.883 66.7198C139.794 66.6275 139.699 66.5417 139.598 66.4628C139.221 66.7628 138.809 67.0156 138.37 67.2158C138.361 67.1969 138.351 67.1786 138.34 67.1608C138.274 67.0594 138.182 66.9771 138.074 66.9218C137.956 66.8614 137.823 66.8338 137.69 66.8418C137.564 66.8499 137.443 66.8905 137.337 66.9598C137.216 67.0407 137.123 67.1574 137.071 67.2938C137.055 67.3178 137.038 67.3408 137.022 67.3638L137.015 67.3738C137.015 67.3818 137.007 67.3888 137.004 67.3968C136.979 67.4577 136.957 67.5202 136.939 67.5838C136.939 67.5928 136.939 67.6008 136.939 67.6098C136.939 67.6188 136.939 67.6428 136.939 67.6598C135.828 67.86 134.683 67.7493 133.63 67.3398L133.65 67.3108L133.709 67.1428L133.721 66.9638C133.718 66.9344 133.712 66.9053 133.704 66.8768L133.687 66.7908V66.7848C133.687 66.7848 133.612 66.6298 133.609 66.6268C133.591 66.6024 133.571 66.579 133.55 66.5568L133.493 66.4908L133.346 66.3908L133.259 66.3598C133.247 66.3548 133.235 66.3598 133.223 66.3528L133.197 66.3428C133.168 66.3293 133.138 66.3192 133.107 66.3128C133.046 66.3048 132.985 66.3028 132.924 66.2998C132.91 66.2984 132.895 66.2984 132.881 66.2998C132.824 66.3088 132.764 66.3218 132.707 66.3348H132.696L132.674 66.3418L132.653 66.3508C132.601 66.3758 132.544 66.4018 132.493 66.4288L132.483 66.4348C132.425 66.4751 132.37 66.5206 132.319 66.5708C132.307 66.581 132.297 66.5924 132.287 66.6048L132.275 66.6208C131.534 66.1081 130.888 65.4687 130.369 64.7318C130.378 64.7234 130.386 64.7143 130.393 64.7048C130.405 64.6888 130.415 64.6718 130.427 64.6558L130.479 64.5818C130.499 64.5518 130.523 64.5218 130.541 64.4888C130.547 64.4788 130.548 64.4668 130.554 64.4548C130.602 64.3874 130.636 64.3113 130.654 64.2308C130.676 64.1482 130.676 64.0613 130.654 63.9788C130.645 63.8961 130.615 63.8171 130.566 63.7498C130.505 63.6572 130.422 63.582 130.323 63.5318L130.229 63.4988C130.22 63.4928 130.212 63.4848 130.202 63.4788C130.136 63.4256 130.056 63.3911 129.972 63.3788C129.942 63.3788 129.9 63.3738 129.877 63.3718C129.846 63.3672 129.815 63.3652 129.783 63.3658C129.722 63.3706 129.662 63.3823 129.604 63.4008C129.439 63.0373 129.3 62.6627 129.188 62.2798C129.048 62.2597 128.907 62.2497 128.766 62.2498C128.876 62.7448 129.031 63.2288 129.229 63.6958C129.216 63.7158 129.2 63.7348 129.188 63.7538C129.172 63.7856 129.158 63.8191 129.149 63.8538C129.134 63.8858 129.123 63.9194 129.115 63.9538L129.103 64.1308C129.11 64.1905 129.122 64.2496 129.137 64.3078L129.187 64.4078L129.218 64.5678L129.289 64.7138L129.395 64.8378C129.455 64.8968 129.53 64.9389 129.611 64.9598C129.662 64.9858 129.72 64.9975 129.777 64.9938C129.826 65.0027 129.877 64.9996 129.925 64.9848C130.492 65.842 131.23 66.5724 132.093 67.1298C132.093 67.1478 132.093 67.1598 132.093 67.1788C132.101 67.2995 132.14 67.4161 132.207 67.5172C132.273 67.6184 132.364 67.7005 132.472 67.7558C132.584 67.8125 132.71 67.8384 132.835 67.8308C132.956 67.8226 133.072 67.7833 133.173 67.7168L133.186 67.7078C133.22 67.7218 133.252 67.7398 133.286 67.7538C134.475 68.2378 135.778 68.369 137.039 68.1318L137.056 68.1658V68.1728C137.06 68.1806 137.065 68.188 137.07 68.1948C137.136 68.2939 137.227 68.3738 137.333 68.4265C137.44 68.4792 137.558 68.5028 137.677 68.4948C137.793 68.4872 137.906 68.4496 138.003 68.3856C138.101 68.3216 138.18 68.2335 138.233 68.1298L138.309 68.0098L138.346 67.9508L138.365 67.9198C138.37 67.9087 138.375 67.8974 138.379 67.8858L138.374 67.9008C138.374 67.8958 138.374 67.8898 138.38 67.8848C138.398 67.8432 138.414 67.8004 138.426 67.7568C138.426 67.7428 138.438 67.7298 138.44 67.7158C138.44 67.7038 138.45 67.6938 138.453 67.6808C138.975 67.4343 139.458 67.1103 139.883 66.7198ZM130.61 64.2698L130.557 64.4208L130.551 64.4298C130.572 64.3768 130.593 64.3228 130.61 64.2698ZM138.254 67.2678C138.23 67.2199 138.199 67.1763 138.161 67.1388L138.261 67.2588L138.254 67.2678Z" fill="#A0A0A0"/>
<path d="M123.28 62.5399C122.564 64.3049 120.104 64.9739 117.78 64.0339C115.456 63.0939 114.159 60.9009 114.875 59.1339C115.591 57.3669 118.051 56.6989 120.375 57.6399C122.699 58.5809 123.995 60.7749 123.28 62.5399Z" fill="#FFB8A1"/>
<path d="M151.433 73.3787C150.718 75.1437 148.257 75.8127 145.933 74.8727C143.609 73.9327 142.312 71.7397 143.028 69.9727C143.744 68.2057 146.204 67.5377 148.528 68.4787C150.852 69.4197 152.148 71.6117 151.433 73.3787Z" fill="#FFB8A1"/>
<path d="M157.04 26.8639C133.92 12.4579 110.566 26.6029 111.798 40.1099C111.798 40.1099 118.604 41.7999 119.984 42.4819C122.938 43.9439 127.415 35.6259 129.593 35.4589C129.593 35.4589 125.287 41.8179 126.014 42.0379C126.348 42.1379 132.914 45.3539 139.9 48.7969C141.406 46.1689 145.868 38.3829 145.541 39.0079C145.202 39.6559 142.651 47.5979 141.941 49.808L146.941 52.2769C148.461 50.0029 152.98 43.3119 152.724 44.5479C151.619 47.5192 150.365 50.4332 148.968 53.2789C153.504 55.5199 156.898 57.2009 156.898 57.2009C156.898 57.2009 160.656 48.0499 160.773 49.4069C160.829 52.9919 160.605 56.5757 160.104 60.1259C160.104 60.1259 166.868 61.5609 166.949 67.3999C166.956 67.3959 180.159 41.2689 157.04 26.8639Z" fill="#2B2B2B"/>
<path d="M127.01 44.5098C127.89 44.1803 128.842 44.0921 129.767 44.2546C130.692 44.4171 131.557 44.8243 132.271 45.4338" fill="#2B2B2B"/>
<path d="M127.01 44.5098C127.89 44.1803 128.842 44.0921 129.767 44.2546C130.692 44.4171 131.557 44.8243 132.271 45.4338" stroke="#2B2B2B" stroke-miterlimit="10"/>
<path d="M147.504 52.1899C147.951 52.0776 148.416 52.0552 148.872 52.1238C149.327 52.1925 149.765 52.3509 150.159 52.5899C150.944 53.0747 151.647 53.6824 152.239 54.3899" fill="#2B2B2B"/>
<path d="M147.504 52.1899C147.951 52.0776 148.416 52.0552 148.872 52.1238C149.327 52.1925 149.765 52.3509 150.159 52.5899C150.944 53.0747 151.647 53.6824 152.239 54.3899" stroke="#2B2B2B" stroke-miterlimit="10"/>
<path d="M142.809 21.5949C142.809 21.5949 127.709 7.95991 128.399 6.97791C129.089 5.99591 134.256 3.64091 134.256 3.64091L137.091 10.0479L136.597 1.8409L145.045 1.9689L144.171 8.0249L148.771 0.524902C148.771 0.524902 155.338 0.709906 155.507 2.05991C155.676 3.40991 149.597 13.9829 149.597 13.9829L155.833 5.6469L158.102 7.15791C158.102 7.15791 151.381 21.7819 150.15 22.2579C148.919 22.7339 142.809 21.5949 142.809 21.5949Z" fill="#2B2B2B"/>
<path d="M138.506 19.2519C140.836 15.3739 147.838 17.8689 145.006 22.7709C142.174 27.6729 136.176 23.1319 138.506 19.2519Z" fill="#2B2B2B"/>
<path d="M143.209 19.4588C145.123 21.1188 143.037 24.5588 140.354 22.4118C137.671 20.2648 141.777 18.2148 143.209 19.4588Z" fill="#2B2B2B"/>
<path d="M146.211 19.8829C148.541 16.0039 155.543 18.4989 152.711 23.4019C149.879 28.3049 143.88 23.7639 146.211 19.8829Z" fill="#2B2B2B"/>
<path d="M151.286 19.554C152.728 20.805 151.156 23.396 149.135 21.78C147.114 20.164 150.207 18.616 151.286 19.554Z" fill="#2B2B2B"/>
<path d="M134.202 95.473C133.381 95.349 133.178 92.863 134.261 92.415C135.344 91.967 135.576 95.68 134.202 95.473Z" fill="#EFA47D"/>
<path d="M89.1624 73.7111C88.3414 73.5871 88.1394 71.1011 89.2214 70.6531C90.3034 70.2051 90.5374 73.9111 89.1624 73.7111Z" fill="#EFA47D"/>
<path d="M135.153 95.1719C135.119 96.0019 132.67 96.4719 132.107 95.4459C131.544 94.4199 135.209 93.7829 135.153 95.1719Z" fill="#FFC89E"/>
<path d="M135.039 96.6238C135.005 97.4538 132.556 97.9238 131.993 96.8978C131.43 95.8718 135.096 95.2348 135.039 96.6238Z" fill="#FFC89E"/>
<path d="M135.06 97.8098C135.026 98.6398 132.577 99.1098 132.014 98.0838C131.451 97.0578 135.116 96.4208 135.06 97.8098Z" fill="#FFC89E"/>
<path d="M134.629 98.931C134.604 99.536 132.818 99.881 132.407 99.131C131.996 98.381 134.67 97.918 134.629 98.931Z" fill="#FFC89E"/>
<path d="M79.2783 70.191C80.1003 70.309 80.3193 72.791 79.2403 73.249C78.1613 73.707 77.9013 69.993 79.2783 70.191Z" fill="#FFC89E"/>
<path d="M80.7114 70.452C81.5344 70.571 81.7523 73.052 80.6733 73.51C79.5943 73.968 79.3364 70.254 80.7114 70.452Z" fill="#FFC89E"/>
<path d="M81.8942 70.554C82.7162 70.672 82.9352 73.154 81.8552 73.612C80.7752 74.07 80.5182 70.356 81.8942 70.554Z" fill="#FFC89E"/>
<path d="M82.9643 71.0969C83.5643 71.1829 83.7243 72.9969 82.9363 73.3279C82.1483 73.6589 81.9613 70.9519 82.9643 71.0969Z" fill="#FFC89E"/>
<g filter="url(#filter0_d_4_32624)">
<path d="M41.5432 21.094C37.7772 22.669 40.1532 27.099 43.0082 26.915C43.4362 26.888 43.9212 26.878 44.4312 26.862C44.4032 27.016 45.3122 26.909 45.3602 26.825C47.2192 26.725 49.1472 26.4 49.7272 24.925C51.8212 19.594 44.6442 19.798 41.5432 21.094Z" fill="#ADD6E5"/>
</g>
<defs>
<filter id="filter0_d_4_32624" x="34.5986" y="15.325" width="20.5054" height="16.6152" filterUnits="userSpaceOnUse" color-interpolation-filters="sRGB">
<feFlood flood-opacity="0" result="BackgroundImageFix"/>
<feColorMatrix in="SourceAlpha" type="matrix" values="0 0 0 0 0 0 0 0 0 0 0 0 0 0 0 0 0 0 127 0" result="hardAlpha"/>
<feOffset/>
<feGaussianBlur stdDeviation="2.5"/>
<feColorMatrix type="matrix" values="0 0 0 0 0.666667 0 0 0 0 0.301961 0 0 0 0 0.72549 0 0 0 0.102 0"/>
<feBlend mode="normal" in2="BackgroundImageFix" result="effect1_dropShadow_4_32624"/>
<feBlend mode="normal" in="SourceGraphic" in2="effect1_dropShadow_4_32624" result="shape"/>
</filter>
</defs>
</svg>
