<svg xmlns="http://www.w3.org/2000/svg" xmlns:xlink="http://www.w3.org/1999/xlink" width="182.454" height="127.77" viewBox="0 0 182.454 127.77">
  <defs>
    <filter id="Path_113" x="129.235" y="29.125" width="25.506" height="21.62" filterUnits="userSpaceOnUse">
      <feOffset input="SourceAlpha"/>
      <feGaussianBlur stdDeviation="2.5" result="blur"/>
      <feFlood flood-color="#aa4db9" flood-opacity="0.102"/>
      <feComposite operator="in" in2="blur"/>
      <feComposite in="SourceGraphic"/>
    </filter>
  </defs>
  <g id="Group_43527" data-name="Group 43527" transform="translate(0)">
    <g id="Group_43519" data-name="Group 43519" transform="translate(0 0)">
      <g id="Group_43518" data-name="Group 43518" transform="translate(25.568 19.455)">
        <path id="Path_150" data-name="Path 150" d="M166.343,63.374a.525.525,0,0,0,.253-.064c28.432-15.566,58.33-11.441,58.627-11.4a.527.527,0,1,0,.152-1.043c-.3-.042-30.549-4.217-59.286,11.517a.527.527,0,0,0,.254.988Z" transform="translate(-165.816 -50.337)" fill="#fff"/>
        <path id="Path_151" data-name="Path 151" d="M229.24,70.134a.528.528,0,0,0,.489-.332c1.514-3.8,8.677-5.006,8.748-5.018a.528.528,0,0,0,.436-.6.52.52,0,0,0-.6-.435c-.318.051-7.824,1.313-9.559,5.668a.528.528,0,0,0,.49.722Z" transform="translate(-227.202 -49.616)" fill="#fff"/>
        <path id="Path_152" data-name="Path 152" d="M31.806,183.866h.019c35.189-1.281,51.587-22.978,51.748-23.2a.527.527,0,0,0-.848-.626c-.158.215-16.281,21.507-50.938,22.77a.527.527,0,0,0,.019,1.054Z" transform="translate(51.999 -75.551)" fill="#fff"/>
      </g>
      <g id="Group_122" data-name="Group 122" transform="translate(0)">
        <g id="Group_43509" data-name="Group 43509" transform="translate(0)">
          <g id="Group_120" data-name="Group 120">
            <g id="Group_119" data-name="Group 119" transform="translate(36.064 27.995)" opacity="0.53">
              <path id="Path_247" data-name="Path 247" d="M582.411,42.711a5.085,5.085,0,0,0,1.046-2.164,2.317,2.317,0,0,0-.736-2.193,1.523,1.523,0,0,0-2.142.253,2.49,2.49,0,0,0-.3,1l-.466,3.122a6.9,6.9,0,0,0-2.886-3c-.653-.353-1.584-.545-2.042.04a1.208,1.208,0,0,0-.093,1.192,3.246,3.246,0,0,0,.75.995,23.7,23.7,0,0,0,3.051,2.579,3.838,3.838,0,0,0-2.93,3.146,1.559,1.559,0,0,0,.086.885,1.318,1.318,0,0,0,1.565.552,3.326,3.326,0,0,0,1.429-1.07,16.074,16.074,0,0,0,1.453-1.9,4.708,4.708,0,0,0,2.195,3.037,1.608,1.608,0,0,0,1.763.113,1.38,1.38,0,0,0,.435-1.109,4.954,4.954,0,0,0-1.782-3.124c.7-.081,1.41.1,2.118.084a1.756,1.756,0,0,0,1.708-1.013,1.415,1.415,0,0,0-.624-1.514,2.637,2.637,0,0,0-1.685-.354,4.772,4.772,0,0,0-2.136.7" transform="translate(-548.589 -38.031)" fill="#add6e5"/>
              <g id="Group_118" data-name="Group 118" transform="translate(0 83.514)">
                <path id="Path_249" data-name="Path 249" d="M558.848,310.54c.966-.465,1.913-.978,2.852-1.514v1.845l-.033.018c-.488.266-.978.512-1.469.749h-4.015A25.04,25.04,0,0,0,558.848,310.54Z" transform="translate(-493.059 -300.087)" fill="#add6e5"/>
                <path id="Path_250" data-name="Path 250" d="M611,294.086a38.279,38.279,0,0,1,4.1-1.371,32.541,32.541,0,0,0-4.1-2.738v-1.829a33.788,33.788,0,0,1,6.061,4.089,36.527,36.527,0,0,1,13.168-.408c7.74,1.188,15.516,4.8,23.327,7.141.435.112.868.234,1.3.377q.658.184,1.316.353H643.736c.269-.113.536-.222.8-.318a15,15,0,0,1,2.967-.762c-4-1.416-7.974-2.917-12.066-4.025a39.1,39.1,0,0,0-16.882-1.016A46.565,46.565,0,0,1,623.4,299.7h-1.868a29.446,29.446,0,0,0-2.136-2.919,30.519,30.519,0,0,0-2.787-2.816,34.761,34.761,0,0,0-4.04,1.187c-.526.191-1.047.4-1.563.612Z" transform="translate(-611.002 -288.148)" fill="#add6e5"/>
              </g>
              <path id="Path_252" data-name="Path 252" d="M704.764,30.79a6.5,6.5,0,0,0-1.174-5.4,3.983,3.983,0,0,0-5.131-.867c.118-3.293-2.592-6.178-5.712-7.237a6.329,6.329,0,0,0-4.332-.106,5.9,5.9,0,0,0-2.9,2.826,17.28,17.28,0,0,0-1.315,3.909c-1.039-1.522-3.209-1.656-5.046-1.5a4.235,4.235,0,0,0-2.883,1.054A3.509,3.509,0,0,0,675.555,25a8.3,8.3,0,0,0,.406,5.168c-1.429-.454-2.914.527-3.925,1.634a6.214,6.214,0,0,0-1.917,4.676,4.851,4.851,0,0,0,4.734,3.982,7.032,7.032,0,0,0,5.664-3.168c.208,2.53,2.522,4.374,4.859,5.367a11.185,11.185,0,0,0,3.574.933,8.492,8.492,0,0,0,8.43-5.749,5.75,5.75,0,0,0,9.214-.163,4.464,4.464,0,0,0,.789-3.764,3.077,3.077,0,0,0-2.92-2.259" transform="translate(-620.168 -12.395)" fill="#add6e5"/>
            </g>
            <g id="Group_117" data-name="Group 117">
              <g id="Group_43529" data-name="Group 43529" transform="translate(0)">
                <g id="Group_96" data-name="Group 96" transform="translate(28.84 95)">
                  <g id="Group_93" data-name="Group 93" transform="translate(0 1.172)">
                    <path id="Path_188" data-name="Path 188" d="M661.943,230.642s4.443,28.424,3.414,28.178-9.1,1.73-8.2,1.308,4.549-5.556,4.549-5.556l-7.011-20.7Z" transform="translate(-654.696 -230.642)" fill="#fdc59d"/>
                    <path id="Path_189" data-name="Path 189" d="M656.995,265.209l-1.066-3.145a38.285,38.285,0,0,0,4.22-.363c.55,4.454.855,7.843.5,7.758a4.091,4.091,0,0,0-1.113.053l-4.835-1.216C655.857,266.807,656.995,265.209,656.995,265.209Z" transform="translate(-649.984 -241.28)" fill="#ffb3db"/>
                    <path id="Path_190" data-name="Path 190" d="M663.333,252.523l-4.815.65-2.187-6.457,0-.007,5.879-2.185C662.584,247.074,662.981,249.874,663.333,252.523Z" transform="translate(-653.592 -235.397)" fill="#efa47d"/>
                    <g id="Group_92" data-name="Group 92" transform="translate(0.995 22.423)">
                      <path id="Path_191" data-name="Path 191" d="M658.93,266.795s.234-2.144-.9-2.045-3.541.927-3.153,1.627a7.285,7.285,0,0,0,1.5,1.578s-4.947,3.571-4,4.589c.591.637,11.33-1.437,11.3-2.21s-1.043-4.475-1.646-4.381a5.219,5.219,0,0,0-1.7,1.126Z" transform="translate(-652.26 -264.747)" fill="#add6e5"/>
                      <path id="Path_192" data-name="Path 192" d="M652.547,273.735a29.212,29.212,0,0,0,10.889-2.427,7.792,7.792,0,0,1,.246,1.274c.027.773-10.712,2.847-11.3,2.21C652.158,274.553,652.262,274.175,652.547,273.735Z" transform="translate(-652.259 -266.994)" fill="#add6e5"/>
                      <path id="Path_193" data-name="Path 193" d="M661.735,269.923s.414-.745.982-.8,1.808.563,1.367,1.312S662.026,270.621,661.735,269.923Z" transform="translate(-658.983 -266.245)" fill="#add6e5"/>
                      <path id="Path_194" data-name="Path 194" d="M663.959,271.733s.414-.745.982-.8,1.808.564,1.367,1.312S664.251,272.432,663.959,271.733Z" transform="translate(-662.671 -266.865)" fill="#add6e5"/>
                    </g>
                  </g>
                  <g id="Group_95" data-name="Group 95" transform="translate(8.331 0)">
                    <path id="Path_195" data-name="Path 195" d="M643.182,228.859l2.642,24.151s5.226.352,5,1.5-7.995,1.812-7.995,1.812l-6.676-26.028Z" transform="translate(-636.15 -228.859)" fill="#fdc59d"/>
                    <path id="Path_196" data-name="Path 196" d="M640.714,266.957l-1.625-6.334c1.6-.252,3.109-.513,4.213-.712l.409,3.734a25.209,25.209,0,0,1,3.072.416l-1.751,2.287-.359.124C642.688,266.787,640.714,266.957,640.714,266.957Z" transform="translate(-634.038 -239.495)" fill="#ffb3db"/>
                    <path id="Path_197" data-name="Path 197" d="M645.083,244.771l5.952.837.537,4.911-4.672,1.337Z" transform="translate(-642.768 -234.309)" fill="#efa47d"/>
                    <g id="Group_94" data-name="Group 94" transform="translate(5.323 21.315)">
                      <path id="Path_198" data-name="Path 198" d="M636.5,263.388s-1.289-1.464-.214-1.836,3.267-.456,3.2.342-.186,1.511-.186,1.511,5.568,2.1,5.122,3.413c-.279.823-10.52,2.459-10.812,1.744s-.878-4.51-.289-4.671a5.211,5.211,0,0,1,2.007.335Z" transform="translate(-633.072 -261.278)" fill="#add6e5"/>
                      <path id="Path_199" data-name="Path 199" d="M633.075,270.166c2.9.332,8.292-.771,10.909-1.368a.673.673,0,0,1,.146.6c-.279.823-10.52,2.459-10.811,1.744A6.234,6.234,0,0,1,633.075,270.166Z" transform="translate(-632.777 -263.854)" fill="#add6e5"/>
                      <path id="Path_200" data-name="Path 200" d="M641.16,264.145s-.607-.6-1.167-.491-1.578,1.049-.944,1.643S641.076,264.9,641.16,264.145Z" transform="translate(-633.579 -262.088)" fill="#add6e5"/>
                      <path id="Path_201" data-name="Path 201" d="M638.517,265.26s-.606-.6-1.167-.491-1.578,1.049-.943,1.643S638.432,266.012,638.517,265.26Z" transform="translate(-629.198 -262.469)" fill="#add6e5"/>
                    </g>
                  </g>
                </g>
                <g id="Group_99" data-name="Group 99" transform="translate(20.262 74.028)">
                  <g id="Group_98" data-name="Group 98" transform="translate(0 0)">
                    <path id="Path_202" data-name="Path 202" d="M667.105,231.226S657.627,199.2,654.246,197.5s-8.32.912-12.989,4.047c-7.382,4.958-6.948,32.772-6.948,32.772Z" transform="translate(-634.305 -196.961)" fill="#add6e5"/>
                    <g id="Group_97" data-name="Group 97" transform="translate(0.048 25.918)">
                      <path id="Path_203" data-name="Path 203" d="M635.894,243.918a7.939,7.939,0,0,1,1.7-.62c1.5-.344,2.544.252,3.865.842a2.252,2.252,0,0,0,2.21-.112,9.5,9.5,0,0,1,1.868-1.015,4.833,4.833,0,0,1,3.241.572,4.035,4.035,0,0,0,1.917.453,5.749,5.749,0,0,0,2.049-.824,3.449,3.449,0,0,1,3.174-.42,7.633,7.633,0,0,0,1.746.849,2.247,2.247,0,0,0,1.655-.521,21.53,21.53,0,0,1,2.68-1.982c1.336-.65,2.5-.145,3.758.427a4.448,4.448,0,0,0,1.547.387c.1.324.2.634.286.927-1.28,0-2.24-.674-3.457-1.072-2.485-.813-3.719,2.574-6.041,2.734-1.423.1-2.234-1.529-3.594-1.342-1.305.179-2.287,1.293-3.6,1.5-1.208.188-2.275-.451-3.356-.873a2.5,2.5,0,0,0-2.053-.07c-.673.3-1.213.84-1.876,1.164-1.48.726-2.566-.221-3.924-.706-1.484-.531-2.654.153-3.829.869Q635.873,244.528,635.894,243.918Z" transform="translate(-635.858 -237.908)" fill="#f7fffa"/>
                      <path id="Path_204" data-name="Path 204" d="M664.488,238.4a20.89,20.89,0,0,0-1.776-1.125,1.779,1.779,0,0,0-1.84.459,6.908,6.908,0,0,1-2.5,1.765c-1.4.327-2.262-1.132-3.579-1.014-1.257.112-2.178,1.381-3.514,1.217-1.294-.159-2.033-1.863-3.442-1.215-1.037.477-1.776,1.479-2.906,1.785a2.9,2.9,0,0,1-1.857-.2,8.876,8.876,0,0,0-2.462-.761,9.741,9.741,0,0,0-3.532.5q.023-.431.049-.876a9.657,9.657,0,0,1,5.993.4,2.414,2.414,0,0,0,2.069.129,12.738,12.738,0,0,0,1.7-1.072,2.7,2.7,0,0,1,2.567-.426c.541.235.952.709,1.5.919a2.786,2.786,0,0,0,2.235-.486,3.292,3.292,0,0,1,3.136-.214,2.773,2.773,0,0,0,1.982.5,3.973,3.973,0,0,0,1.372-.95,3.928,3.928,0,0,1,2.459-1.341c1.473-.008,2.509,1.366,3.975,1.523a4.391,4.391,0,0,0,1.44-.093c.1.33.2.65.3.963A4.751,4.751,0,0,1,664.488,238.4Z" transform="translate(-636.925 -236.382)" fill="#f7fffa"/>
                    </g>
                    <path id="Path_205" data-name="Path 205" d="M658.322,206.761s-8.915,10.948-12.163.822c.92-2.435,2.088-4.358,3.573-5.355.526-.353,1.056-.7,1.586-1.033l12.19-2.24c1.151,1.555,2.688,5.107,4.279,9.332a4.053,4.053,0,0,1-2.009,1.03C659.977,210.358,658.322,206.761,658.322,206.761Z" transform="translate(-642.779 -197.644)" fill="#f7fffa"/>
                    <path id="Path_206" data-name="Path 206" d="M661.279,201.136l1.19,4.245-2.81.451-.964-4.592Z" transform="translate(-645.705 -198.391)" fill="#efa47d"/>
                  </g>
                  <path id="Path_207" data-name="Path 207" d="M655.5,212.578c2.051,5.435,6.019,15.168,10.153,13.768,0,0-.322-3.316,1.817-3.316l1.114,7.787s-10.762,6.81-17.958-15.008c-.283-.859-.557-3.24.649-4.006h0A2.578,2.578,0,0,1,655.5,212.578Z" transform="translate(-646.355 -201.778)" fill="#ffc89e"/>
                </g>
                <g id="Group_111" data-name="Group 111">
                  <g id="Group_109" data-name="Group 109" transform="translate(0 20.294)">
                    <g id="Group_108" data-name="Group 108">
                      <g id="Group_107" data-name="Group 107">
                        <g id="Group_106" data-name="Group 106" transform="translate(1.384 6.823)">
                          <g id="Group_105" data-name="Group 105" transform="translate(0 0)">
                            <g id="Group_104" data-name="Group 104">
                              <ellipse id="Ellipse_5" data-name="Ellipse 5" cx="8.234" cy="7.548" rx="8.234" ry="7.548" transform="translate(6.185 50.743) rotate(-112.059)" fill="#ffc89e"/>
                              <path id="Path_208" data-name="Path 208" d="M693.33,186.774a4.468,4.468,0,1,0,2.3-6.171A4.666,4.666,0,0,0,693.33,186.774Z" transform="translate(-688.841 -144.343)" fill="#efa47d"/>
                              <ellipse id="Ellipse_6" data-name="Ellipse 6" cx="8.234" cy="7.548" rx="8.234" ry="7.548" transform="translate(52.333 31.247) rotate(-112.056)" fill="#ffc89e"/>
                              <path id="Path_209" data-name="Path 209" d="M620.428,156.1a4.468,4.468,0,1,0,2.3-6.171A4.666,4.666,0,0,0,620.428,156.1Z" transform="translate(-568.008 -133.836)" fill="#efa47d"/>
                              <path id="Rectangle_21" data-name="Rectangle 21" d="M21.77,0h0A21.769,21.769,0,0,1,43.54,21.769v5.31a21.77,21.77,0,0,1-21.77,21.77h0A21.769,21.769,0,0,1,0,27.079V21.77A21.77,21.77,0,0,1,21.77,0Z" transform="translate(17.936 58.697) rotate(-112.058)" fill="#ffc89e"/>
                              <path id="Path_210" data-name="Path 210" d="M659.555,168.549l.988.9a11.665,11.665,0,0,1,.593-1.651,11.061,11.061,0,0,1,.708,1.773" transform="translate(-626.766 -140.061)" fill="none" stroke="#4f0200" stroke-miterlimit="10" stroke-width="1"/>
                              <g id="Group_100" data-name="Group 100" transform="translate(37.379 19.095)">
                                <path id="Path_211" data-name="Path 211" d="M647.1,166.879h0a5.057,5.057,0,0,0,2.788-6.586l-1.005-2.481a5.057,5.057,0,0,0-6.586-2.787h0a5.057,5.057,0,0,0-2.788,6.585l1.005,2.481A5.057,5.057,0,0,0,647.1,166.879Z" transform="translate(-639.138 -154.653)" fill="#f7fffa"/>
                                <path id="Path_212" data-name="Path 212" d="M643.783,162.573a5.039,5.039,0,0,1,.168-4.158,3.675,3.675,0,0,1,1.081-.681c2.283-.926,5.06.607,6.2,3.424s.216,5.85-2.068,6.776a3.664,3.664,0,0,1-.633.185,5.051,5.051,0,0,1-3.744-3.066Z" transform="translate(-643.412 -155.616)" fill="#2b2b2b"/>
                              </g>
                              <g id="Group_101" data-name="Group 101" transform="translate(17.553 27.135)">
                                <path id="Path_213" data-name="Path 213" d="M676.935,179.346h0a5.057,5.057,0,0,1-6.3-3.388l-.771-2.564a5.056,5.056,0,0,1,3.387-6.3h0a5.056,5.056,0,0,1,6.3,3.387l.771,2.564A5.058,5.058,0,0,1,676.935,179.346Z" transform="translate(-669.651 -166.881)" fill="#f7fffa"/>
                                <path id="Path_214" data-name="Path 214" d="M676.631,170.724a5.037,5.037,0,0,0-2.735-3.136,3.663,3.663,0,0,0-1.269.146c-2.36.709-3.564,3.643-2.69,6.554s3.5,4.7,5.857,3.986a3.64,3.64,0,0,0,.609-.252,5.049,5.049,0,0,0,1-4.735Z" transform="translate(-666.73 -167.122)" fill="#2b2b2b"/>
                              </g>
                              <g id="Group_103" data-name="Group 103" transform="translate(28.665 34.594)">
                                <path id="Path_215" data-name="Path 215" d="M656.654,178.3c-4.025.907-3.27,3.868-4.94,4.094s-4.243-1.608-5.9.764,1.831,10.555,11.456,5.362C664,184.89,660.679,177.395,656.654,178.3Z" transform="translate(-645.411 -178.227)" fill="#2b2b2b"/>
                                <path id="Path_216" data-name="Path 216" d="M648.329,189.606a11.74,11.74,0,0,1,3.285-1.532c3.952-1.145,7.914-.141,10.166,2.265a8.794,8.794,0,0,1-1.939,1.4C653.141,195.349,649.416,192.482,648.329,189.606Z" transform="translate(-647.987 -181.438)" fill="#ffac9f"/>
                                <path id="Path_217" data-name="Path 217" d="M662.517,178.364c.046,2.87-2.2,5.675-5.583,6.654a7.718,7.718,0,0,1-7.088-1.264,2.053,2.053,0,0,1,.273-.592c1.662-2.372,4.235-.539,5.905-.764s.915-3.187,4.94-4.094A3,3,0,0,1,662.517,178.364Z" transform="translate(-649.723 -178.228)" fill="#f7fffa"/>
                                <g id="Group_102" data-name="Group 102" transform="translate(0.778 0.007)">
                                  <path id="Path_218" data-name="Path 218" d="M651.194,182.715a2.745,2.745,0,0,1,.285-.257,5.925,5.925,0,0,0,1.228.753.625.625,0,0,1,.03-.055.7.7,0,0,1,.266-.239.748.748,0,0,1,.384-.08.729.729,0,0,1,.353.118.7.7,0,0,1,.266.334c.016.024.033.047.049.07l.007.01c0,.008.008.015.011.023a1.62,1.62,0,0,1,.065.187c0,.009,0,.017,0,.026s0,.033,0,.05a6.128,6.128,0,0,0,3.309-.32l-.02-.029v0l-.059-.168v0l-.012-.179v0h0a.627.627,0,0,1,.017-.087l.017-.086v-.006s.075-.155.078-.158a.842.842,0,0,1,.059-.07l.057-.066.147-.1.087-.031c.012-.005.024,0,.036-.007l.026-.01a.406.406,0,0,1,.09-.03c.061-.008.122-.01.183-.013a.232.232,0,0,1,.043,0c.057.009.117.022.174.035l.011,0,.022.007.021.009c.052.025.109.051.16.078l.01.006a1.183,1.183,0,0,1,.164.136.243.243,0,0,1,.032.034l.012.016a7.662,7.662,0,0,0,1.906-1.889.24.24,0,0,1-.024-.027c-.012-.016-.022-.033-.034-.049l-.052-.074c-.02-.03-.044-.06-.062-.093-.006-.01-.007-.022-.013-.034a.63.63,0,0,1-.1-.224.483.483,0,0,1,0-.252.478.478,0,0,1,.088-.229.636.636,0,0,1,.243-.218l.094-.033h0l.077-.026-.077.026c.009-.006.017-.014.027-.02a.479.479,0,0,1,.23-.1c.03,0,.072-.005.095-.007a.574.574,0,0,1,.094-.006.8.8,0,0,1,.179.035,8.552,8.552,0,0,0,.416-1.121,2.957,2.957,0,0,1,.422-.03,8.359,8.359,0,0,1-.463,1.446c.013.02.029.039.041.058a.5.5,0,0,1,.039.1.518.518,0,0,1,.034.1l.012.177v0a1.339,1.339,0,0,1-.034.177l-.05.1-.031.16-.071.146-.106.124a.475.475,0,0,1-.216.122.32.32,0,0,1-.166.034.312.312,0,0,1-.148-.009A7.427,7.427,0,0,1,659,183.13c0,.018,0,.03,0,.049a.7.7,0,0,1-.379.577.709.709,0,0,1-.363.075.7.7,0,0,1-.338-.114l-.013-.009c-.034.014-.066.032-.1.046a6.678,6.678,0,0,1-3.753.378l-.017.034,0,.007a.117.117,0,0,1-.014.022.674.674,0,0,1-.607.3.674.674,0,0,1-.556-.365l-.076-.12-.037-.059-.019-.031a.3.3,0,0,1-.014-.034l.005.015c0-.005,0-.011-.006-.016a1,1,0,0,1-.046-.128c0-.014-.012-.027-.014-.041v0c0-.012-.01-.022-.013-.035v0A5.731,5.731,0,0,1,651.194,182.715Zm9.273-2.45.053.151.006.009C660.5,180.372,660.483,180.318,660.467,180.265Zm.956-.736h0l-.014,0Zm-8.6,3.734a.483.483,0,0,1,.093-.129l-.1.12v0Z" transform="translate(-651.194 -178.238)" fill="#a0a0a0"/>
                                  <path id="Path_219" data-name="Path 219" d="M653.5,180.142h0l-.086.03Z" transform="translate(-643.836 -178.89)" fill="#a0a0a0"/>
                                  <path id="Path_220" data-name="Path 220" d="M653.417,180.142h0Z" transform="translate(-643.748 -178.89)" fill="#a0a0a0"/>
                                </g>
                              </g>
                            </g>
                            <path id="Path_221" data-name="Path 221" d="M629.99,175.915c.716,1.765,3.176,2.434,5.5,1.494s3.621-3.133,2.905-4.9-3.176-2.435-5.5-1.494S629.275,174.15,629.99,175.915Z" transform="translate(-583.943 -141.017)" fill="#ffb8a1"/>
                            <path id="Path_222" data-name="Path 222" d="M672.811,192.4c.715,1.765,3.176,2.434,5.5,1.494s3.621-3.133,2.905-4.9-3.176-2.435-5.5-1.494S672.1,190.633,672.811,192.4Z" transform="translate(-654.918 -146.663)" fill="#ffb8a1"/>
                          </g>
                        </g>
                        <path id="Path_223" data-name="Path 223" d="M639.008,121.279c23.12-14.406,46.474-.261,45.242,13.246,0,0-6.806,1.69-8.186,2.372-2.954,1.462-7.431-6.856-9.609-7.023,0,0,4.306,6.359,3.579,6.579-.334.1-6.9,3.316-13.886,6.759-1.506-2.628-5.968-10.414-5.641-9.789.339.648,2.89,8.59,3.6,10.8l-5,2.469c-1.52-2.274-6.039-8.965-5.783-7.729a94.8,94.8,0,0,0,3.756,8.731c-4.536,2.241-7.93,3.922-7.93,3.922s-3.758-9.151-3.875-7.794a69.044,69.044,0,0,0,.669,10.719s-6.764,1.435-6.845,7.274C629.092,161.811,615.889,135.684,639.008,121.279Z" transform="translate(-625.339 -115.234)" fill="#2b2b2b"/>
                      </g>
                    </g>
                  </g>
                  <path id="Path_229" data-name="Path 229" d="M653.806,151.091a5.262,5.262,0,0,0-5.261.924" transform="translate(-610.106 -107.106)" fill="#2b2b2b" stroke="#2b2b2b" stroke-miterlimit="10" stroke-width="1"/>
                  <path id="Path_230" data-name="Path 230" d="M684.451,162.888a3.484,3.484,0,0,0-2.655.4,8.62,8.62,0,0,0-2.08,1.8" transform="translate(-661.245 -111.223)" fill="#2b2b2b" stroke="#2b2b2b" stroke-miterlimit="10" stroke-width="1"/>
                  <g id="Group_110" data-name="Group 110" transform="translate(12.608)">
                    <path id="Path_231" data-name="Path 231" d="M665.916,105.437s15.1-13.635,14.41-14.617-5.857-3.337-5.857-3.337l-2.835,6.407.494-8.207-8.448.128.874,6.056-4.6-7.5s-6.567.185-6.736,1.535,5.91,11.923,5.91,11.923l-6.236-8.336L650.623,91s6.721,14.624,7.952,15.1S665.916,105.437,665.916,105.437Z" transform="translate(-650.623 -84.367)" fill="#2b2b2b"/>
                    <path id="Path_232" data-name="Path 232" d="M672.39,111.859c-2.33-3.878-9.332-1.383-6.5,3.519S674.72,115.739,672.39,111.859Z" transform="translate(-652.794 -93.132)" fill="#2b2b2b"/>
                    <path id="Path_233" data-name="Path 233" d="M668.229,112.968c-1.914,1.66.172,5.1,2.855,2.953S669.664,111.724,668.229,112.968Z" transform="translate(-653.335 -94.034)" fill="#2b2b2b"/>
                    <path id="Path_234" data-name="Path 234" d="M684.108,112.819c-2.33-3.879-9.332-1.384-6.5,3.519S686.438,116.7,684.108,112.819Z" transform="translate(-672.216 -93.461)" fill="#2b2b2b"/>
                    <path id="Path_235" data-name="Path 235" d="M681.74,113.161c-1.442,1.251.13,3.842,2.151,2.226S682.822,112.223,681.74,113.161Z" transform="translate(-674.928 -94.132)" fill="#2b2b2b"/>
                  </g>
                </g>
              </g>
              <g id="Group_116" data-name="Group 116" transform="translate(33.854 67.866)">
                <g id="Group_113" data-name="Group 113">
                  <path id="Path_236" data-name="Path 236" d="M652.711,226.784c.821-.124,1.024-2.61-.059-3.058S651.337,226.991,652.711,226.784Z" transform="translate(-650.058 -199.702)" fill="#efa47d"/>
                  <path id="Path_237" data-name="Path 237" d="M620.374,183.4c.821-.124,1.023-2.61-.059-3.058S619,183.6,620.374,183.4Z" transform="translate(-572.681 -178.08)" fill="#efa47d"/>
                  <path id="Path_238" data-name="Path 238" d="M706.908,211.316c.75-.439-16.362-35.442-16.362-35.442l-132.214,7,12.954,33.78Z" transform="translate(-558.332 -175.874)" fill="#faa29d"/>
                </g>
                <g id="Group_114" data-name="Group 114" transform="translate(1.702 25.981)">
                  <path id="Path_239" data-name="Path 239" d="M648.832,228.466c.034.83,2.483,1.3,3.046.274S648.776,227.077,648.832,228.466Z" transform="translate(-648.832 -227.666)" fill="#ffc89e"/>
                  <path id="Path_240" data-name="Path 240" d="M648.607,231.36c.034.83,2.483,1.3,3.046.274S648.551,229.971,648.607,231.36Z" transform="translate(-648.494 -229.108)" fill="#ffc89e"/>
                  <path id="Path_241" data-name="Path 241" d="M648.646,233.725c.034.83,2.483,1.3,3.046.274S648.59,232.336,648.646,233.725Z" transform="translate(-648.552 -230.287)" fill="#ffc89e"/>
                  <path id="Path_242" data-name="Path 242" d="M649.462,236.174c.025.605,1.811.95,2.222.2S649.421,235.161,649.462,236.174Z" transform="translate(-648.937 -231.615)" fill="#ffc89e"/>
                </g>
                <g id="Group_115" data-name="Group 115" transform="translate(53.383 1.793)">
                  <path id="Path_243" data-name="Path 243" d="M609.931,179.456c-.822.118-1.041,2.6.038,3.058S611.307,179.258,609.931,179.456Z" transform="translate(-605.738 -179.449)" fill="#ffc89e"/>
                  <path id="Path_244" data-name="Path 244" d="M612.787,179.976c-.823.119-1.041,2.6.038,3.058S614.163,179.778,612.787,179.976Z" transform="translate(-610.027 -179.708)" fill="#ffc89e"/>
                  <path id="Path_245" data-name="Path 245" d="M615.143,180.179c-.822.118-1.041,2.6.039,3.058S616.519,179.981,615.143,180.179Z" transform="translate(-613.565 -179.809)" fill="#ffc89e"/>
                  <path id="Path_246" data-name="Path 246" d="M617.6,181.263c-.6.086-.76,1.9.028,2.231S618.6,181.118,617.6,181.263Z" transform="translate(-617.091 -180.35)" fill="#ffc89e"/>
                </g>
              </g>
            </g>
          </g>
        </g>
      </g>
      <text id="يسعدنا_خدمتك" data-name="يسعدنا خدمتك" transform="translate(103.546 92.613)" fill="#fff" font-size="19" font-family="SegoeUI, Segoe UI"><tspan x="-56.545" y="0">يسعدنا خدمتك</tspan></text>
    </g>
    <g id="Group_43521" data-name="Group 43521" transform="translate(136.735 36.625)">
      <g transform="matrix(1, 0, 0, 1, -136.74, -36.62)" filter="url(#Path_113)">
        <path id="Path_113-2" data-name="Path 113" d="M13.006,44.479c3.766,1.574,1.391,6-1.465,5.825-.428-.027-.913-.037-1.423-.053.028.154-.881.047-.929-.037-1.859-.1-3.787-.425-4.367-1.9C2.728,42.979,9.9,43.183,13.006,44.479Z" transform="translate(132.29 -7.09)" fill="#add6e5"/>
      </g>
    </g>
  </g>
</svg>
