<svg xmlns="http://www.w3.org/2000/svg" xmlns:xlink="http://www.w3.org/1999/xlink" width="66.12" height="66.12" viewBox="0 0 66.12 66.12">
  <defs>
    <filter id="Path_33090" x="0" y="0" width="66.12" height="66.12" filterUnits="userSpaceOnUse">
      <feOffset input="SourceAlpha"/>
      <feGaussianBlur stdDeviation="5" result="blur"/>
      <feFlood flood-color="#add6e5" flood-opacity="0.4"/>
      <feComposite operator="in" in2="blur"/>
      <feComposite in="SourceGraphic"/>
    </filter>
    <filter id="Union_4" x="16.956" y="17.14" width="26.229" height="32.421" filterUnits="userSpaceOnUse">
      <feOffset input="SourceAlpha"/>
      <feGaussianBlur stdDeviation="2.5" result="blur-2"/>
      <feFlood flood-opacity="0.098"/>
      <feComposite operator="in" in2="blur-2"/>
      <feComposite in="SourceGraphic"/>
    </filter>
  </defs>
  <g id="back" transform="translate(17 17)">
    <g transform="matrix(1, 0, 0, 1, -17, -17)" filter="url(#Path_33090)">
      <g id="Path_33090-2" data-name="Path 33090" transform="translate(17 17)" fill="#add6e5">
        <path d="M 16.06005859375 33.1201171875 C 6.653108596801758 33.1201171875 -1.000001430511475 25.46700859069824 -1.000001430511475 16.06005859375 C -1.000001430511475 6.653108596801758 6.653108596801758 -1.000001430511475 16.06005859375 -1.000001430511475 C 25.46700859069824 -1.000001430511475 33.1201171875 6.653108596801758 33.1201171875 16.06005859375 C 33.1201171875 25.46700859069824 25.46700859069824 33.1201171875 16.06005859375 33.1201171875 Z" stroke="none"/>
        <path d="M 16.06005859375 0 C 7.204269409179688 0 0 7.204269409179688 0 16.06005859375 C 0 24.91584777832031 7.204269409179688 32.1201171875 16.06005859375 32.1201171875 C 24.91584777832031 32.1201171875 32.1201171875 24.91584777832031 32.1201171875 16.06005859375 C 32.1201171875 7.204278945922852 24.91584777832031 0 16.06005859375 0 M 16.06005859375 -2 C 26.01840972900391 -2 34.1201171875 6.101709365844727 34.1201171875 16.06005859375 C 34.1201171875 26.01840972900391 26.01840972900391 34.1201171875 16.06005859375 34.1201171875 C 6.101709365844727 34.1201171875 -2 26.01840972900391 -2 16.06005859375 C -2 6.101709365844727 6.101709365844727 -2 16.06005859375 -2 Z" stroke="none" fill="#fff"/>
      </g>
    </g>
    <path id="Path_33091" data-name="Path 33091" d="M0,0A16.078,16.078,0,0,1,16.06,16.06,16.078,16.078,0,0,1,0,32.12Z" transform="translate(16.06 0.291)" fill="#b6e0ef"/>
    <g id="mute" transform="translate(7.456 7.641)">
      <g transform="matrix(1, 0, 0, 1, -24.46, -24.64)" filter="url(#Union_4)">
        <path id="Union_4-2" data-name="Union 4" d="M8.717,17.053,4.449,13.5v-.03H1.531A1.528,1.528,0,0,1,0,11.939V5.481A1.529,1.529,0,0,1,1.531,3.95H4.449V3.92L8.717.368A1.5,1.5,0,0,1,10.34.143a1.528,1.528,0,0,1,.889,1.4V15.878A1.537,1.537,0,0,1,9.7,17.421,1.49,1.49,0,0,1,8.717,17.053Z" transform="translate(24.46 24.64)" fill="#fff"/>
      </g>
      <path id="Path_33097" data-name="Path 33097" d="M0,251.115H5.1v4.415a.505.505,0,0,1-.51.51H1.531A1.529,1.529,0,0,1,0,254.51Z" transform="translate(0 -242.571)" fill="#eee"/>
      <path id="Path_33098" data-name="Path 33098" d="M366.947,180.351a.505.505,0,0,1-.714.715l-1.684-1.674-1.684,1.674a.505.505,0,1,1-.715-.715l1.674-1.684-1.674-1.684a.505.505,0,1,1,.715-.715l1.684,1.674,1.684-1.674a.505.505,0,1,1,.714.715l-1.674,1.684.01.01Z" transform="translate(-349.68 -170.123)" fill="#faa29d"/>
      <path id="Path_33100" data-name="Path 33100" d="M366.947,253.514a.493.493,0,0,1-.714,0l-1.684-1.674-1.684,1.674a.505.505,0,1,1-.715-.715l1.674-1.684h1.449l.01.01,1.664,1.674A.493.493,0,0,1,366.947,253.514Z" transform="translate(-349.68 -242.571)" fill="#faa29d"/>
      <path id="Path_33101" data-name="Path 33101" d="M137.578,251.115v7.335a1.527,1.527,0,0,1-.888,1.4,1.5,1.5,0,0,1-1.623-.225l-4.267-3.552v-4.956Z" transform="translate(-126.35 -242.571)" fill="#eee"/>
    </g>
  </g>
</svg>
