<svg xmlns="http://www.w3.org/2000/svg" width="24.869" height="20.198" viewBox="0 0 24.869 20.198">
  <path id="Icon_awesome-twitter" data-name="Icon awesome-twitter" d="M22.313,8.414c.016.221.016.442.016.663a14.4,14.4,0,0,1-14.5,14.5A14.4,14.4,0,0,1,0,21.291a10.544,10.544,0,0,0,1.231.063,10.208,10.208,0,0,0,6.328-2.178,5.106,5.106,0,0,1-4.766-3.535,6.428,6.428,0,0,0,.963.079A5.391,5.391,0,0,0,5.1,15.547a5.1,5.1,0,0,1-4.087-5v-.063a5.133,5.133,0,0,0,2.3.647A5.1,5.1,0,0,1,1.736,4.312,14.488,14.488,0,0,0,12.245,9.645a5.754,5.754,0,0,1-.126-1.168A5.1,5.1,0,0,1,20.94,4.99a10.035,10.035,0,0,0,3.235-1.231,5.083,5.083,0,0,1-2.241,2.809,10.218,10.218,0,0,0,2.935-.789,10.956,10.956,0,0,1-2.556,2.635Z" transform="translate(0 -3.381)" fill="#add6e5"/>
</svg>
