<svg xmlns="http://www.w3.org/2000/svg" width="20.199" height="20.199" viewBox="0 0 20.199 20.199">
  <path id="Icon_ionic-logo-whatsapp" data-name="Icon ionic-logo-whatsapp" d="M12.533,2.25a9.878,9.878,0,0,0-9.916,9.84A9.738,9.738,0,0,0,4.04,17.17L2.25,22.449l5.49-1.744A9.933,9.933,0,0,0,22.449,12.09,9.878,9.878,0,0,0,12.533,2.25Zm4.931,13.576a2.561,2.561,0,0,1-1.754,1.13c-.465.025-.478.36-3.014-.741a10.346,10.346,0,0,1-4.18-3.953A4.863,4.863,0,0,1,7.58,9.627a2.81,2.81,0,0,1,.965-2.062.971.971,0,0,1,.687-.289c.2,0,.329-.006.477,0s.369-.031.561.48.651,1.765.71,1.893a.459.459,0,0,1,0,.441,1.722,1.722,0,0,1-.269.41c-.132.142-.278.318-.4.426s-.269.251-.131.508a7.588,7.588,0,0,0,1.343,1.792,6.919,6.919,0,0,0,1.988,1.322c.249.135.4.12.551-.042s.66-.71.838-.954.345-.2.575-.105,1.45.746,1.7.882.414.2.474.311A2.082,2.082,0,0,1,17.464,15.826Z" transform="translate(-2.25 -2.25)" fill="#add6e5"/>
</svg>
